<svg width="150" height="225" viewBox="0 0 150 225" fill="none" xmlns="http://www.w3.org/2000/svg">
<path d="M0 7C0 3.13401 3.13401 0 7 0H143C146.866 0 150 3.13401 150 7V218C150 221.866 146.866 225 143 225H7C3.13401 225 0 221.866 0 218V7Z" fill="#363636"/>
<rect x="16.5" y="184.5" width="117" height="25.5" rx="8.5" fill="url(#paint0_linear_10_432)"/>
<path d="M28.964 194.616H26.052V192.9H33.982V194.616H31.07V202H28.964V194.616ZM43.4611 192.9V202H41.3551V198.269H37.2211V202H35.1151V192.9H37.2211V196.488H41.3551V192.9H43.4611ZM52.6602 200.31V202H45.6142V192.9H52.4912V194.59H47.7072V196.566H51.9322V198.204H47.7072V200.31H52.6602ZM66.0541 202.156C65.1268 202.156 64.2861 201.957 63.5321 201.558C62.7868 201.151 62.1975 200.592 61.7641 199.881C61.3395 199.162 61.1271 198.351 61.1271 197.45C61.1271 196.549 61.3395 195.743 61.7641 195.032C62.1975 194.313 62.7868 193.754 63.5321 193.355C64.2861 192.948 65.1311 192.744 66.0671 192.744C66.8558 192.744 67.5665 192.883 68.1991 193.16C68.8405 193.437 69.3778 193.836 69.8111 194.356L68.4591 195.604C67.8438 194.893 67.0811 194.538 66.1711 194.538C65.6078 194.538 65.1051 194.664 64.6631 194.915C64.2211 195.158 63.8745 195.5 63.6231 195.942C63.3805 196.384 63.2591 196.887 63.2591 197.45C63.2591 198.013 63.3805 198.516 63.6231 198.958C63.8745 199.4 64.2211 199.747 64.6631 199.998C65.1051 200.241 65.6078 200.362 66.1711 200.362C67.0811 200.362 67.8438 200.002 68.4591 199.283L69.8111 200.531C69.3778 201.06 68.8405 201.463 68.1991 201.74C67.5578 202.017 66.8428 202.156 66.0541 202.156ZM79.5793 192.9V202H77.4733V198.269H73.3393V202H71.2333V192.9H73.3393V196.488H77.4733V192.9H79.5793ZM87.7253 200.05H83.5003L82.6943 202H80.5363L84.5923 192.9H86.6723L90.7413 202H88.5313L87.7253 200.05ZM87.0623 198.451L85.6193 194.967L84.1763 198.451H87.0623ZM97.4834 202L95.7284 199.465H95.6244H93.7914V202H91.6854V192.9H95.6244C96.4304 192.9 97.1281 193.034 97.7174 193.303C98.3154 193.572 98.7748 193.953 99.0954 194.447C99.4161 194.941 99.5764 195.526 99.5764 196.202C99.5764 196.878 99.4118 197.463 99.0824 197.957C98.7618 198.442 98.3024 198.815 97.7044 199.075L99.7454 202H97.4834ZM97.4444 196.202C97.4444 195.691 97.2798 195.301 96.9504 195.032C96.6211 194.755 96.1401 194.616 95.5074 194.616H93.7914V197.788H95.5074C96.1401 197.788 96.6211 197.649 96.9504 197.372C97.2798 197.095 97.4444 196.705 97.4444 196.202ZM101.245 192.9H103.351V202H101.245V192.9ZM109.918 202.156C108.973 202.156 108.119 201.952 107.357 201.545C106.603 201.138 106.009 200.579 105.576 199.868C105.151 199.149 104.939 198.343 104.939 197.45C104.939 196.557 105.151 195.756 105.576 195.045C106.009 194.326 106.603 193.762 107.357 193.355C108.119 192.948 108.973 192.744 109.918 192.744C110.862 192.744 111.712 192.948 112.466 193.355C113.22 193.762 113.813 194.326 114.247 195.045C114.68 195.756 114.897 196.557 114.897 197.45C114.897 198.343 114.68 199.149 114.247 199.868C113.813 200.579 113.22 201.138 112.466 201.545C111.712 201.952 110.862 202.156 109.918 202.156ZM109.918 200.362C110.455 200.362 110.94 200.241 111.374 199.998C111.807 199.747 112.145 199.4 112.388 198.958C112.639 198.516 112.765 198.013 112.765 197.45C112.765 196.887 112.639 196.384 112.388 195.942C112.145 195.5 111.807 195.158 111.374 194.915C110.94 194.664 110.455 194.538 109.918 194.538C109.38 194.538 108.895 194.664 108.462 194.915C108.028 195.158 107.686 195.5 107.435 195.942C107.192 196.384 107.071 196.887 107.071 197.45C107.071 198.013 107.192 198.516 107.435 198.958C107.686 199.4 108.028 199.747 108.462 199.998C108.895 200.241 109.38 200.362 109.918 200.362ZM118.237 194.616H115.325V192.9H123.255V194.616H120.343V202H118.237V194.616Z" fill="#534100"/>
<path d="M103.516 101.452C93.2502 123.605 93.2113 133.871 76.5002 133.871C59.7891 133.871 60.8308 126.307 50.0244 101.452C47.863 72.2742 41.9194 58.7661 76.5002 74.9758C112.161 54.4435 106.218 73.8952 103.516 101.452Z" fill="url(#paint1_linear_10_432)"/>
<path d="M97.0323 92.8065C97.0323 107.13 94.871 110.637 76.5 110.637C58.129 110.637 55.9677 107.13 55.9677 92.8065C53.2662 65.25 55.9678 70.6532 76.5 70.6532C97.0323 70.6532 99.1936 65.7904 97.0323 92.8065Z" fill="url(#paint2_linear_10_432)"/>
<path d="M94.871 110.327C94.871 117.99 86.2204 132.79 76.2258 132.79C66.2312 132.79 58.129 117.99 58.129 110.327C58.129 102.665 66.2312 105.042 76.2258 105.042C86.2204 105.042 94.871 102.665 94.871 110.327Z" fill="#58561F"/>
<path d="M86.2258 111.397C86.2258 113.165 81.6461 116.581 76.3548 116.581C71.0636 116.581 66.7742 113.165 66.7742 111.397C66.7742 109.629 71.0636 110.177 76.3548 110.177C81.6461 110.177 86.2258 109.629 86.2258 111.397Z" fill="url(#paint3_linear_10_432)"/>
<path d="M71.7908 83.7205C71.4367 86.0814 67.2648 89.0516 63.4283 88.4761C59.5919 87.9006 55.9407 83.7569 56.2948 81.396C56.649 79.0351 60.8743 79.3511 64.7108 79.9266C68.5472 80.5021 72.145 81.3596 71.7908 83.7205Z" fill="#363636"/>
<path d="M71.7908 83.7205C71.4367 86.0814 67.2648 89.0516 63.4283 88.4761C59.5919 87.9006 55.9407 83.7569 56.2948 81.396C56.649 79.0351 60.8743 79.3511 64.7108 79.9266C68.5472 80.5021 72.145 81.3596 71.7908 83.7205Z" fill="#363636"/>
<path d="M71.7908 83.7205C71.4367 86.0814 67.2648 89.0516 63.4283 88.4761C59.5919 87.9006 55.9407 83.7569 56.2948 81.396C56.649 79.0351 60.8743 79.3511 64.7108 79.9266C68.5472 80.5021 72.145 81.3596 71.7908 83.7205Z" fill="#363636"/>
<path d="M81.4119 84.2572C81.7769 86.6165 85.9626 89.5674 89.7963 88.9741C93.63 88.3809 97.262 84.2203 96.8969 81.8611C96.5319 79.5019 92.308 79.8374 88.4743 80.4307C84.6406 81.0239 81.0468 81.898 81.4119 84.2572Z" fill="#363636"/>
<path d="M81.4119 84.2572C81.7769 86.6165 85.9626 89.5674 89.7963 88.9741C93.63 88.3809 97.262 84.2203 96.8969 81.8611C96.5319 79.5019 92.308 79.8374 88.4743 80.4307C84.6406 81.0239 81.0468 81.898 81.4119 84.2572Z" fill="#363636"/>
<path d="M81.4119 84.2572C81.7769 86.6165 85.9626 89.5674 89.7963 88.9741C93.63 88.3809 97.262 84.2203 96.8969 81.8611C96.5319 79.5019 92.308 79.8374 88.4743 80.4307C84.6406 81.0239 81.0468 81.898 81.4119 84.2572Z" fill="#363636"/>
<path d="M110 84.1613C110 90.7263 107.479 96.0484 104.369 96.0484C101.26 96.0484 102.834 90.7263 102.834 84.1613C102.834 77.5962 101.26 72.2742 104.369 72.2742C107.479 72.2742 110 77.5962 110 84.1613Z" fill="url(#paint4_linear_10_432)"/>
<path d="M43 82C43 88.5651 45.5209 93.8871 48.6305 93.8871C51.7402 93.8871 50.1662 88.5651 50.1662 82C50.1662 75.4349 51.7402 70.1129 48.6305 70.1129C45.5209 70.1129 43 75.4349 43 82Z" fill="url(#paint5_linear_10_432)"/>
<path fill-rule="evenodd" clip-rule="evenodd" d="M105.677 73.3548C102.87 79.6717 92.5408 80.7461 85.6449 81.4635C81.9233 81.8506 79.2016 82.1337 79.2016 83.0807H73.2581C73.2581 82.19 71.9662 82.1215 69.7503 82.004C65.2445 81.7649 56.9179 81.3232 47.8629 73.3548C49.4839 56.0645 59.7889 40.9355 76.5 40.9355C93.2111 40.9355 102.435 58.7661 105.677 73.3548Z" fill="url(#paint6_linear_10_432)"/>
<path d="M79.2016 83.0807H73.2581C74.9271 89.2505 76.5 121.984 67.3145 121.984H85.1452C76.5 121.984 77.3944 89.2505 79.2016 83.0807Z" fill="url(#paint7_linear_10_432)"/>
<path d="M67.3145 121.984L76.5 133.331L85.1452 121.984H67.3145Z" fill="url(#paint8_linear_10_432)"/>
<circle cx="76.5" cy="75.5161" r="3.24194" fill="url(#paint9_radial_10_432)"/>
<circle cx="76.5" cy="69.0323" r="3.24194" fill="url(#paint10_radial_10_432)"/>
<circle cx="76.5" cy="62.5484" r="3.24194" fill="url(#paint11_radial_10_432)"/>
<circle cx="76.5" cy="56.0645" r="3.24194" fill="url(#paint12_radial_10_432)"/>
<path d="M87.3064 42.5564C84.8126 47.9597 82.0091 50.6613 76.5 50.6613C70.9909 50.6613 68.603 49.0403 65.6935 42.5564L76.5 15L87.3064 42.5564Z" fill="url(#paint13_radial_10_432)"/>
<path d="M17 148V152C18.6667 153 22 156.5 25 161L22.5 163L23.5 164.5L26 163L27.5 165L30 163L28.5 161.5L30 159.5L28.5 158L27 159.5C23 155 21 150.5 21 149L17 148Z" fill="url(#paint14_linear_10_432)"/>
<path d="M39.588 157.53C40.692 157.71 41.538 158.124 42.126 158.772C42.714 159.408 43.008 160.2 43.008 161.148C43.008 161.88 42.816 162.558 42.432 163.182C42.048 163.794 41.46 164.286 40.668 164.658C39.888 165.03 38.928 165.216 37.788 165.216C36.9 165.216 36.024 165.102 35.16 164.874C34.308 164.634 33.582 164.298 32.982 163.866L34.116 161.634C34.596 161.994 35.148 162.276 35.772 162.48C36.408 162.672 37.056 162.768 37.716 162.768C38.448 162.768 39.024 162.63 39.444 162.354C39.864 162.066 40.074 161.664 40.074 161.148C40.074 160.116 39.288 159.6 37.716 159.6H36.384V157.674L38.976 154.74H33.612V152.4H42.432V154.29L39.588 157.53Z" fill="url(#paint15_linear_10_432)"/>
<path d="M133.116 162.624V165H123.594V163.11L128.454 158.52C128.97 158.028 129.318 157.608 129.498 157.26C129.678 156.9 129.768 156.546 129.768 156.198C129.768 155.694 129.594 155.31 129.246 155.046C128.91 154.77 128.412 154.632 127.752 154.632C127.2 154.632 126.702 154.74 126.258 154.956C125.814 155.16 125.442 155.472 125.142 155.892L123.018 154.524C123.51 153.792 124.188 153.222 125.052 152.814C125.916 152.394 126.906 152.184 128.022 152.184C128.958 152.184 129.774 152.34 130.47 152.652C131.178 152.952 131.724 153.384 132.108 153.948C132.504 154.5 132.702 155.154 132.702 155.91C132.702 156.594 132.558 157.236 132.27 157.836C131.982 158.436 131.424 159.12 130.596 159.888L127.698 162.624H133.116Z" fill="url(#paint16_linear_10_432)"/>
<path d="M111.23 165C108.297 162.757 102.355 157.562 102.049 154.729C101.666 151.188 103.579 148 105.874 148C108.169 148 110.082 150.479 110.465 151.896C110.847 150.448 112.454 148 114.29 148C116.585 148 119.645 150.125 118.88 154.729C118.268 158.412 113.525 163.111 111.23 165Z" fill="url(#paint17_linear_10_432)"/>
<path d="M68.242 174.027L80.3953 155.403L83.2812 155.573L84.2003 155.627L84.3301 154.716L85.3355 147.66L85.6377 145.539L83.8177 146.67L77.7642 150.431L76.9822 150.917L77.4021 151.737L78.7203 154.31L66.567 172.934L68.242 174.027Z" fill="url(#paint18_linear_10_432)" stroke="url(#paint19_linear_10_432)" stroke-width="2"/>
<path d="M74.0416 156.219L80.532 160.454" stroke="url(#paint20_linear_10_432)"/>
<defs>
<linearGradient id="paint0_linear_10_432" x1="75" y1="184.5" x2="75" y2="210" gradientUnits="userSpaceOnUse">
<stop stop-color="#B4A34E"/>
<stop offset="1" stop-color="#58561F"/>
</linearGradient>
<linearGradient id="paint1_linear_10_432" x1="76.5" y1="40.9355" x2="76.5" y2="133.871" gradientUnits="userSpaceOnUse">
<stop stop-color="#B4A34E"/>
<stop offset="1" stop-color="#58561F"/>
</linearGradient>
<linearGradient id="paint2_linear_10_432" x1="76.3971" y1="70.2245" x2="76.3971" y2="110.637" gradientUnits="userSpaceOnUse">
<stop stop-color="#58561F"/>
<stop offset="1" stop-color="#B4A34E"/>
</linearGradient>
<linearGradient id="paint3_linear_10_432" x1="76.5" y1="110.097" x2="76.5" y2="116.581" gradientUnits="userSpaceOnUse">
<stop stop-color="#B4A34E"/>
<stop offset="1" stop-color="#58561F"/>
</linearGradient>
<linearGradient id="paint4_linear_10_432" x1="104.369" y1="72.2742" x2="104.369" y2="96.0484" gradientUnits="userSpaceOnUse">
<stop stop-color="#B4A34E"/>
<stop offset="1" stop-color="#58561F"/>
</linearGradient>
<linearGradient id="paint5_linear_10_432" x1="48.6306" y1="70.1129" x2="48.6306" y2="93.8871" gradientUnits="userSpaceOnUse">
<stop stop-color="#B4A34E"/>
<stop offset="1" stop-color="#58561F"/>
</linearGradient>
<linearGradient id="paint6_linear_10_432" x1="76.5" y1="40.9355" x2="76.5" y2="109.556" gradientUnits="userSpaceOnUse">
<stop stop-color="#58561F"/>
<stop offset="1" stop-color="#B4A34E"/>
</linearGradient>
<linearGradient id="paint7_linear_10_432" x1="76.5" y1="40.9355" x2="76.5" y2="109.556" gradientUnits="userSpaceOnUse">
<stop stop-color="#58561F"/>
<stop offset="1" stop-color="#B4A34E"/>
</linearGradient>
<linearGradient id="paint8_linear_10_432" x1="76.5" y1="40.9355" x2="76.5" y2="109.556" gradientUnits="userSpaceOnUse">
<stop stop-color="#58561F"/>
<stop offset="1" stop-color="#B4A34E"/>
</linearGradient>
<radialGradient id="paint9_radial_10_432" cx="0" cy="0" r="1" gradientUnits="userSpaceOnUse" gradientTransform="translate(78.121 74.4355) rotate(110.556) scale(4.61652)">
<stop stop-color="#B4A34E"/>
<stop offset="1" stop-color="#58561F"/>
</radialGradient>
<radialGradient id="paint10_radial_10_432" cx="0" cy="0" r="1" gradientUnits="userSpaceOnUse" gradientTransform="translate(78.121 67.9516) rotate(110.556) scale(4.61652)">
<stop stop-color="#B4A34E"/>
<stop offset="1" stop-color="#58561F"/>
</radialGradient>
<radialGradient id="paint11_radial_10_432" cx="0" cy="0" r="1" gradientUnits="userSpaceOnUse" gradientTransform="translate(78.121 61.4677) rotate(110.556) scale(4.61652)">
<stop stop-color="#B4A34E"/>
<stop offset="1" stop-color="#58561F"/>
</radialGradient>
<radialGradient id="paint12_radial_10_432" cx="0" cy="0" r="1" gradientUnits="userSpaceOnUse" gradientTransform="translate(78.121 54.9839) rotate(110.556) scale(4.61652)">
<stop stop-color="#B4A34E"/>
<stop offset="1" stop-color="#58561F"/>
</radialGradient>
<radialGradient id="paint13_radial_10_432" cx="0" cy="0" r="1" gradientUnits="userSpaceOnUse" gradientTransform="translate(76.5 29.5887) rotate(90) scale(21.0726 10.8065)">
<stop stop-color="#B4A34E"/>
<stop offset="1" stop-color="#58561F"/>
</radialGradient>
<linearGradient id="paint14_linear_10_432" x1="24.25" y1="147" x2="24.25" y2="165" gradientUnits="userSpaceOnUse">
<stop stop-color="#B4A34E"/>
<stop offset="1" stop-color="#58561F"/>
</linearGradient>
<linearGradient id="paint15_linear_10_432" x1="38.5" y1="148" x2="38.5" y2="170" gradientUnits="userSpaceOnUse">
<stop stop-color="#B4A34E"/>
<stop offset="1" stop-color="#58561F"/>
</linearGradient>
<linearGradient id="paint16_linear_10_432" x1="128.5" y1="148" x2="128.5" y2="170" gradientUnits="userSpaceOnUse">
<stop stop-color="#B4A34E"/>
<stop offset="1" stop-color="#58561F"/>
</linearGradient>
<linearGradient id="paint17_linear_10_432" x1="110.871" y1="147.969" x2="110.871" y2="164.969" gradientUnits="userSpaceOnUse">
<stop stop-color="#B4A34E"/>
<stop offset="1" stop-color="#58561F"/>
</linearGradient>
<linearGradient id="paint18_linear_10_432" x1="84.3455" y1="147.519" x2="67.4045" y2="173.481" gradientUnits="userSpaceOnUse">
<stop stop-color="#B4A34E"/>
<stop offset="1" stop-color="#58561F"/>
</linearGradient>
<linearGradient id="paint19_linear_10_432" x1="84.3455" y1="147.519" x2="67.4045" y2="173.481" gradientUnits="userSpaceOnUse">
<stop stop-color="#B4A34E"/>
<stop offset="1" stop-color="#58561F"/>
</linearGradient>
<linearGradient id="paint20_linear_10_432" x1="77.2868" y1="158.337" x2="76.7403" y2="159.174" gradientUnits="userSpaceOnUse">
<stop stop-color="#B4A34E"/>
<stop offset="1" stop-color="#58561F"/>
</linearGradient>
</defs>
</svg>
