<svg width="150" height="225" viewBox="0 0 150 225" fill="none" xmlns="http://www.w3.org/2000/svg">
<path d="M0 7C0 3.13401 3.13401 0 7 0H143C146.866 0 150 3.13401 150 7V218C150 221.866 146.866 225 143 225H7C3.13401 225 0 221.866 0 218V7Z" fill="#363636"/>
<rect x="16.5" y="184.5" width="117" height="25.5" rx="8.5" fill="url(#paint0_linear_15_4)"/>
<path d="M43.494 191.4H49.218C50.586 191.4 51.792 191.664 52.836 192.192C53.892 192.708 54.708 193.44 55.284 194.388C55.872 195.336 56.166 196.44 56.166 197.7C56.166 198.96 55.872 200.064 55.284 201.012C54.708 201.96 53.892 202.698 52.836 203.226C51.792 203.742 50.586 204 49.218 204H43.494V191.4ZM49.074 201.606C50.334 201.606 51.336 201.258 52.08 200.562C52.836 199.854 53.214 198.9 53.214 197.7C53.214 196.5 52.836 195.552 52.08 194.856C51.336 194.148 50.334 193.794 49.074 193.794H46.41V201.606H49.074ZM68.1211 201.66V204H58.3651V191.4H67.8871V193.74H61.2631V196.476H67.1131V198.744H61.2631V201.66H68.1211ZM78.7393 201.3H72.8893L71.7733 204H68.7853L74.4013 191.4H77.2813L82.9153 204H79.8553L78.7393 201.3ZM77.8213 199.086L75.8233 194.262L73.8253 199.086H77.8213ZM86.1997 193.776H82.1677V191.4H93.1477V193.776H89.1157V204H86.1997V193.776ZM106.273 191.4V204H103.357V198.834H97.6327V204H94.7167V191.4H97.6327V196.368H103.357V191.4H106.273Z" fill="#534100"/>
<path d="M101.812 73.0809C101.812 101.408 94.0791 94.5517 75.9006 94.5517C57.7222 94.5517 47.1875 101.408 47.1875 73.0809C47.1875 44.7534 57.7222 8 75.9006 8C94.0791 8 101.812 44.7534 101.812 73.0809Z" fill="url(#paint1_linear_15_4)"/>
<path d="M102.601 90.0164C93.4184 112.239 90.1092 129.877 74.6993 129.877C59.2894 129.877 56.6865 111.887 46.7972 90.0164C46.7972 68.0022 59.0901 55.5 74.5 55.5C89.9099 55.5 102.601 68.0022 102.601 90.0164Z" fill="url(#paint2_linear_15_4)"/>
<path d="M69.9161 86.3493C69.9161 88.991 66.599 89.2192 62.9007 89.2192C59.2023 89.2192 55.5664 88.6721 55.5664 86.0304C55.5664 81.5661 59.2023 79.6528 62.9007 79.6528C66.599 79.6528 69.9161 81.8849 69.9161 86.3493Z" fill="#363636"/>
<path d="M79.4825 86.3493C79.4825 88.991 82.7995 89.2192 86.4979 89.2192C90.1963 89.2192 93.8322 88.6721 93.8322 86.0304C93.8322 81.5661 90.1963 79.6528 86.4979 79.6528C82.7995 79.6528 79.4825 81.8849 79.4825 86.3493Z" fill="#363636"/>
<path d="M65.1329 96.394C65.1329 99.476 64.0621 100.38 62.7413 100.38C61.4204 100.38 60.3497 99.476 60.3497 96.394C60.3497 93.312 62.7413 89.2192 62.7413 89.2192C62.7413 89.2192 65.1329 93.312 65.1329 96.394Z" fill="url(#paint3_linear_15_4)"/>
<path d="M89.0489 96.394C89.0489 99.476 87.9781 100.38 86.6573 100.38C85.3364 100.38 84.2657 99.476 84.2657 96.394C84.2657 93.312 86.6573 89.2192 86.6573 89.2192C86.6573 89.2192 89.0489 93.312 89.0489 96.394Z" fill="url(#paint4_linear_15_4)"/>
<circle cx="74.6993" cy="104.366" r="3.98601" fill="url(#paint5_linear_15_4)"/>
<path d="M72.3077 104.366C72.3077 103.045 73.3785 101.177 74.6993 101.177C76.0202 101.177 77.0909 103.045 77.0909 104.366C77.0909 105.687 76.0202 107.555 74.6993 107.555C73.3785 107.555 72.3077 105.687 72.3077 104.366Z" fill="url(#paint6_radial_15_4)"/>
<path d="M63.9371 112.737C67.9231 120.31 81.7944 120.709 84.6643 112.737" stroke="url(#paint7_linear_15_4)" stroke-opacity="0.75" stroke-width="2" stroke-linecap="round"/>
<path d="M84.6644 126.289C84.6644 126.289 80.6784 130.275 74.3007 129.877C69.6778 129.877 65.9301 127.086 65.9301 127.086C65.9301 123.784 69.6778 121.107 74.3007 121.107C78.9237 121.107 84.6644 122.987 84.6644 126.289Z" fill="url(#paint8_linear_15_4)"/>
<path d="M80.2797 68.0933L93.035 64.9045" stroke="url(#paint9_linear_15_4)" stroke-width="4" stroke-linecap="round"/>
<path d="M69.1188 67.6947L56.3636 64.5059" stroke="url(#paint10_linear_15_4)" stroke-width="4" stroke-linecap="round"/>
<circle cx="74.6993" cy="70.0864" r="6.37762" fill="url(#paint11_linear_15_4)"/>
<circle cx="74.6993" cy="70.0863" r="4.78322" fill="url(#paint12_radial_15_4)"/>
<path d="M74.6993 58.5269V63.7087" stroke="url(#paint13_linear_15_4)" stroke-width="4" stroke-linecap="round"/>
<path d="M46 90.5312C46.9301 77.1614 55.3041 56.0938 75.0979 56.0938C99.8112 56.0938 102.601 84.454 103 88.9107" stroke="url(#paint14_linear_15_4)" stroke-width="4" stroke-linecap="round"/>
<ellipse cx="74.5" cy="50.1562" rx="3.5625" ry="5.9375" fill="url(#paint15_linear_15_4)"/>
<ellipse cx="95.7253" cy="60.2415" rx="2.74748" ry="4.57913" transform="rotate(28.5179 95.7253 60.2415)" fill="url(#paint16_linear_15_4)"/>
<ellipse cx="54.3226" cy="60.2453" rx="2.74748" ry="4.57913" transform="rotate(-32.0837 54.3226 60.2453)" fill="url(#paint17_linear_15_4)"/>
<path d="M17 148V152C18.6667 153 22 156.5 25 161L22.5 163L23.5 164.5L26 163L27.5 165L30 163L28.5 161.5L30 159.5L28.5 158L27 159.5C23 155 21 150.5 21 149L17 148Z" fill="url(#paint18_linear_15_4)"/>
<path d="M45.24 162.354H43.188V165H40.344V162.354H33.558V160.392L39.498 152.4H42.558L37.05 159.978H40.434V157.62H43.188V159.978H45.24V162.354Z" fill="url(#paint19_linear_15_4)"/>
<path d="M128.562 152.4V165H125.646V154.74H123.126V152.4H128.562Z" fill="url(#paint20_linear_15_4)"/>
<path d="M111.23 165C108.297 162.757 102.355 157.562 102.049 154.729C101.666 151.187 103.579 148 105.874 148C108.169 148 110.082 150.479 110.465 151.896C110.847 150.448 112.454 148 114.29 148C116.585 148 119.645 150.125 118.88 154.729C118.268 158.412 113.525 163.111 111.23 165Z" fill="url(#paint21_linear_15_4)"/>
<defs>
<linearGradient id="paint0_linear_15_4" x1="75" y1="184.5" x2="75" y2="210" gradientUnits="userSpaceOnUse">
<stop stop-color="#B4A34E"/>
<stop offset="1" stop-color="#58561F"/>
</linearGradient>
<linearGradient id="paint1_linear_15_4" x1="74.5" y1="8" x2="74.5" y2="95.2813" gradientUnits="userSpaceOnUse">
<stop stop-color="#B4A34E"/>
<stop offset="1" stop-color="#58561F"/>
</linearGradient>
<linearGradient id="paint2_linear_15_4" x1="74.6993" y1="50.1563" x2="74.6993" y2="129.877" gradientUnits="userSpaceOnUse">
<stop stop-color="#B4A34E"/>
<stop offset="1" stop-color="#58561F"/>
</linearGradient>
<linearGradient id="paint3_linear_15_4" x1="62.7413" y1="89.2192" x2="62.7413" y2="100.38" gradientUnits="userSpaceOnUse">
<stop stop-color="#B4A34E"/>
<stop offset="1" stop-color="#58561F"/>
</linearGradient>
<linearGradient id="paint4_linear_15_4" x1="86.6573" y1="89.2192" x2="86.6573" y2="100.38" gradientUnits="userSpaceOnUse">
<stop stop-color="#B4A34E"/>
<stop offset="1" stop-color="#58561F"/>
</linearGradient>
<linearGradient id="paint5_linear_15_4" x1="74.6993" y1="100.38" x2="74.6993" y2="108.352" gradientUnits="userSpaceOnUse">
<stop stop-color="#58561F"/>
<stop offset="1" stop-color="#B4A34E"/>
</linearGradient>
<radialGradient id="paint6_radial_15_4" cx="0" cy="0" r="1" gradientUnits="userSpaceOnUse" gradientTransform="translate(75.8951 102.772) rotate(126.87) scale(3.98601)">
<stop stop-color="#B4A34E"/>
<stop offset="1" stop-color="#58561F"/>
</radialGradient>
<linearGradient id="paint7_linear_15_4" x1="74.3007" y1="116.324" x2="73.9021" y2="120.31" gradientUnits="userSpaceOnUse">
<stop stop-color="#B4A34E"/>
<stop offset="1" stop-color="#58561F"/>
</linearGradient>
<linearGradient id="paint8_linear_15_4" x1="75.2972" y1="121.107" x2="75.2972" y2="129.905" gradientUnits="userSpaceOnUse">
<stop stop-color="#B4A34E"/>
<stop offset="1" stop-color="#58561F"/>
</linearGradient>
<linearGradient id="paint9_linear_15_4" x1="86.0999" y1="63.0709" x2="86.0932" y2="68.0933" gradientUnits="userSpaceOnUse">
<stop stop-color="#B4A34E"/>
<stop offset="1" stop-color="#58561F"/>
</linearGradient>
<linearGradient id="paint10_linear_15_4" x1="63.2987" y1="62.6724" x2="63.3054" y2="67.6948" gradientUnits="userSpaceOnUse">
<stop stop-color="#B4A34E"/>
<stop offset="1" stop-color="#58561F"/>
</linearGradient>
<linearGradient id="paint11_linear_15_4" x1="81.4755" y1="73.2752" x2="77.0909" y2="64.1073" gradientUnits="userSpaceOnUse">
<stop stop-color="#B4A34E"/>
<stop offset="1" stop-color="#58561F"/>
</linearGradient>
<radialGradient id="paint12_radial_15_4" cx="0" cy="0" r="1" gradientUnits="userSpaceOnUse" gradientTransform="translate(76.2937 68.0933) rotate(103.241) scale(6.96127)">
<stop stop-color="#B4A34E"/>
<stop offset="1" stop-color="#58561F"/>
</radialGradient>
<linearGradient id="paint13_linear_15_4" x1="75.2028" y1="54.3814" x2="74.9373" y2="63.7012" gradientUnits="userSpaceOnUse">
<stop stop-color="#B4A34E"/>
<stop offset="1" stop-color="#58561F"/>
</linearGradient>
<linearGradient id="paint14_linear_15_4" x1="74.5" y1="45.4063" x2="74.4952" y2="90.5312" gradientUnits="userSpaceOnUse">
<stop stop-color="#B4A34E"/>
<stop offset="1" stop-color="#58561F"/>
</linearGradient>
<linearGradient id="paint15_linear_15_4" x1="74.5" y1="44.2188" x2="74.5" y2="56.0938" gradientUnits="userSpaceOnUse">
<stop stop-color="#B4A34E"/>
<stop offset="1" stop-color="#58561F"/>
</linearGradient>
<linearGradient id="paint16_linear_15_4" x1="95.7253" y1="55.6624" x2="95.7253" y2="64.8207" gradientUnits="userSpaceOnUse">
<stop stop-color="#B4A34E"/>
<stop offset="1" stop-color="#58561F"/>
</linearGradient>
<linearGradient id="paint17_linear_15_4" x1="54.3226" y1="55.6662" x2="54.3226" y2="64.8245" gradientUnits="userSpaceOnUse">
<stop stop-color="#B4A34E"/>
<stop offset="1" stop-color="#58561F"/>
</linearGradient>
<linearGradient id="paint18_linear_15_4" x1="24.25" y1="147" x2="24.25" y2="165" gradientUnits="userSpaceOnUse">
<stop stop-color="#B4A34E"/>
<stop offset="1" stop-color="#58561F"/>
</linearGradient>
<linearGradient id="paint19_linear_15_4" x1="39.5" y1="148" x2="39.5" y2="170" gradientUnits="userSpaceOnUse">
<stop stop-color="#B4A34E"/>
<stop offset="1" stop-color="#58561F"/>
</linearGradient>
<linearGradient id="paint20_linear_15_4" x1="127" y1="148" x2="127" y2="170" gradientUnits="userSpaceOnUse">
<stop stop-color="#B4A34E"/>
<stop offset="1" stop-color="#58561F"/>
</linearGradient>
<linearGradient id="paint21_linear_15_4" x1="110.871" y1="147.969" x2="110.871" y2="164.969" gradientUnits="userSpaceOnUse">
<stop stop-color="#B4A34E"/>
<stop offset="1" stop-color="#58561F"/>
</linearGradient>
</defs>
</svg>
