<svg width="150" height="225" viewBox="0 0 150 225" fill="none" xmlns="http://www.w3.org/2000/svg">
<path d="M0 7C0 3.13401 3.13401 0 7 0H143C146.866 0 150 3.13401 150 7V218C150 221.866 146.866 225 143 225H7C3.13401 225 0 221.866 0 218V7Z" fill="#363636"/>
<rect x="16.5" y="184.5" width="117" height="25.5" rx="8.5" fill="url(#paint0_linear_9_264)"/>
<path d="M27.964 194.616H25.052V192.9H32.982V194.616H30.07V202H27.964V194.616ZM42.4611 192.9V202H40.3551V198.269H36.2211V202H34.1151V192.9H36.2211V196.488H40.3551V192.9H42.4611ZM51.6602 200.31V202H44.6142V192.9H51.4912V194.59H46.7072V196.566H50.9322V198.204H46.7072V200.31H51.6602ZM64.0635 200.31V202H57.0175V192.9H63.8945V194.59H59.1105V196.566H63.3355V198.204H59.1105V200.31H64.0635ZM74.0202 202L74.0072 196.54L71.3292 201.038H70.3802L67.7152 196.657V202H65.7392V192.9H67.4812L70.8872 198.555L74.2412 192.9H75.9702L75.9962 202H74.0202ZM82.0942 192.9C82.9002 192.9 83.5978 193.034 84.1872 193.303C84.7852 193.572 85.2445 193.953 85.5652 194.447C85.8858 194.941 86.0462 195.526 86.0462 196.202C86.0462 196.869 85.8858 197.454 85.5652 197.957C85.2445 198.451 84.7852 198.832 84.1872 199.101C83.5978 199.361 82.9002 199.491 82.0942 199.491H80.2612V202H78.1552V192.9H82.0942ZM81.9772 197.775C82.6098 197.775 83.0908 197.641 83.4202 197.372C83.7495 197.095 83.9142 196.705 83.9142 196.202C83.9142 195.691 83.7495 195.301 83.4202 195.032C83.0908 194.755 82.6098 194.616 81.9772 194.616H80.2612V197.775H81.9772ZM94.5957 200.31V202H87.5497V192.9H94.4267V194.59H89.6427V196.566H93.8677V198.204H89.6427V200.31H94.5957ZM102.069 202L100.314 199.465H100.21H98.3774V202H96.2714V192.9H100.21C101.016 192.9 101.714 193.034 102.303 193.303C102.901 193.572 103.361 193.953 103.681 194.447C104.002 194.941 104.162 195.526 104.162 196.202C104.162 196.878 103.998 197.463 103.668 197.957C103.348 198.442 102.888 198.815 102.29 199.075L104.331 202H102.069ZM102.03 196.202C102.03 195.691 101.866 195.301 101.536 195.032C101.207 194.755 100.726 194.616 100.093 194.616H98.3774V197.788H100.093C100.726 197.788 101.207 197.649 101.536 197.372C101.866 197.095 102.03 196.705 102.03 196.202ZM110.238 202.156C109.293 202.156 108.44 201.952 107.677 201.545C106.923 201.138 106.329 200.579 105.896 199.868C105.471 199.149 105.259 198.343 105.259 197.45C105.259 196.557 105.471 195.756 105.896 195.045C106.329 194.326 106.923 193.762 107.677 193.355C108.44 192.948 109.293 192.744 110.238 192.744C111.183 192.744 112.032 192.948 112.786 193.355C113.54 193.762 114.134 194.326 114.567 195.045C115 195.756 115.217 196.557 115.217 197.45C115.217 198.343 115 199.149 114.567 199.868C114.134 200.579 113.54 201.138 112.786 201.545C112.032 201.952 111.183 202.156 110.238 202.156ZM110.238 200.362C110.775 200.362 111.261 200.241 111.694 199.998C112.127 199.747 112.465 199.4 112.708 198.958C112.959 198.516 113.085 198.013 113.085 197.45C113.085 196.887 112.959 196.384 112.708 195.942C112.465 195.5 112.127 195.158 111.694 194.915C111.261 194.664 110.775 194.538 110.238 194.538C109.701 194.538 109.215 194.664 108.782 194.915C108.349 195.158 108.006 195.5 107.755 195.942C107.512 196.384 107.391 196.887 107.391 197.45C107.391 198.013 107.512 198.516 107.755 198.958C108.006 199.4 108.349 199.747 108.782 199.998C109.215 200.241 109.701 200.362 110.238 200.362ZM122.598 202L120.843 199.465H120.739H118.906V202H116.8V192.9H120.739C121.545 192.9 122.242 193.034 122.832 193.303C123.43 193.572 123.889 193.953 124.21 194.447C124.53 194.941 124.691 195.526 124.691 196.202C124.691 196.878 124.526 197.463 124.197 197.957C123.876 198.442 123.417 198.815 122.819 199.075L124.86 202H122.598ZM122.559 196.202C122.559 195.691 122.394 195.301 122.065 195.032C121.735 194.755 121.254 194.616 120.622 194.616H118.906V197.788H120.622C121.254 197.788 121.735 197.649 122.065 197.372C122.394 197.095 122.559 196.705 122.559 196.202Z" fill="#534100"/>
<path d="M54 47.7162C51.7273 46.5412 46.9091 45.1781 45.8182 49.1262C44.4545 54.0613 40.3636 48.4212 38.3182 51.2413C39.9091 51.2413 42.2727 52.0873 39 55.4714C40.5909 55.4714 43.2273 55.8944 41.0454 57.5864C38.3182 59.7015 32.8636 58.2914 33.5454 56.1764C34.2272 54.0613 28.0909 55.4714 30.1363 59.7015C29.2272 58.7614 27.4091 57.7274 27.4091 61.1115C28.0909 62.9915 28.7727 66.3286 26.0454 64.6366C26.5 66.5166 27.9545 70.4177 30.1363 70.9817C27.8636 72.1568 24.4091 74.3658 28.7727 73.8018C29.6818 76.6219 30.9545 82.403 28.7727 82.967C26.0454 83.6721 22.6363 83.6721 26.0454 88.6072C29.4545 93.5423 27.4091 97.0674 24 98.4774C29 99.6524 39 99.6054 39 90.0172C40.1364 90.0172 42.5455 91.1452 43.0909 95.6573C44 94.2473 46.9091 92.2733 45.8182 90.0172C47.4091 77.7969 51.2727 52.2283 54 47.7162Z" fill="url(#paint1_linear_9_264)"/>
<path d="M96 46.2162C98.3864 45.0412 103.445 43.6781 104.591 47.6262C106.023 52.5613 110.318 46.9212 112.466 49.7413C110.795 49.7413 108.314 50.5873 111.75 53.9714C110.08 53.9714 107.311 54.3944 109.602 56.0864C112.466 58.2015 118.193 56.7914 117.477 54.6764C116.761 52.5613 123.205 53.9714 121.057 58.2015C122.011 57.2614 123.92 56.2274 123.92 59.6115C123.205 61.4915 122.489 64.8286 125.352 63.1366C124.875 65.0166 123.348 68.9177 121.057 69.4817C123.443 70.6568 127.07 72.8658 122.489 72.3018C121.534 75.1219 120.198 80.903 122.489 81.467C125.352 82.1721 128.932 82.1721 125.352 87.1072C121.773 92.0423 123.92 95.5674 127.5 96.9774C122.25 98.1524 111.75 98.1054 111.75 88.5172C110.557 88.5172 108.027 89.6452 107.455 94.1573C106.5 92.7473 103.445 90.7733 104.591 88.5172C102.92 76.2969 98.8637 50.7283 96 46.2162Z" fill="url(#paint2_linear_9_264)"/>
<path d="M92.285 28.5925C92.285 31.9062 90.6061 31.1713 88.535 31.1713C86.4639 31.1713 83.9822 30.4062 83.9822 27.0925C90.75 27.0925 92.285 18.4213 92.285 18.4213C92.285 18.4213 95.2322 23.3425 92.285 28.5925Z" fill="url(#paint3_linear_9_264)"/>
<path d="M98.6915 39.5339C97.4557 42.6085 96.1719 41.3005 94.2503 40.5281C92.3286 39.7557 90.3112 38.1204 91.547 35.0457C97.8266 37.5696 102.485 30.0964 102.485 30.0964C102.485 30.0964 103.384 35.7617 98.6915 39.5339Z" fill="url(#paint4_linear_9_264)"/>
<path d="M59.7262 28.7113C59.7262 32.2009 61.2982 31.4269 63.2372 31.4269C65.1763 31.4269 67.4999 30.6213 67.4999 27.1316C61.1634 27.1316 59.7262 18 59.7262 18C59.7262 18 56.9669 23.1825 59.7262 28.7113Z" fill="url(#paint5_linear_9_264)"/>
<path d="M52.9487 39.4253C54.1697 42.4632 55.4381 41.1708 57.3368 40.4077C59.2354 39.6445 61.2288 38.0287 60.0077 34.9908C53.8032 37.4846 49.2008 30.1006 49.2008 30.1006C49.2008 30.1006 48.3123 35.6982 52.9487 39.4253Z" fill="url(#paint6_linear_9_264)"/>
<path d="M97.4804 36.2755C97.4804 43.5792 99.75 51 75.7402 49.5C53.25 48.75 54 43.5792 54 36.2755C54 22.5741 75.7402 32.1251 77.2395 13.5C77.2395 32.1251 98.2301 21.8394 97.4804 36.2755Z" fill="url(#paint7_linear_9_264)"/>
<path d="M104.034 61.1634C109.002 81.5711 115.974 104.113 93.664 104.113C82.0063 104.113 67.3522 104.113 58.6982 104.113C39.3831 104.113 44.4499 77.3574 49.6311 61.1634C52.8693 47.7858 56.2221 33 75.5372 33C94.8524 33 98.8525 48.4899 104.034 61.1634Z" fill="url(#paint8_linear_9_264)"/>
<path d="M57.4648 51.8239L52.5845 49.0352C55.3732 41.3662 62.9866 33 74.1971 33C87.4436 33 93.7183 38.5775 98.5986 47.6408L93.7183 52.5211C86.7464 49.0352 83.6124 52.0813 80.4718 56.007C77.6831 59.493 71.3348 56.557 70.7112 55.3099C70.014 53.9155 67.2253 48.338 57.4648 51.8239Z" fill="url(#paint9_linear_9_264)"/>
<path d="M71.4084 56.0756C71.4084 56.0756 68.1614 56.6979 63.406 57.4425C59.041 58.126 54.676 59.4929 54.676 59.4929C54.676 59.4929 57.5313 54.0252 61.951 54.0252C67.7709 53.3417 71.4084 56.0756 71.4084 56.0756Z" fill="#363636"/>
<path d="M71.4084 55.7746C64.8096 53.3113 58.327 52.0563 54.6933 59.4929C54.4511 57.2619 56.7958 51.7493 59.0536 51.3127C67.2253 49.7324 68.5015 52.0563 71.4084 55.7746Z" fill="url(#paint10_linear_9_264)"/>
<path d="M80.0602 56.4386C80.0602 56.4386 83.2494 56.8224 87.9106 57.2354C92.1891 57.6145 96.507 58.6045 96.507 58.6045C96.507 58.6045 93.4186 53.869 89.1265 54.1037C83.435 53.8019 80.0602 56.4386 80.0602 56.4386Z" fill="#363636"/>
<path d="M80.0428 56.1696C86.3091 53.6174 92.5322 52.1515 96.4902 58.6053C96.5967 56.5984 93.9542 52.0713 91.7837 51.5254C84.6549 49.7324 82.6513 52.6918 80.0428 56.1696Z" fill="url(#paint11_linear_9_264)"/>
<path d="M80.1139 67.9213C85.5646 68.8298 84.2967 72.8016 80.1139 72.8016C80.1139 75.5903 78.7898 75.5282 76.9859 75.5282C75.5916 75.5282 73.839 75.5903 73.839 72.8016C70.3531 73.4988 67.8526 68.735 73.1421 67.9213C73.1421 61.7606 74.7028 56.7664 76.628 56.7664C78.5532 56.7664 80.1139 61.7606 80.1139 67.9213Z" fill="url(#paint12_linear_9_264)"/>
<path d="M54.676 79.7113C56.0704 77.6197 60.8112 74.2732 68.6197 77.6197C71.6408 78.3169 76.6596 77.1598 79.7746 76.2253C86.7464 74.1338 95.8098 76.9225 97.9014 81.8028" stroke="url(#paint13_linear_9_264)"/>
<path d="M82.6429 72.0644C86.0224 72.8788 90.0699 73.1819 92.0574 72.0644C94.23 70.8428 97.851 67.7888 92.0574 67.7888C94.9542 66.9744 99.7339 66.5672 95.6784 71.4536C90.609 77.5616 83.3671 75.7292 81.1945 73.8968C79.4564 72.4308 81.4359 72.0644 82.6429 72.0644Z" fill="url(#paint14_linear_9_264)"/>
<path d="M72.0645 72.6325C68.6849 73.4469 64.6375 73.75 62.65 72.6325C60.4774 71.4109 56.0704 67.162 62.65 67.3966C59.7532 66.5822 56.1371 65.9455 58.1619 71.3451C60.2535 76.9225 71.3403 76.2973 73.5129 74.4649C75.251 72.9989 73.2715 72.6325 72.0645 72.6325Z" fill="url(#paint15_linear_9_264)"/>
<path d="M77.6342 84.6394C75.7654 83.5931 71.2268 83.07 68.0231 89.3477C64.0185 97.1948 64.8194 94.8407 60.0138 93.2713C55.2083 91.7018 49.6018 100.334 57.6111 103.473C54.6744 102.688 49.9223 102.374 54.4074 107.396C51.7377 108.442 47.5195 110.849 52.0046 112.104C57.6111 113.674 60.8147 112.104 57.6111 116.813C55.0481 120.579 50.1358 124.137 48 125.445C52.5386 127.276 61.7759 129.525 62.4167 123.875C65.0864 125.445 69.625 129.682 66.4213 134.076C70.159 134.076 77.6342 132.35 77.6342 125.445C77.6342 116.813 82.4399 115.243 82.4399 121.521C82.4399 127.799 76.0324 132.507 82.4399 138C81.6389 134.076 84.2019 118.225 91.2501 120.736C92.318 121.521 93.6528 124.032 90.4491 127.799C94.1868 127.276 101.662 125.131 101.662 120.736C101.662 115.243 104.065 109.75 96.0556 106.611C98.1914 104.78 101.342 100.961 96.8565 100.334C99.2593 99.2874 102.623 96.5671 96.8565 94.056C89.6482 90.9171 93.6528 89.3477 95.2547 88.563C93.9198 88.0398 90.1288 86.9935 85.6436 86.9935C81.1584 86.9935 78.4352 85.4241 77.6342 84.6394Z" fill="url(#paint16_linear_9_264)"/>
<circle cx="77.25" cy="12.75" r="3.75" fill="url(#paint17_radial_9_264)"/>
<circle cx="60.75" cy="17.25" r="3.75" fill="url(#paint18_radial_9_264)"/>
<circle cx="92.25" cy="17.25" r="3.75" fill="url(#paint19_radial_9_264)"/>
<circle cx="104.25" cy="29.25" r="3.75" fill="url(#paint20_radial_9_264)"/>
<circle cx="48.75" cy="27.75" r="3.75" fill="url(#paint21_radial_9_264)"/>
<path d="M17 146V150C18.6667 151 22 154.5 25 159L22.5 161L23.5 162.5L26 161L27.5 163L30 161L28.5 159.5L30 157.5L28.5 156L27 157.5C23 153 21 148.5 21 147L17 146Z" fill="url(#paint22_linear_9_264)"/>
<path d="M39.588 155.53C40.692 155.71 41.538 156.124 42.126 156.772C42.714 157.408 43.008 158.2 43.008 159.148C43.008 159.88 42.816 160.558 42.432 161.182C42.048 161.794 41.46 162.286 40.668 162.658C39.888 163.03 38.928 163.216 37.788 163.216C36.9 163.216 36.024 163.102 35.16 162.874C34.308 162.634 33.582 162.298 32.982 161.866L34.116 159.634C34.596 159.994 35.148 160.276 35.772 160.48C36.408 160.672 37.056 160.768 37.716 160.768C38.448 160.768 39.024 160.63 39.444 160.354C39.864 160.066 40.074 159.664 40.074 159.148C40.074 158.116 39.288 157.6 37.716 157.6H36.384V155.674L38.976 152.74H33.612V150.4H42.432V152.29L39.588 155.53Z" fill="url(#paint23_linear_9_264)"/>
<path d="M133.116 160.624V163H123.594V161.11L128.454 156.52C128.97 156.028 129.318 155.608 129.498 155.26C129.678 154.9 129.768 154.546 129.768 154.198C129.768 153.694 129.594 153.31 129.246 153.046C128.91 152.77 128.412 152.632 127.752 152.632C127.2 152.632 126.702 152.74 126.258 152.956C125.814 153.16 125.442 153.472 125.142 153.892L123.018 152.524C123.51 151.792 124.188 151.222 125.052 150.814C125.916 150.394 126.906 150.184 128.022 150.184C128.958 150.184 129.774 150.34 130.47 150.652C131.178 150.952 131.724 151.384 132.108 151.948C132.504 152.5 132.702 153.154 132.702 153.91C132.702 154.594 132.558 155.236 132.27 155.836C131.982 156.436 131.424 157.12 130.596 157.888L127.698 160.624H133.116Z" fill="url(#paint24_linear_9_264)"/>
<path d="M111.23 163C108.297 160.757 102.355 155.562 102.049 152.729C101.666 149.188 103.579 146 105.874 146C108.169 146 110.082 148.479 110.465 149.896C110.847 148.448 112.454 146 114.29 146C116.585 146 119.645 148.125 118.88 152.729C118.268 156.412 113.525 161.111 111.23 163Z" fill="url(#paint25_linear_9_264)"/>
<path d="M67.92 164C68.16 159.2 67.0585 150.656 60.72 149.6C64.32 149.6 69.648 153.92 70.8 156.8C70.8 155.12 70.512 149.312 69.36 148.16C70.8 148.88 73.104 153.2 73.68 156.08C73.92 154.64 75.84 149.6 76.56 146.72C76.56 149.6 76.704 155.36 77.28 155.36C78 153.44 79.728 148.16 80.88 148.16C80.4 150.08 79.44 156.8 80.16 156.8C82.32 155.12 88.656 149.6 90.96 149.6C87.36 152.48 82.608 159.392 83.76 164H67.92Z" fill="url(#paint26_linear_9_264)"/>
<circle cx="60.72" cy="149.6" r="0.72" fill="#B4A34E"/>
<circle cx="69.36" cy="148.16" r="0.72" fill="#B4A34E"/>
<circle cx="76.56" cy="146.72" r="0.72" fill="#B4A34E"/>
<circle cx="80.88" cy="148.16" r="0.72" fill="#B4A34E"/>
<circle cx="90.96" cy="149.6" r="0.72" fill="#B4A34E"/>
<defs>
<linearGradient id="paint0_linear_9_264" x1="75" y1="184.5" x2="75" y2="210" gradientUnits="userSpaceOnUse">
<stop stop-color="#B4A34E"/>
<stop offset="1" stop-color="#58561F"/>
</linearGradient>
<linearGradient id="paint1_linear_9_264" x1="39" y1="46.5" x2="39" y2="99" gradientUnits="userSpaceOnUse">
<stop stop-color="#58561F"/>
<stop offset="1" stop-color="#B4A34E"/>
</linearGradient>
<linearGradient id="paint2_linear_9_264" x1="111.75" y1="45" x2="111.75" y2="97.5" gradientUnits="userSpaceOnUse">
<stop stop-color="#58561F"/>
<stop offset="1" stop-color="#B4A34E"/>
</linearGradient>
<linearGradient id="paint3_linear_9_264" x1="88.7885" y1="18.4213" x2="88.7885" y2="31.2407" gradientUnits="userSpaceOnUse">
<stop stop-color="#B4A34E"/>
<stop offset="1" stop-color="#58561F"/>
</linearGradient>
<linearGradient id="paint4_linear_9_264" x1="99.2404" y1="28.7924" x2="94.4596" y2="40.687" gradientUnits="userSpaceOnUse">
<stop stop-color="#B4A34E"/>
<stop offset="1" stop-color="#58561F"/>
</linearGradient>
<linearGradient id="paint5_linear_9_264" x1="62.9999" y1="18" x2="62.9999" y2="31.5" gradientUnits="userSpaceOnUse">
<stop stop-color="#B4A34E"/>
<stop offset="1" stop-color="#58561F"/>
</linearGradient>
<linearGradient id="paint6_linear_9_264" x1="52.4063" y1="28.8123" x2="57.1299" y2="40.5647" gradientUnits="userSpaceOnUse">
<stop stop-color="#B4A34E"/>
<stop offset="1" stop-color="#58561F"/>
</linearGradient>
<linearGradient id="paint7_linear_9_264" x1="75.7674" y1="13.5" x2="75.7674" y2="49.6949" gradientUnits="userSpaceOnUse">
<stop stop-color="#B4A34E"/>
<stop offset="1" stop-color="#58561F"/>
</linearGradient>
<linearGradient id="paint8_linear_9_264" x1="77.0172" y1="33" x2="77.0172" y2="104.113" gradientUnits="userSpaceOnUse">
<stop stop-color="#B4A34E"/>
<stop offset="1" stop-color="#58561F"/>
</linearGradient>
<linearGradient id="paint9_linear_9_264" x1="75.5915" y1="33" x2="75.5915" y2="58.7422" gradientUnits="userSpaceOnUse">
<stop stop-color="#B4A34E"/>
<stop offset="1" stop-color="#58561F"/>
</linearGradient>
<linearGradient id="paint10_linear_9_264" x1="61.2339" y1="49.0816" x2="61.2338" y2="54.2873" gradientUnits="userSpaceOnUse">
<stop stop-color="#B4A34E"/>
<stop offset="1" stop-color="#58561F"/>
</linearGradient>
<linearGradient id="paint11_linear_9_264" x1="89.5369" y1="49.6472" x2="89.7915" y2="54.3025" gradientUnits="userSpaceOnUse">
<stop stop-color="#B4A34E"/>
<stop offset="1" stop-color="#58561F"/>
</linearGradient>
<linearGradient id="paint12_linear_9_264" x1="76.9186" y1="56.7664" x2="76.9859" y2="72.0423" gradientUnits="userSpaceOnUse">
<stop stop-color="#B4A34E"/>
<stop offset="1" stop-color="#58561F"/>
</linearGradient>
<linearGradient id="paint13_linear_9_264" x1="76.2887" y1="75.5227" x2="76.2887" y2="79.7113" gradientUnits="userSpaceOnUse">
<stop stop-color="#B4A34E"/>
<stop offset="1" stop-color="#58561F"/>
</linearGradient>
<linearGradient id="paint14_linear_9_264" x1="95.6785" y1="69.0104" x2="84.3715" y2="76.1077" gradientUnits="userSpaceOnUse">
<stop stop-color="#B4A34E"/>
<stop offset="1" stop-color="#58561F"/>
</linearGradient>
<linearGradient id="paint15_linear_9_264" x1="59.0289" y1="69.5784" x2="70.3359" y2="76.6758" gradientUnits="userSpaceOnUse">
<stop stop-color="#B4A34E"/>
<stop offset="1" stop-color="#58561F"/>
</linearGradient>
<linearGradient id="paint16_linear_9_264" x1="75" y1="84" x2="75" y2="138" gradientUnits="userSpaceOnUse">
<stop stop-color="#B4A34E"/>
<stop offset="1" stop-color="#58561F"/>
</linearGradient>
<radialGradient id="paint17_radial_9_264" cx="0" cy="0" r="1" gradientUnits="userSpaceOnUse" gradientTransform="translate(79.5 11.25) rotate(113.199) scale(5.71183)">
<stop stop-color="#B4A34E"/>
<stop offset="1" stop-color="#58561F"/>
</radialGradient>
<radialGradient id="paint18_radial_9_264" cx="0" cy="0" r="1" gradientUnits="userSpaceOnUse" gradientTransform="translate(63 15.75) rotate(113.199) scale(5.71183)">
<stop stop-color="#B4A34E"/>
<stop offset="1" stop-color="#58561F"/>
</radialGradient>
<radialGradient id="paint19_radial_9_264" cx="0" cy="0" r="1" gradientUnits="userSpaceOnUse" gradientTransform="translate(94.5 15.75) rotate(113.199) scale(5.71183)">
<stop stop-color="#B4A34E"/>
<stop offset="1" stop-color="#58561F"/>
</radialGradient>
<radialGradient id="paint20_radial_9_264" cx="0" cy="0" r="1" gradientUnits="userSpaceOnUse" gradientTransform="translate(106.5 27.75) rotate(113.199) scale(5.71183)">
<stop stop-color="#B4A34E"/>
<stop offset="1" stop-color="#58561F"/>
</radialGradient>
<radialGradient id="paint21_radial_9_264" cx="0" cy="0" r="1" gradientUnits="userSpaceOnUse" gradientTransform="translate(51 26.25) rotate(113.199) scale(5.71183)">
<stop stop-color="#B4A34E"/>
<stop offset="1" stop-color="#58561F"/>
</radialGradient>
<linearGradient id="paint22_linear_9_264" x1="24.25" y1="145" x2="24.25" y2="163" gradientUnits="userSpaceOnUse">
<stop stop-color="#B4A34E"/>
<stop offset="1" stop-color="#58561F"/>
</linearGradient>
<linearGradient id="paint23_linear_9_264" x1="38.5" y1="146" x2="38.5" y2="168" gradientUnits="userSpaceOnUse">
<stop stop-color="#B4A34E"/>
<stop offset="1" stop-color="#58561F"/>
</linearGradient>
<linearGradient id="paint24_linear_9_264" x1="128.5" y1="146" x2="128.5" y2="168" gradientUnits="userSpaceOnUse">
<stop stop-color="#B4A34E"/>
<stop offset="1" stop-color="#58561F"/>
</linearGradient>
<linearGradient id="paint25_linear_9_264" x1="110.871" y1="145.969" x2="110.871" y2="162.969" gradientUnits="userSpaceOnUse">
<stop stop-color="#B4A34E"/>
<stop offset="1" stop-color="#58561F"/>
</linearGradient>
<linearGradient id="paint26_linear_9_264" x1="75.48" y1="148.16" x2="75.48" y2="165.44" gradientUnits="userSpaceOnUse">
<stop stop-color="#B4A34E"/>
<stop offset="1" stop-color="#58561F"/>
</linearGradient>
</defs>
</svg>
