<svg width="150" height="225" viewBox="0 0 150 225" fill="none" xmlns="http://www.w3.org/2000/svg">
<path d="M0 7C0 3.13401 3.13401 0 7 0H143C146.866 0 150 3.13401 150 7V218C150 221.866 146.866 225 143 225H7C3.13401 225 0 221.866 0 218V7Z" fill="#363636"/>
<rect x="16.5" y="184.5" width="117" height="25.5" rx="8.5" fill="url(#paint0_linear_7_175)"/>
<path d="M32.736 195.184H30.048V193.6H37.368V195.184H34.68V202H32.736V195.184ZM46.118 193.6V202H44.174V198.556H40.358V202H38.414V193.6H40.358V196.912H44.174V193.6H46.118ZM54.6094 200.44V202H48.1054V193.6H54.4534V195.16H50.0374V196.984H53.9374V198.496H50.0374V200.44H54.6094ZM66.0586 200.44V202H59.5546V193.6H65.9026V195.16H61.4866V196.984H65.3866V198.496H61.4866V200.44H66.0586ZM75.2494 202L75.2374 196.96L72.7654 201.112H71.8894L69.4294 197.068V202H67.6054V193.6H69.2134L72.3574 198.82L75.4534 193.6H77.0494L77.0734 202H75.2494ZM82.7023 193.6C83.4463 193.6 84.0903 193.724 84.6343 193.972C85.1863 194.22 85.6103 194.572 85.9063 195.028C86.2023 195.484 86.3503 196.024 86.3503 196.648C86.3503 197.264 86.2023 197.804 85.9063 198.268C85.6103 198.724 85.1863 199.076 84.6343 199.324C84.0903 199.564 83.4463 199.684 82.7023 199.684H81.0103V202H79.0663V193.6H82.7023ZM82.5943 198.1C83.1783 198.1 83.6223 197.976 83.9263 197.728C84.2303 197.472 84.3823 197.112 84.3823 196.648C84.3823 196.176 84.2303 195.816 83.9263 195.568C83.6223 195.312 83.1783 195.184 82.5943 195.184H81.0103V198.1H82.5943ZM93.0902 202L91.4702 199.66H91.3742H89.6822V202H87.7382V193.6H91.3742C92.1182 193.6 92.7622 193.724 93.3062 193.972C93.8582 194.22 94.2822 194.572 94.5782 195.028C94.8742 195.484 95.0222 196.024 95.0222 196.648C95.0222 197.272 94.8702 197.812 94.5662 198.268C94.2702 198.716 93.8462 199.06 93.2942 199.3L95.1782 202H93.0902ZM93.0542 196.648C93.0542 196.176 92.9022 195.816 92.5982 195.568C92.2942 195.312 91.8502 195.184 91.2662 195.184H89.6822V198.112H91.2662C91.8502 198.112 92.2942 197.984 92.5982 197.728C92.9022 197.472 93.0542 197.112 93.0542 196.648ZM103.066 200.44V202H96.5624V193.6H102.91V195.16H98.4944V196.984H102.394V198.496H98.4944V200.44H103.066ZM107.373 202.144C106.709 202.144 106.065 202.056 105.441 201.88C104.825 201.696 104.329 201.46 103.953 201.172L104.613 199.708C104.973 199.972 105.401 200.184 105.897 200.344C106.393 200.504 106.889 200.584 107.385 200.584C107.937 200.584 108.345 200.504 108.609 200.344C108.873 200.176 109.005 199.956 109.005 199.684C109.005 199.484 108.925 199.32 108.765 199.192C108.613 199.056 108.413 198.948 108.165 198.868C107.925 198.788 107.597 198.7 107.181 198.604C106.541 198.452 106.017 198.3 105.609 198.148C105.201 197.996 104.849 197.752 104.553 197.416C104.265 197.08 104.121 196.632 104.121 196.072C104.121 195.584 104.253 195.144 104.517 194.752C104.781 194.352 105.177 194.036 105.705 193.804C106.241 193.572 106.893 193.456 107.661 193.456C108.197 193.456 108.721 193.52 109.233 193.648C109.745 193.776 110.193 193.96 110.577 194.2L109.977 195.676C109.201 195.236 108.425 195.016 107.649 195.016C107.105 195.016 106.701 195.104 106.437 195.28C106.181 195.456 106.053 195.688 106.053 195.976C106.053 196.264 106.201 196.48 106.497 196.624C106.801 196.76 107.261 196.896 107.877 197.032C108.517 197.184 109.041 197.336 109.449 197.488C109.857 197.64 110.205 197.88 110.493 198.208C110.789 198.536 110.937 198.98 110.937 199.54C110.937 200.02 110.801 200.46 110.529 200.86C110.265 201.252 109.865 201.564 109.329 201.796C108.793 202.028 108.141 202.144 107.373 202.144ZM115.026 202.144C114.362 202.144 113.718 202.056 113.094 201.88C112.478 201.696 111.982 201.46 111.606 201.172L112.266 199.708C112.626 199.972 113.054 200.184 113.55 200.344C114.046 200.504 114.542 200.584 115.038 200.584C115.59 200.584 115.998 200.504 116.262 200.344C116.526 200.176 116.658 199.956 116.658 199.684C116.658 199.484 116.578 199.32 116.418 199.192C116.266 199.056 116.066 198.948 115.818 198.868C115.578 198.788 115.25 198.7 114.834 198.604C114.194 198.452 113.67 198.3 113.262 198.148C112.854 197.996 112.502 197.752 112.206 197.416C111.918 197.08 111.774 196.632 111.774 196.072C111.774 195.584 111.906 195.144 112.17 194.752C112.434 194.352 112.83 194.036 113.358 193.804C113.894 193.572 114.546 193.456 115.314 193.456C115.85 193.456 116.374 193.52 116.886 193.648C117.398 193.776 117.846 193.96 118.23 194.2L117.63 195.676C116.854 195.236 116.078 195.016 115.302 195.016C114.758 195.016 114.354 195.104 114.09 195.28C113.834 195.456 113.706 195.688 113.706 195.976C113.706 196.264 113.854 196.48 114.15 196.624C114.454 196.76 114.914 196.896 115.53 197.032C116.17 197.184 116.694 197.336 117.102 197.488C117.51 197.64 117.858 197.88 118.146 198.208C118.442 198.536 118.59 198.98 118.59 199.54C118.59 200.02 118.454 200.46 118.182 200.86C117.918 201.252 117.518 201.564 116.982 201.796C116.446 202.028 115.794 202.144 115.026 202.144Z" fill="#534100"/>
<path d="M109.362 70.4005C103.268 94.7929 120.587 119.25 112.315 124.966C109.362 129.75 88.3733 117.967 76.1886 117.909C64.2423 117.852 50.0867 129 40.2688 123.82C31.3367 120 44.8418 89.5413 41.6391 69.3226C62.9087 48.0528 95.0704 56.1087 109.362 70.4005Z" fill="url(#paint1_linear_7_175)"/>
<path d="M57.2482 108.008C57.2482 112.532 50.8367 117 50.8367 117C46.6945 117 46.7482 113.258 43.3367 109.5C43.3367 105.358 46.6945 102 50.8367 102C54.9788 102 57.2482 103.866 57.2482 108.008ZM45.2482 109.5C48.2482 111.008 47.7502 115.089 50.8367 115.089C51.5867 109.267 55.3367 112.586 55.3367 109.5C53.8367 107.589 53.9231 103.912 50.8367 103.912C47.7502 103.912 47.8367 105.339 45.2482 109.5Z" fill="url(#paint2_linear_7_175)"/>
<path d="M94.3367 109.508C94.3367 114.032 100.386 118.5 100.386 118.5C104.294 118.5 104.243 114.758 107.462 111C107.462 106.858 104.294 103.5 100.386 103.5C96.4778 103.5 94.3367 105.366 94.3367 109.508ZM105.658 111C102.828 112.508 103.298 116.589 100.386 116.589C99.6781 110.767 96.1401 114.086 96.1401 111C97.5553 109.089 97.4738 105.412 100.386 105.412C103.298 105.412 103.216 106.839 105.658 111Z" fill="url(#paint3_linear_7_175)"/>
<path d="M77.0866 95.25C80.8366 96.75 79.3366 98.25 75.7142 99C72.5866 98.25 71.0866 96.75 74.0865 95.25C74.0865 86.9658 61.3366 70.5 75.7142 70.5C90.5866 70.5 77.0866 86.9658 77.0866 95.25Z" fill="url(#paint4_linear_7_175)"/>
<path d="M103.945 70.2741C105.118 74.3927 103.34 85.8751 96.5014 89.4348C89.1475 91.5289 81.593 86.1553 81.593 86.1553C82.3042 84.8778 83.906 76.897 91.2599 74.8029C98.6138 72.7089 103.945 70.2741 103.945 70.2741Z" fill="url(#paint5_linear_7_175)"/>
<path d="M101.528 73.1122C102.114 75.1715 97.2214 79.982 93.8023 81.7618C90.1253 82.8089 85.1165 83.4289 85.1165 83.4289C84.5301 81.3696 87.0828 77.2255 90.7597 76.1785C94.4367 75.1314 101.528 73.1122 101.528 73.1122Z" fill="#363636"/>
<path d="M48.7868 70.5C47.6511 74.7384 49.4217 86.411 56.1196 89.8507C63.3178 91.7795 70.6914 86.0783 70.6914 86.0783C69.9923 84.7943 68.4037 76.6917 61.2055 74.763C54.0074 72.8342 48.7868 70.5 48.7868 70.5Z" fill="url(#paint6_linear_7_175)"/>
<path d="M50.2711 73.071C49.7085 75.1707 54.7516 79.9763 58.2505 81.7288C61.9996 82.7333 67.0938 83.2834 67.0938 83.2834C67.6564 81.1837 64.9995 77.0175 61.2505 76.0129C57.5015 75.0084 50.2711 73.071 50.2711 73.071Z" fill="#363636"/>
<path d="M74.8367 66L82.3367 57L77.0867 56.25H71.8367L67.3367 57L74.8367 66Z" fill="url(#paint7_linear_7_175)"/>
<path d="M89.8367 107.25C89.8367 107.25 83.7925 109.5 76.3367 109.5C68.8808 109.5 62.8367 107.25 62.8367 107.25C62.8367 107.25 74.0867 104.25 76.3367 105.75C78.5867 104.25 89.8367 107.25 89.8367 107.25Z" fill="url(#paint8_linear_7_175)"/>
<path d="M67.1141 39.546C73.3397 52.9252 65.25 56.25 53.25 63C42.75 70.5 34.206 71.1348 27.9804 57.7556C21.7548 44.3764 23.7604 25.7836 34.5669 20.7551C45.3734 15.7266 60.8886 26.1668 67.1141 39.546Z" fill="url(#paint9_linear_7_175)"/>
<ellipse cx="41.0795" cy="41.1972" rx="3.48624" ry="3.16931" transform="rotate(-24.9534 41.0795 41.1972)" fill="#B4A34E"/>
<ellipse cx="45.2939" cy="39.2361" rx="3.48624" ry="3.16931" transform="rotate(-24.9534 45.2939 39.2361)" fill="#B4A34E"/>
<path d="M46.7523 47.8792L48.6403 40.0094L39.5159 44.2552L46.7523 47.8792Z" fill="#B4A34E"/>
<path d="M123.95 55.7963C117.212 69.3408 108.75 71.25 94.5 61.5C79.5 57.75 78.5672 50.1149 85.3057 36.5704C92.0442 23.0259 108.006 12.634 118.678 17.9431C129.349 23.2522 130.689 42.2519 123.95 55.7963Z" fill="url(#paint10_linear_7_175)"/>
<ellipse cx="105.938" cy="36.4684" rx="3.48624" ry="3.16931" transform="rotate(26.4507 105.938 36.4684)" fill="#B4A34E"/>
<ellipse cx="110.1" cy="38.5389" rx="3.48624" ry="3.16931" transform="rotate(26.4507 110.1 38.5389)" fill="#B4A34E"/>
<path d="M104.255 45.0704L111.583 41.6367L102.573 37.154L104.255 45.0704Z" fill="#B4A34E"/>
<path d="M98.0058 39.0422C98.0058 54.1703 90.7499 60 74.9999 57C59.9999 59.25 54.8428 54.1703 54.8428 39.0422C54.8428 23.9141 64.5051 7.5 76.4243 7.5C88.3434 7.5 98.0058 23.9141 98.0058 39.0422Z" fill="url(#paint11_linear_7_175)"/>
<ellipse cx="73.2701" cy="29.7607" rx="3.48624" ry="3.16931" fill="#B4A34E"/>
<ellipse cx="77.9184" cy="29.7606" rx="3.48624" ry="3.16931" fill="#B4A34E"/>
<path d="M75.5942 38.2121L80.6262 31.8735H70.5623L75.5942 38.2121Z" fill="#B4A34E"/>
<path d="M40.7106 69.5091C40.1633 70.131 40.2238 71.0789 40.8457 71.6261C41.4676 72.1734 42.4155 72.1129 42.9627 71.491L40.7106 69.5091ZM108.276 71.5607C108.862 72.1465 109.812 72.1465 110.397 71.5607C110.983 70.975 110.983 70.0252 110.397 69.4394L108.276 71.5607ZM42.9627 71.491C58.8442 53.4438 89.3376 52.6223 108.276 71.5607L110.397 69.4394C90.3357 49.3778 57.8291 50.0563 40.7106 69.5091L42.9627 71.491Z" fill="url(#paint12_linear_7_175)"/>
<path d="M17 148V152C18.6667 153 22 156.5 25 161L22.5 163L23.5 164.5L26 163L27.5 165L30 163L28.5 161.5L30 159.5L28.5 158L27 159.5C23 155 21 150.5 21 149L17 148Z" fill="url(#paint13_linear_7_175)"/>
<path d="M43.116 162.624V165H33.594V163.11L38.454 158.52C38.97 158.028 39.318 157.608 39.498 157.26C39.678 156.9 39.768 156.546 39.768 156.198C39.768 155.694 39.594 155.31 39.246 155.046C38.91 154.77 38.412 154.632 37.752 154.632C37.2 154.632 36.702 154.74 36.258 154.956C35.814 155.16 35.442 155.472 35.142 155.892L33.018 154.524C33.51 153.792 34.188 153.222 35.052 152.814C35.916 152.394 36.906 152.184 38.022 152.184C38.958 152.184 39.774 152.34 40.47 152.652C41.178 152.952 41.724 153.384 42.108 153.948C42.504 154.5 42.702 155.154 42.702 155.91C42.702 156.594 42.558 157.236 42.27 157.836C41.982 158.436 41.424 159.12 40.596 159.888L37.698 162.624H43.116Z" fill="url(#paint14_linear_7_175)"/>
<path d="M129.588 157.53C130.692 157.71 131.538 158.124 132.126 158.772C132.714 159.408 133.008 160.2 133.008 161.148C133.008 161.88 132.816 162.558 132.432 163.182C132.048 163.794 131.46 164.286 130.668 164.658C129.888 165.03 128.928 165.216 127.788 165.216C126.9 165.216 126.024 165.102 125.16 164.874C124.308 164.634 123.582 164.298 122.982 163.866L124.116 161.634C124.596 161.994 125.148 162.276 125.772 162.48C126.408 162.672 127.056 162.768 127.716 162.768C128.448 162.768 129.024 162.63 129.444 162.354C129.864 162.066 130.074 161.664 130.074 161.148C130.074 160.116 129.288 159.6 127.716 159.6H126.384V157.674L128.976 154.74H123.612V152.4H132.432V154.29L129.588 157.53Z" fill="url(#paint15_linear_7_175)"/>
<path d="M111.23 165C108.297 162.757 102.355 157.562 102.049 154.729C101.666 151.188 103.579 148 105.874 148C108.169 148 110.082 150.479 110.465 151.896C110.847 150.448 112.454 148 114.29 148C116.585 148 119.645 150.125 118.88 154.729C118.268 158.412 113.525 163.111 111.23 165Z" fill="url(#paint16_linear_7_175)"/>
<defs>
<linearGradient id="paint0_linear_7_175" x1="75" y1="184.5" x2="75" y2="210" gradientUnits="userSpaceOnUse">
<stop stop-color="#B4A34E"/>
<stop offset="1" stop-color="#58561F"/>
</linearGradient>
<linearGradient id="paint1_linear_7_175" x1="78.5867" y1="57" x2="78.5867" y2="116.25" gradientUnits="userSpaceOnUse">
<stop stop-color="#B4A34E"/>
<stop offset="1" stop-color="#58561F"/>
</linearGradient>
<linearGradient id="paint2_linear_7_175" x1="50.0867" y1="78.5174" x2="47.0867" y2="113.767" gradientUnits="userSpaceOnUse">
<stop stop-color="#58561F"/>
<stop offset="1" stop-color="#B4A34E"/>
</linearGradient>
<linearGradient id="paint3_linear_7_175" x1="101.093" y1="80.0174" x2="104.27" y2="115.236" gradientUnits="userSpaceOnUse">
<stop stop-color="#58561F"/>
<stop offset="1" stop-color="#B4A34E"/>
</linearGradient>
<linearGradient id="paint4_linear_7_175" x1="75.7864" y1="70.5" x2="75.7864" y2="99" gradientUnits="userSpaceOnUse">
<stop stop-color="#58561F"/>
<stop offset="1" stop-color="#B4A34E"/>
</linearGradient>
<linearGradient id="paint5_linear_7_175" x1="92.8272" y1="68.9819" x2="92.3858" y2="86.3069" gradientUnits="userSpaceOnUse">
<stop stop-color="#B4A34E"/>
<stop offset="0.557292" stop-color="#58561F"/>
</linearGradient>
<linearGradient id="paint6_linear_7_175" x1="59.6566" y1="68.8644" x2="60.6394" y2="86.5121" gradientUnits="userSpaceOnUse">
<stop stop-color="#B4A34E"/>
<stop offset="0.557292" stop-color="#58561F"/>
</linearGradient>
<linearGradient id="paint7_linear_7_175" x1="74.8367" y1="66" x2="74.8367" y2="56.25" gradientUnits="userSpaceOnUse">
<stop stop-color="#58561F"/>
<stop offset="1" stop-color="#B4A34E"/>
</linearGradient>
<linearGradient id="paint8_linear_7_175" x1="76.3367" y1="105.33" x2="76.3367" y2="109.5" gradientUnits="userSpaceOnUse">
<stop stop-color="#B4A34E"/>
<stop offset="1" stop-color="#58561F"/>
</linearGradient>
<linearGradient id="paint9_linear_7_175" x1="34.5669" y1="20.7551" x2="58.8197" y2="72.876" gradientUnits="userSpaceOnUse">
<stop stop-color="#B4A34E"/>
<stop offset="1" stop-color="#58561F"/>
</linearGradient>
<linearGradient id="paint10_linear_7_175" x1="118.678" y1="17.9431" x2="92.4269" y2="70.7078" gradientUnits="userSpaceOnUse">
<stop stop-color="#B4A34E"/>
<stop offset="1" stop-color="#58561F"/>
</linearGradient>
<linearGradient id="paint11_linear_7_175" x1="76.4243" y1="7.5" x2="76.4243" y2="66.4341" gradientUnits="userSpaceOnUse">
<stop stop-color="#B4A34E"/>
<stop offset="1" stop-color="#58561F"/>
</linearGradient>
<linearGradient id="paint12_linear_7_175" x1="77.0867" y1="32.25" x2="76.3367" y2="70.5" gradientUnits="userSpaceOnUse">
<stop stop-color="#B4A34E"/>
<stop offset="1" stop-color="#58561F"/>
</linearGradient>
<linearGradient id="paint13_linear_7_175" x1="24.25" y1="147" x2="24.25" y2="165" gradientUnits="userSpaceOnUse">
<stop stop-color="#B4A34E"/>
<stop offset="1" stop-color="#58561F"/>
</linearGradient>
<linearGradient id="paint14_linear_7_175" x1="38.5" y1="148" x2="38.5" y2="170" gradientUnits="userSpaceOnUse">
<stop stop-color="#B4A34E"/>
<stop offset="1" stop-color="#58561F"/>
</linearGradient>
<linearGradient id="paint15_linear_7_175" x1="128.5" y1="148" x2="128.5" y2="170" gradientUnits="userSpaceOnUse">
<stop stop-color="#B4A34E"/>
<stop offset="1" stop-color="#58561F"/>
</linearGradient>
<linearGradient id="paint16_linear_7_175" x1="110.871" y1="147.969" x2="110.871" y2="164.969" gradientUnits="userSpaceOnUse">
<stop stop-color="#B4A34E"/>
<stop offset="1" stop-color="#58561F"/>
</linearGradient>
</defs>
</svg>
