<svg width="150" height="225" viewBox="0 0 150 225" fill="none" xmlns="http://www.w3.org/2000/svg">
<path d="M0 7C0 3.13401 3.13401 0 7 0H143C146.866 0 150 3.13401 150 7V218C150 221.866 146.866 225 143 225H7C3.13401 225 0 221.866 0 218V7Z" fill="#363636"/>
<rect x="16.5" y="184.5" width="117" height="25.5" rx="8.5" fill="url(#paint0_linear_2_30)"/>
<path d="M40.192 195.048H37.056V193.2H45.596V195.048H42.46V203H40.192V195.048ZM55.8043 193.2V203H53.5363V198.982H49.0843V203H46.8163V193.2H49.0843V197.064H53.5363V193.2H55.8043ZM65.7109 201.18V203H58.1229V193.2H65.5289V195.02H60.3769V197.148H64.9269V198.912H60.3769V201.18H65.7109ZM73.7484 195.02V197.61H78.2844V199.43H73.7484V203H71.4804V193.2H78.8864V195.02H73.7484ZM85.0721 203.168C84.0547 203.168 83.1354 202.949 82.3141 202.51C81.5021 202.071 80.8627 201.469 80.3961 200.704C79.9387 199.929 79.7101 199.061 79.7101 198.1C79.7101 197.139 79.9387 196.275 80.3961 195.51C80.8627 194.735 81.5021 194.129 82.3141 193.69C83.1354 193.251 84.0547 193.032 85.0721 193.032C86.0894 193.032 87.0041 193.251 87.8161 193.69C88.6281 194.129 89.2674 194.735 89.7341 195.51C90.2007 196.275 90.4341 197.139 90.4341 198.1C90.4341 199.061 90.2007 199.929 89.7341 200.704C89.2674 201.469 88.6281 202.071 87.8161 202.51C87.0041 202.949 86.0894 203.168 85.0721 203.168ZM85.0721 201.236C85.6507 201.236 86.1734 201.105 86.6401 200.844C87.1067 200.573 87.4707 200.2 87.7321 199.724C88.0027 199.248 88.1381 198.707 88.1381 198.1C88.1381 197.493 88.0027 196.952 87.7321 196.476C87.4707 196 87.1067 195.631 86.6401 195.37C86.1734 195.099 85.6507 194.964 85.0721 194.964C84.4934 194.964 83.9707 195.099 83.5041 195.37C83.0374 195.631 82.6687 196 82.3981 196.476C82.1367 196.952 82.0061 197.493 82.0061 198.1C82.0061 198.707 82.1367 199.248 82.3981 199.724C82.6687 200.2 83.0374 200.573 83.5041 200.844C83.9707 201.105 84.4934 201.236 85.0721 201.236ZM96.8846 203.168C95.8672 203.168 94.9479 202.949 94.1266 202.51C93.3146 202.071 92.6752 201.469 92.2086 200.704C91.7512 199.929 91.5226 199.061 91.5226 198.1C91.5226 197.139 91.7512 196.275 92.2086 195.51C92.6752 194.735 93.3146 194.129 94.1266 193.69C94.9479 193.251 95.8672 193.032 96.8846 193.032C97.9019 193.032 98.8166 193.251 99.6286 193.69C100.441 194.129 101.08 194.735 101.547 195.51C102.013 196.275 102.247 197.139 102.247 198.1C102.247 199.061 102.013 199.929 101.547 200.704C101.08 201.469 100.441 202.071 99.6286 202.51C98.8166 202.949 97.9019 203.168 96.8846 203.168ZM96.8846 201.236C97.4632 201.236 97.9859 201.105 98.4526 200.844C98.9192 200.573 99.2832 200.2 99.5446 199.724C99.8152 199.248 99.9506 198.707 99.9506 198.1C99.9506 197.493 99.8152 196.952 99.5446 196.476C99.2832 196 98.9192 195.631 98.4526 195.37C97.9859 195.099 97.4632 194.964 96.8846 194.964C96.3059 194.964 95.7832 195.099 95.3166 195.37C94.8499 195.631 94.4812 196 94.2106 196.476C93.9492 196.952 93.8186 197.493 93.8186 198.1C93.8186 198.707 93.9492 199.248 94.2106 199.724C94.4812 200.2 94.8499 200.573 95.3166 200.844C95.7832 201.105 96.3059 201.236 96.8846 201.236ZM103.951 193.2H106.219V201.152H111.133V203H103.951V193.2Z" fill="#534100"/>
<path d="M98.6295 82.3504C98.6295 117.755 92.2306 120 73.0337 120C45.469 120 46.4534 108.895 47.4378 74.2826C47.9092 57.7098 51.3757 49.8275 79.4326 44.7007C95.8871 51.8721 98.6295 60.6565 98.6295 82.3504Z" fill="url(#paint1_linear_2_30)"/>
<path d="M72.4908 82.4288C66.9676 89.4511 58.6824 88.4479 58.6824 88.4479C58.6824 88.4479 49.4761 87.7663 47.6352 78.0752C45.7943 68.3841 56.8412 35.2787 79.8554 44.9699C84.4585 59.3553 72.4908 82.4288 72.4908 82.4288Z" fill="url(#paint2_linear_2_30)"/>
<path d="M91.7382 75.7529C93.5707 85.0145 88.2122 90.4664 83.8626 90.4664C79.513 90.4664 74.018 84.5596 75.9869 75.7529C75.9869 71.947 79.513 68.8617 83.8626 68.8617C88.2122 68.8617 90.7538 70.7773 91.7382 75.7529Z" fill="url(#paint3_linear_2_30)"/>
<path d="M65.74 73.4879C66.1761 76.1712 61.1119 75.9749 57.0309 75.2722C54.8053 74.889 52.8282 73.9605 51.6623 72.784C53.3261 70.8875 56.1622 69.9278 58.1846 70.0978C62.2293 70.4377 64.4886 72.0652 65.74 73.4879Z" fill="#363636"/>
<path d="M77.3379 73.44C76.7574 76.0958 81.1289 76.0212 84.6933 75.4201C86.6371 75.0922 88.409 74.2168 89.5019 73.0755C88.2157 71.1514 85.8494 70.1304 84.0966 70.2512C80.5912 70.4927 78.5231 72.0561 77.3379 73.44Z" fill="#363636"/>
<path d="M59.7903 88.8237L62.5025 94.3389L63.3982 94.213L64.6739 93.4419L65.2165 92.2388L59.7903 88.8237Z" fill="url(#paint4_linear_2_30)"/>
<path d="M55.078 91.9043L61.0334 96.7484L61.9842 96.1383L63.0297 94.5977L63.0178 92.9491L55.078 91.9043Z" fill="url(#paint5_linear_2_30)"/>
<path d="M52.7367 95.5108L60.9522 99.2509L61.8525 98.274L62.5839 96.2105L62.0801 94.3385L52.7367 95.5108Z" fill="url(#paint6_linear_2_30)"/>
<path d="M73.0336 97.0814C67.127 100.035 59.2513 105.942 52.013 104.78C49.2047 97.1631 60.2357 99.0503 65.1581 91.1747C70.0803 68.5322 67.4355 43.4608 69.986 44.4018C74.0181 45.8897 73.0336 97.0814 73.0336 97.0814Z" fill="url(#paint7_linear_2_30)"/>
<path d="M78.5042 100.641L70.1041 98.6283L69.9996 97.3614L70.6621 95.3739L72.1438 94.2579L78.5042 100.641Z" fill="url(#paint8_linear_2_30)"/>
<path d="M73.9319 105.012L67.9003 100.272L68.286 99.2112L69.5577 97.8532L71.1673 97.5023L73.9319 105.012Z" fill="url(#paint9_linear_2_30)"/>
<path d="M69.9553 107.07L65.3183 100.959L65.9598 100.03L67.5336 99.0376L69.1796 99.1051L69.9553 107.07Z" fill="url(#paint10_linear_2_30)"/>
<path d="M122.611 53.266C121.881 60.2962 99.5592 68.6864 73.3817 65.9666C47.2042 63.2468 43.8886 59.1211 44.6191 52.0909C45.3495 45.0606 54.0782 44.1658 80.2557 46.8857C106.433 49.6055 123.342 46.2357 122.611 53.266Z" fill="url(#paint11_linear_2_30)"/>
<path d="M93.821 49.0445C92.922 57.6971 82.1615 56.7408 73.1471 55.8042C64.1326 54.8676 53.1001 56.5289 53.9991 47.8762C54.8982 39.2236 66.1957 22.4201 76.3009 25.4495C87.4687 26.6098 94.72 40.3918 93.821 49.0445Z" fill="url(#paint12_linear_2_30)"/>
<path d="M60.2358 39.9829C62.244 34.9304 73.0076 24.8144 74.0181 25.2161C75.0286 25.6177 65.1973 36.8993 63.1891 41.9518C61.1809 47.0044 61.2463 55.1514 60.2358 54.7498C59.2253 54.3481 58.2276 45.0354 60.2358 39.9829Z" fill="url(#paint13_linear_2_30)"/>
<path d="M88.3135 44.2033C88.4365 39.3375 82.753 27.215 81.7142 27.1888C80.6754 27.1625 85.1032 39.9149 84.9802 44.7807C84.8572 49.6466 81.7536 56.3265 82.7925 56.3527C83.8313 56.379 88.1905 49.0692 88.3135 44.2033Z" fill="url(#paint14_linear_2_30)"/>
<path d="M73.0331 43.0135C73.0732 38.0888 75.3293 25.6615 76.4167 25.6704C77.504 25.6792 76.0267 39.0672 75.9865 43.9919C75.9464 48.9166 75.365 55.1339 74.2776 55.125C73.1902 55.1162 72.993 47.9382 73.0331 43.0135Z" fill="url(#paint15_linear_2_30)"/>
<path d="M17 148V152C18.6667 153 22 156.5 25 161L22.5 163L23.5 164.5L26 163L27.5 165L30 163L28.5 161.5L30 159.5L28.5 158L27 159.5C23 155 21 150.5 21 149L17 148Z" fill="url(#paint16_linear_2_30)"/>
<path d="M43.116 162.624V165H33.594V163.11L38.454 158.52C38.97 158.028 39.318 157.608 39.498 157.26C39.678 156.9 39.768 156.546 39.768 156.198C39.768 155.694 39.594 155.31 39.246 155.046C38.91 154.77 38.412 154.632 37.752 154.632C37.2 154.632 36.702 154.74 36.258 154.956C35.814 155.16 35.442 155.472 35.142 155.892L33.018 154.524C33.51 153.792 34.188 153.222 35.052 152.814C35.916 152.394 36.906 152.184 38.022 152.184C38.958 152.184 39.774 152.34 40.47 152.652C41.178 152.952 41.724 153.384 42.108 153.948C42.504 154.5 42.702 155.154 42.702 155.91C42.702 156.594 42.558 157.236 42.27 157.836C41.982 158.436 41.424 159.12 40.596 159.888L37.698 162.624H43.116Z" fill="url(#paint17_linear_2_30)"/>
<path d="M133.116 162.624V165H123.594V163.11L128.454 158.52C128.97 158.028 129.318 157.608 129.498 157.26C129.678 156.9 129.768 156.546 129.768 156.198C129.768 155.694 129.594 155.31 129.246 155.046C128.91 154.77 128.412 154.632 127.752 154.632C127.2 154.632 126.702 154.74 126.258 154.956C125.814 155.16 125.442 155.472 125.142 155.892L123.018 154.524C123.51 153.792 124.188 153.222 125.052 152.814C125.916 152.394 126.906 152.184 128.022 152.184C128.958 152.184 129.774 152.34 130.47 152.652C131.178 152.952 131.724 153.384 132.108 153.948C132.504 154.5 132.702 155.154 132.702 155.91C132.702 156.594 132.558 157.236 132.27 157.836C131.982 158.436 131.424 159.12 130.596 159.888L127.698 162.624H133.116Z" fill="url(#paint18_linear_2_30)"/>
<path d="M111.23 165C108.297 162.757 102.355 157.562 102.049 154.729C101.666 151.188 103.579 148 105.874 148C108.169 148 110.082 150.479 110.465 151.896C110.847 150.448 112.454 148 114.29 148C116.585 148 119.645 150.125 118.88 154.729C118.268 158.412 113.525 163.111 111.23 165Z" fill="url(#paint19_linear_2_30)"/>
<defs>
<linearGradient id="paint0_linear_2_30" x1="75" y1="184.5" x2="75" y2="210" gradientUnits="userSpaceOnUse">
<stop stop-color="#B4A34E"/>
<stop offset="1" stop-color="#58561F"/>
</linearGradient>
<linearGradient id="paint1_linear_2_30" x1="73.0336" y1="43.2125" x2="73.0336" y2="120" gradientUnits="userSpaceOnUse">
<stop stop-color="#B4A34E"/>
<stop offset="1" stop-color="#58561F"/>
</linearGradient>
<linearGradient id="paint2_linear_2_30" x1="73.4116" y1="43.3043" x2="67.9538" y2="98.3952" gradientUnits="userSpaceOnUse">
<stop stop-color="#B4A34E"/>
<stop offset="1" stop-color="#28270F"/>
</linearGradient>
<linearGradient id="paint3_linear_2_30" x1="82.8781" y1="68.8083" x2="82.8781" y2="82.5907" gradientUnits="userSpaceOnUse">
<stop stop-color="#B4A34E"/>
<stop offset="1" stop-color="#B3AE4B"/>
</linearGradient>
<linearGradient id="paint4_linear_2_30" x1="60.403" y1="89.0865" x2="62.1526" y2="93.4635" gradientUnits="userSpaceOnUse">
<stop stop-color="#B4A34E"/>
<stop offset="1" stop-color="#58561F"/>
</linearGradient>
<linearGradient id="paint5_linear_2_30" x1="55.9104" y1="91.8829" x2="60.1795" y2="95.9375" gradientUnits="userSpaceOnUse">
<stop stop-color="#B4A34E"/>
<stop offset="1" stop-color="#58561F"/>
</linearGradient>
<linearGradient id="paint6_linear_2_30" x1="53.6773" y1="95.2389" x2="59.7397" y2="98.5822" gradientUnits="userSpaceOnUse">
<stop stop-color="#B4A34E"/>
<stop offset="1" stop-color="#58561F"/>
</linearGradient>
<linearGradient id="paint7_linear_2_30" x1="64.1409" y1="79.6959" x2="66.0553" y2="97.3124" gradientUnits="userSpaceOnUse">
<stop stop-color="#B4A34E"/>
<stop offset="1" stop-color="#58561F"/>
</linearGradient>
<linearGradient id="paint8_linear_2_30" x1="77.9545" y1="99.882" x2="71.4125" y2="98.8373" gradientUnits="userSpaceOnUse">
<stop stop-color="#B4A34E"/>
<stop offset="1" stop-color="#58561F"/>
</linearGradient>
<linearGradient id="paint9_linear_2_30" x1="73.7697" y1="104.196" x2="68.8786" y2="100.926" gradientUnits="userSpaceOnUse">
<stop stop-color="#B4A34E"/>
<stop offset="1" stop-color="#58561F"/>
</linearGradient>
<linearGradient id="paint10_linear_2_30" x1="70.0048" y1="106.239" x2="66.0994" y2="101.839" gradientUnits="userSpaceOnUse">
<stop stop-color="#B4A34E"/>
<stop offset="1" stop-color="#58561F"/>
</linearGradient>
<linearGradient id="paint11_linear_2_30" x1="74.9002" y1="48.3088" x2="73.2724" y2="63.9757" gradientUnits="userSpaceOnUse">
<stop stop-color="#B4A34E"/>
<stop offset="1" stop-color="#58561F"/>
</linearGradient>
<linearGradient id="paint12_linear_2_30" x1="76.4027" y1="24.4703" x2="73.1471" y2="55.8042" gradientUnits="userSpaceOnUse">
<stop stop-color="#B4A34E"/>
<stop offset="1" stop-color="#58561F"/>
</linearGradient>
<linearGradient id="paint13_linear_2_30" x1="61.081" y1="50.1469" x2="68.3535" y2="31.8501" gradientUnits="userSpaceOnUse">
<stop stop-color="#B4A34E"/>
<stop offset="1" stop-color="#58561F"/>
</linearGradient>
<linearGradient id="paint14_linear_2_30" x1="83.7701" y1="52.2673" x2="84.2154" y2="34.6465" gradientUnits="userSpaceOnUse">
<stop stop-color="#B4A34E"/>
<stop offset="1" stop-color="#58561F"/>
</linearGradient>
<linearGradient id="paint15_linear_2_30" x1="73.3968" y1="50.9605" x2="73.5421" y2="33.1266" gradientUnits="userSpaceOnUse">
<stop stop-color="#B4A34E"/>
<stop offset="1" stop-color="#58561F"/>
</linearGradient>
<linearGradient id="paint16_linear_2_30" x1="24.25" y1="147" x2="24.25" y2="165" gradientUnits="userSpaceOnUse">
<stop stop-color="#B4A34E"/>
<stop offset="1" stop-color="#58561F"/>
</linearGradient>
<linearGradient id="paint17_linear_2_30" x1="38.5" y1="148" x2="38.5" y2="170" gradientUnits="userSpaceOnUse">
<stop stop-color="#B4A34E"/>
<stop offset="1" stop-color="#58561F"/>
</linearGradient>
<linearGradient id="paint18_linear_2_30" x1="128.5" y1="148" x2="128.5" y2="170" gradientUnits="userSpaceOnUse">
<stop stop-color="#B4A34E"/>
<stop offset="1" stop-color="#58561F"/>
</linearGradient>
<linearGradient id="paint19_linear_2_30" x1="110.871" y1="147.969" x2="110.871" y2="164.969" gradientUnits="userSpaceOnUse">
<stop stop-color="#B4A34E"/>
<stop offset="1" stop-color="#58561F"/>
</linearGradient>
</defs>
</svg>
