<svg width="150" height="225" viewBox="0 0 150 225" fill="none" xmlns="http://www.w3.org/2000/svg">
<path d="M0 7C0 3.13401 3.13401 0 7 0H143C146.866 0 150 3.13401 150 7V218C150 221.866 146.866 225 143 225H7C3.13401 225 0 221.866 0 218V7Z" fill="#363636"/>
<rect x="16.5" y="184.5" width="117" height="25.5" rx="8.5" fill="url(#paint0_linear_12_620)"/>
<path d="M30.41 194L28.12 201H26.38L24.84 196.26L23.25 201H21.52L19.22 194H20.9L22.48 198.92L24.13 194H25.63L27.23 198.96L28.86 194H30.41ZM37.7344 194V201H36.1144V198.13H32.9344V201H31.3144V194H32.9344V196.76H36.1144V194H37.7344ZM44.8105 199.7V201H39.3905V194H44.6805V195.3H41.0005V196.82H44.2505V198.08H41.0005V199.7H44.8105ZM51.5195 199.7V201H46.0995V194H51.3895V195.3H47.7095V196.82H50.9595V198.08H47.7095V199.7H51.5195ZM52.8085 194H54.4285V199.68H57.9385V201H52.8085V194ZM65.0657 201.12C64.339 201.12 63.6824 200.963 63.0957 200.65C62.5157 200.337 62.059 199.907 61.7257 199.36C61.399 198.807 61.2357 198.187 61.2357 197.5C61.2357 196.813 61.399 196.197 61.7257 195.65C62.059 195.097 62.5157 194.663 63.0957 194.35C63.6824 194.037 64.339 193.88 65.0657 193.88C65.7924 193.88 66.4457 194.037 67.0257 194.35C67.6057 194.663 68.0624 195.097 68.3957 195.65C68.729 196.197 68.8957 196.813 68.8957 197.5C68.8957 198.187 68.729 198.807 68.3957 199.36C68.0624 199.907 67.6057 200.337 67.0257 200.65C66.4457 200.963 65.7924 201.12 65.0657 201.12ZM65.0657 199.74C65.479 199.74 65.8524 199.647 66.1857 199.46C66.519 199.267 66.779 199 66.9657 198.66C67.159 198.32 67.2557 197.933 67.2557 197.5C67.2557 197.067 67.159 196.68 66.9657 196.34C66.779 196 66.519 195.737 66.1857 195.55C65.8524 195.357 65.479 195.26 65.0657 195.26C64.6524 195.26 64.279 195.357 63.9457 195.55C63.6124 195.737 63.349 196 63.1557 196.34C62.969 196.68 62.8757 197.067 62.8757 197.5C62.8757 197.933 62.969 198.32 63.1557 198.66C63.349 199 63.6124 199.267 63.9457 199.46C64.279 199.647 64.6524 199.74 65.0657 199.74ZM71.7332 195.3V197.15H74.9732V198.45H71.7332V201H70.1132V194H75.4032V195.3H71.7332ZM80.952 195.3V197.15H84.192V198.45H80.952V201H79.332V194H84.622V195.3H80.952ZM89.0403 201.12C88.3136 201.12 87.657 200.963 87.0703 200.65C86.4903 200.337 86.0336 199.907 85.7003 199.36C85.3736 198.807 85.2103 198.187 85.2103 197.5C85.2103 196.813 85.3736 196.197 85.7003 195.65C86.0336 195.097 86.4903 194.663 87.0703 194.35C87.657 194.037 88.3136 193.88 89.0403 193.88C89.767 193.88 90.4203 194.037 91.0003 194.35C91.5803 194.663 92.037 195.097 92.3703 195.65C92.7036 196.197 92.8703 196.813 92.8703 197.5C92.8703 198.187 92.7036 198.807 92.3703 199.36C92.037 199.907 91.5803 200.337 91.0003 200.65C90.4203 200.963 89.767 201.12 89.0403 201.12ZM89.0403 199.74C89.4536 199.74 89.827 199.647 90.1603 199.46C90.4936 199.267 90.7536 199 90.9403 198.66C91.1336 198.32 91.2303 197.933 91.2303 197.5C91.2303 197.067 91.1336 196.68 90.9403 196.34C90.7536 196 90.4936 195.737 90.1603 195.55C89.827 195.357 89.4536 195.26 89.0403 195.26C88.627 195.26 88.2536 195.357 87.9203 195.55C87.587 195.737 87.3236 196 87.1303 196.34C86.9436 196.68 86.8503 197.067 86.8503 197.5C86.8503 197.933 86.9436 198.32 87.1303 198.66C87.3236 199 87.587 199.267 87.9203 199.46C88.2536 199.647 88.627 199.74 89.0403 199.74ZM98.5478 201L97.1978 199.05H97.1178H95.7078V201H94.0878V194H97.1178C97.7378 194 98.2745 194.103 98.7278 194.31C99.1878 194.517 99.5411 194.81 99.7878 195.19C100.034 195.57 100.158 196.02 100.158 196.54C100.158 197.06 100.031 197.51 99.7778 197.89C99.5311 198.263 99.1778 198.55 98.7178 198.75L100.288 201H98.5478ZM98.5178 196.54C98.5178 196.147 98.3911 195.847 98.1378 195.64C97.8845 195.427 97.5145 195.32 97.0278 195.32H95.7078V197.76H97.0278C97.5145 197.76 97.8845 197.653 98.1378 197.44C98.3911 197.227 98.5178 196.927 98.5178 196.54ZM102.794 195.32H100.554V194H106.654V195.32H104.414V201H102.794V195.32ZM110.518 201.12C109.518 201.12 108.738 200.843 108.178 200.29C107.625 199.737 107.348 198.947 107.348 197.92V194H108.968V197.86C108.968 199.113 109.488 199.74 110.528 199.74C111.035 199.74 111.421 199.59 111.688 199.29C111.955 198.983 112.088 198.507 112.088 197.86V194H113.688V197.92C113.688 198.947 113.408 199.737 112.848 200.29C112.295 200.843 111.518 201.12 110.518 201.12ZM121.709 194V201H120.379L116.889 196.75V201H115.289V194H116.629L120.109 198.25V194H121.709ZM128.785 199.7V201H123.365V194H128.655V195.3H124.975V196.82H128.225V198.08H124.975V199.7H128.785Z" fill="#534100"/>
<ellipse cx="80.5" cy="56.5" rx="3.5" ry="20.5" fill="url(#paint1_linear_12_620)"/>
<ellipse cx="106.5" cy="83.5" rx="3.5" ry="20.5" transform="rotate(-90 106.5 83.5)" fill="url(#paint2_linear_12_620)"/>
<ellipse cx="57.5" cy="83.5" rx="3.5" ry="20.5" transform="rotate(-90 57.5 83.5)" fill="url(#paint3_linear_12_620)"/>
<ellipse cx="81.5" cy="110.5" rx="3.5" ry="20.5" fill="url(#paint4_linear_12_620)"/>
<ellipse cx="100.701" cy="63.9672" rx="3.5" ry="20.5" transform="rotate(46.9331 100.701 63.9672)" fill="url(#paint5_linear_12_620)"/>
<ellipse cx="98.7299" cy="101.399" rx="3.5" ry="20.5" transform="rotate(-43.0669 98.7299 101.399)" fill="url(#paint6_linear_12_620)"/>
<ellipse cx="65.2701" cy="65.6013" rx="3.5" ry="20.5" transform="rotate(-43.0669 65.2701 65.6013)" fill="url(#paint7_linear_12_620)"/>
<ellipse cx="61.9336" cy="101.572" rx="3.5" ry="20.5" transform="rotate(46.9331 61.9336 101.572)" fill="url(#paint8_linear_12_620)"/>
<path d="M127 83.5C127 112.495 105.957 136 80 136C54.0426 136 33 112.495 33 83.5C33 54.5051 54.0426 31 80 31C105.957 31 127 54.5051 127 83.5ZM40.2814 83.5C40.2814 108.003 58.064 127.867 80 127.867C101.936 127.867 119.719 108.003 119.719 83.5C119.719 58.997 101.936 39.1334 80 39.1334C58.064 39.1334 40.2814 58.997 40.2814 83.5Z" fill="url(#paint9_linear_12_620)"/>
<ellipse cx="81" cy="84" rx="8" ry="11" fill="url(#paint10_linear_12_620)"/>
<path d="M17 148V152C18.6667 153 22 156.5 25 161L22.5 163L23.5 164.5L26 163L27.5 165L30 163L28.5 161.5L30 159.5L28.5 158L27 159.5C23 155 21 150.5 21 149L17 148Z" fill="url(#paint11_linear_12_620)"/>
<path d="M43.116 162.624V165H33.594V163.11L38.454 158.52C38.97 158.028 39.318 157.608 39.498 157.26C39.678 156.9 39.768 156.546 39.768 156.198C39.768 155.694 39.594 155.31 39.246 155.046C38.91 154.77 38.412 154.632 37.752 154.632C37.2 154.632 36.702 154.74 36.258 154.956C35.814 155.16 35.442 155.472 35.142 155.892L33.018 154.524C33.51 153.792 34.188 153.222 35.052 152.814C35.916 152.394 36.906 152.184 38.022 152.184C38.958 152.184 39.774 152.34 40.47 152.652C41.178 152.952 41.724 153.384 42.108 153.948C42.504 154.5 42.702 155.154 42.702 155.91C42.702 156.594 42.558 157.236 42.27 157.836C41.982 158.436 41.424 159.12 40.596 159.888L37.698 162.624H43.116Z" fill="url(#paint12_linear_12_620)"/>
<path d="M133.116 162.624V165H123.594V163.11L128.454 158.52C128.97 158.028 129.318 157.608 129.498 157.26C129.678 156.9 129.768 156.546 129.768 156.198C129.768 155.694 129.594 155.31 129.246 155.046C128.91 154.77 128.412 154.632 127.752 154.632C127.2 154.632 126.702 154.74 126.258 154.956C125.814 155.16 125.442 155.472 125.142 155.892L123.018 154.524C123.51 153.792 124.188 153.222 125.052 152.814C125.916 152.394 126.906 152.184 128.022 152.184C128.958 152.184 129.774 152.34 130.47 152.652C131.178 152.952 131.724 153.384 132.108 153.948C132.504 154.5 132.702 155.154 132.702 155.91C132.702 156.594 132.558 157.236 132.27 157.836C131.982 158.436 131.424 159.12 130.596 159.888L127.698 162.624H133.116Z" fill="url(#paint13_linear_12_620)"/>
<path d="M111.23 165C108.297 162.757 102.355 157.562 102.049 154.729C101.666 151.187 103.579 148 105.874 148C108.169 148 110.082 150.479 110.465 151.896C110.847 150.448 112.454 148 114.29 148C116.585 148 119.645 150.125 118.88 154.729C118.268 158.412 113.525 163.111 111.23 165Z" fill="url(#paint14_linear_12_620)"/>
<defs>
<linearGradient id="paint0_linear_12_620" x1="75" y1="184.5" x2="75" y2="210" gradientUnits="userSpaceOnUse">
<stop stop-color="#B4A34E"/>
<stop offset="1" stop-color="#58561F"/>
</linearGradient>
<linearGradient id="paint1_linear_12_620" x1="80.5" y1="36" x2="80.5" y2="77" gradientUnits="userSpaceOnUse">
<stop stop-color="#B4A34E"/>
<stop offset="1" stop-color="#58561F"/>
</linearGradient>
<linearGradient id="paint2_linear_12_620" x1="106.5" y1="63" x2="106.5" y2="104" gradientUnits="userSpaceOnUse">
<stop stop-color="#B4A34E"/>
<stop offset="1" stop-color="#58561F"/>
</linearGradient>
<linearGradient id="paint3_linear_12_620" x1="57.5" y1="63" x2="57.5" y2="104" gradientUnits="userSpaceOnUse">
<stop stop-color="#B4A34E"/>
<stop offset="1" stop-color="#58561F"/>
</linearGradient>
<linearGradient id="paint4_linear_12_620" x1="81.5" y1="90" x2="81.5" y2="131" gradientUnits="userSpaceOnUse">
<stop stop-color="#B4A34E"/>
<stop offset="1" stop-color="#58561F"/>
</linearGradient>
<linearGradient id="paint5_linear_12_620" x1="100.701" y1="43.4672" x2="100.701" y2="84.4672" gradientUnits="userSpaceOnUse">
<stop stop-color="#B4A34E"/>
<stop offset="1" stop-color="#58561F"/>
</linearGradient>
<linearGradient id="paint6_linear_12_620" x1="98.7299" y1="80.8986" x2="98.7299" y2="121.899" gradientUnits="userSpaceOnUse">
<stop stop-color="#B4A34E"/>
<stop offset="1" stop-color="#58561F"/>
</linearGradient>
<linearGradient id="paint7_linear_12_620" x1="65.2701" y1="45.1013" x2="65.2701" y2="86.1013" gradientUnits="userSpaceOnUse">
<stop stop-color="#B4A34E"/>
<stop offset="1" stop-color="#58561F"/>
</linearGradient>
<linearGradient id="paint8_linear_12_620" x1="61.9336" y1="81.0718" x2="61.9336" y2="122.072" gradientUnits="userSpaceOnUse">
<stop stop-color="#B4A34E"/>
<stop offset="1" stop-color="#58561F"/>
</linearGradient>
<linearGradient id="paint9_linear_12_620" x1="80" y1="31" x2="80" y2="136" gradientUnits="userSpaceOnUse">
<stop stop-color="#B4A34E"/>
<stop offset="1" stop-color="#58561F"/>
</linearGradient>
<linearGradient id="paint10_linear_12_620" x1="81" y1="73" x2="81" y2="95" gradientUnits="userSpaceOnUse">
<stop stop-color="#B4A34E"/>
<stop offset="1" stop-color="#58561F"/>
</linearGradient>
<linearGradient id="paint11_linear_12_620" x1="24.25" y1="147" x2="24.25" y2="165" gradientUnits="userSpaceOnUse">
<stop stop-color="#B4A34E"/>
<stop offset="1" stop-color="#58561F"/>
</linearGradient>
<linearGradient id="paint12_linear_12_620" x1="38.5" y1="148" x2="38.5" y2="170" gradientUnits="userSpaceOnUse">
<stop stop-color="#B4A34E"/>
<stop offset="1" stop-color="#58561F"/>
</linearGradient>
<linearGradient id="paint13_linear_12_620" x1="128.5" y1="148" x2="128.5" y2="170" gradientUnits="userSpaceOnUse">
<stop stop-color="#B4A34E"/>
<stop offset="1" stop-color="#58561F"/>
</linearGradient>
<linearGradient id="paint14_linear_12_620" x1="110.871" y1="147.969" x2="110.871" y2="164.969" gradientUnits="userSpaceOnUse">
<stop stop-color="#B4A34E"/>
<stop offset="1" stop-color="#58561F"/>
</linearGradient>
</defs>
</svg>
