<svg width="150" height="225" viewBox="0 0 150 225" fill="none" xmlns="http://www.w3.org/2000/svg">
<path d="M0 7C0 3.13401 3.13401 0 7 0H143C146.866 0 150 3.13401 150 7V218C150 221.866 146.866 225 143 225H7C3.13401 225 0 221.866 0 218V7Z" fill="#363636"/>
<rect x="16.5" y="184.5" width="117" height="25.5" rx="8.5" fill="url(#paint0_linear_13_864)"/>
<path d="M23.508 194.752H21.044V193.3H27.754V194.752H25.29V201H23.508V194.752ZM35.7748 193.3V201H33.9928V197.843H30.4948V201H28.7128V193.3H30.4948V196.336H33.9928V193.3H35.7748ZM43.5586 199.57V201H37.5966V193.3H43.4156V194.73H39.3676V196.402H42.9426V197.788H39.3676V199.57H43.5586ZM55.1537 193.3V201H53.3717V197.843H49.8737V201H48.0917V193.3H49.8737V196.336H53.3717V193.3H55.1537ZM62.0465 199.35H58.4715L57.7895 201H55.9635L59.3955 193.3H61.1555L64.5985 201H62.7285L62.0465 199.35ZM61.4855 197.997L60.2645 195.049L59.0435 197.997H61.4855ZM72.4594 193.3V201H70.9964L67.1574 196.325V201H65.3974V193.3H66.8714L70.6994 197.975V193.3H72.4594ZM79.4842 197.029H81.1122V200.153C80.6942 200.468 80.2102 200.71 79.6602 200.879C79.1102 201.048 78.5565 201.132 77.9992 201.132C77.1998 201.132 76.4812 200.963 75.8432 200.626C75.2052 200.281 74.7028 199.808 74.3362 199.207C73.9768 198.598 73.7972 197.913 73.7972 197.15C73.7972 196.387 73.9768 195.705 74.3362 195.104C74.7028 194.495 75.2088 194.022 75.8542 193.685C76.4995 193.34 77.2255 193.168 78.0322 193.168C78.7068 193.168 79.3192 193.282 79.8692 193.509C80.4192 193.736 80.8812 194.066 81.2552 194.499L80.1112 195.555C79.5612 194.976 78.8975 194.686 78.1202 194.686C77.6288 194.686 77.1925 194.789 76.8112 194.994C76.4298 195.199 76.1328 195.489 75.9202 195.863C75.7075 196.237 75.6012 196.666 75.6012 197.15C75.6012 197.627 75.7075 198.052 75.9202 198.426C76.1328 198.8 76.4262 199.093 76.8002 199.306C77.1815 199.511 77.6142 199.614 78.0982 199.614C78.6115 199.614 79.0735 199.504 79.4842 199.284V197.029ZM88.7295 199.57V201H82.7675V193.3H88.5865V194.73H84.5385V196.402H88.1135V197.788H84.5385V199.57H88.7295ZM90.1474 193.3H93.6454C94.4814 193.3 95.2184 193.461 95.8564 193.784C96.5017 194.099 97.0004 194.547 97.3524 195.126C97.7117 195.705 97.8914 196.38 97.8914 197.15C97.8914 197.92 97.7117 198.595 97.3524 199.174C97.0004 199.753 96.5017 200.204 95.8564 200.527C95.2184 200.842 94.4814 201 93.6454 201H90.1474V193.3ZM93.5574 199.537C94.3274 199.537 94.9397 199.324 95.3944 198.899C95.8564 198.466 96.0874 197.883 96.0874 197.15C96.0874 196.417 95.8564 195.837 95.3944 195.412C94.9397 194.979 94.3274 194.763 93.5574 194.763H91.9294V199.537H93.5574ZM109.358 201L109.347 196.38L107.081 200.186H106.278L104.023 196.479V201H102.351V193.3H103.825L106.707 198.085L109.545 193.3H111.008L111.03 201H109.358ZM117.927 199.35H114.352L113.67 201H111.844L115.276 193.3H117.036L120.479 201H118.609L117.927 199.35ZM117.366 197.997L116.145 195.049L114.924 197.997H117.366ZM128.34 193.3V201H126.877L123.038 196.325V201H121.278V193.3H122.752L126.58 197.975V193.3H128.34Z" fill="#534100"/>
<path d="M118 83C113 133 99.4198 133 76.5 133C53.5802 133 32.5 126 35 83C35 55.3858 37.5 33 76.5 33C113.5 33 118 55.3858 118 83Z" fill="url(#paint1_linear_13_864)"/>
<ellipse cx="58.5" cy="83" rx="12.5" ry="16" fill="url(#paint2_linear_13_864)"/>
<ellipse cx="92.5" cy="82" rx="12.5" ry="16" fill="url(#paint3_linear_13_864)"/>
<ellipse cx="60" cy="81.5" rx="9" ry="11.5" fill="#363636"/>
<ellipse cx="91" cy="81.5" rx="9" ry="11.5" fill="#363636"/>
<path d="M54 56C64.6027 42.9464 86.6329 43.6492 97 52.4855" stroke="#58561F" stroke-width="2" stroke-linecap="round"/>
<path d="M54.5 50.5C56.3333 51.5 60.1 54 60.5 56" stroke="#58561F" stroke-width="2" stroke-linecap="round"/>
<path d="M58.931 47C60.5686 48.2959 63.8577 51.3974 63.9134 53.4362" stroke="#58561F" stroke-width="2" stroke-linecap="round"/>
<path d="M66 43C67.3372 44.604 68.9431 49.3139 68.5797 51.3208" stroke="#58561F" stroke-width="2" stroke-linecap="round"/>
<path d="M72.8564 41.5C72.8564 44.5 73.7072 48.1216 72.8564 49.9753" stroke="#58561F" stroke-width="2" stroke-linecap="round"/>
<path d="M79 41C78.5186 43.1667 78.0379 47.2 78.5 50" stroke="#58561F" stroke-width="2" stroke-linecap="round"/>
<path d="M86 42C84.5991 44.1667 83.1999 48.2 84.5448 51" stroke="#58561F" stroke-width="2" stroke-linecap="round"/>
<path d="M93.3878 45.3699C91.9056 46.9394 90.0228 50.0847 90.395 52.6966" stroke="#58561F" stroke-width="2" stroke-linecap="round"/>
<path d="M17 148V152C18.6667 153 22 156.5 25 161L22.5 163L23.5 164.5L26 163L27.5 165L30 163L28.5 161.5L30 159.5L28.5 158L27 159.5C23 155 21 150.5 21 149L17 148Z" fill="url(#paint4_linear_13_864)"/>
<path d="M39.588 157.53C40.692 157.71 41.538 158.124 42.126 158.772C42.714 159.408 43.008 160.2 43.008 161.148C43.008 161.88 42.816 162.558 42.432 163.182C42.048 163.794 41.46 164.286 40.668 164.658C39.888 165.03 38.928 165.216 37.788 165.216C36.9 165.216 36.024 165.102 35.16 164.874C34.308 164.634 33.582 164.298 32.982 163.866L34.116 161.634C34.596 161.994 35.148 162.276 35.772 162.48C36.408 162.672 37.056 162.768 37.716 162.768C38.448 162.768 39.024 162.63 39.444 162.354C39.864 162.066 40.074 161.664 40.074 161.148C40.074 160.116 39.288 159.6 37.716 159.6H36.384V157.674L38.976 154.74H33.612V152.4H42.432V154.29L39.588 157.53Z" fill="url(#paint5_linear_13_864)"/>
<path d="M128.562 152.4V165H125.646V154.74H123.126V152.4H128.562Z" fill="url(#paint6_linear_13_864)"/>
<path d="M111.23 165C108.297 162.757 102.355 157.562 102.049 154.729C101.666 151.188 103.579 148 105.874 148C108.169 148 110.082 150.479 110.465 151.896C110.847 150.448 112.454 148 114.29 148C116.585 148 119.645 150.125 118.88 154.729C118.268 158.412 113.525 163.111 111.23 165Z" fill="url(#paint7_linear_13_864)"/>
<path d="M76.058 164C73.8153 162.285 69.2715 158.313 69.0375 156.146C68.7449 153.438 70.2075 151 71.9627 151C73.7178 151 75.1804 152.896 75.4729 153.979C75.7654 152.872 76.994 151 78.3981 151C80.1532 151 82.4934 152.625 81.9084 156.146C81.4403 158.963 77.8131 162.556 76.058 164Z" fill="url(#paint8_linear_13_864)"/>
<path d="M75 168L70.9002 163.935L69.4296 169.518L75 168ZM73.9585 146.002C68.3745 146.467 64.9665 150.652 64.219 155.257C63.4718 159.859 65.367 164.969 70.4404 167.308L70.8592 166.4C66.2624 164.28 64.5179 159.656 65.206 155.417C65.8938 151.181 68.9959 147.419 74.0415 146.998L73.9585 146.002Z" fill="url(#paint9_linear_13_864)"/>
<path d="M77.0538 147L82.6383 145.535L81.1148 151.104L77.0538 147ZM81.6232 147.743C86.0486 150.003 88.1147 154.862 87.3402 159.316C86.5584 163.812 82.9034 167.84 76.0477 168.498L75.9523 167.502C82.3988 166.884 85.6569 163.16 86.355 159.145C87.0604 155.089 85.1732 150.679 81.1682 148.633L81.6232 147.743Z" fill="url(#paint10_linear_13_864)"/>
<defs>
<linearGradient id="paint0_linear_13_864" x1="75" y1="184.5" x2="75" y2="210" gradientUnits="userSpaceOnUse">
<stop stop-color="#B4A34E"/>
<stop offset="1" stop-color="#58561F"/>
</linearGradient>
<linearGradient id="paint1_linear_13_864" x1="76.3989" y1="33" x2="76.3989" y2="133" gradientUnits="userSpaceOnUse">
<stop stop-color="#B4A34E"/>
<stop offset="1" stop-color="#58561F"/>
</linearGradient>
<linearGradient id="paint2_linear_13_864" x1="58.5" y1="67" x2="58.5" y2="99" gradientUnits="userSpaceOnUse">
<stop stop-color="#58561F"/>
<stop offset="1" stop-color="#B4A34E"/>
</linearGradient>
<linearGradient id="paint3_linear_13_864" x1="92.5" y1="66" x2="92.5" y2="98" gradientUnits="userSpaceOnUse">
<stop stop-color="#58561F"/>
<stop offset="1" stop-color="#B4A34E"/>
</linearGradient>
<linearGradient id="paint4_linear_13_864" x1="24.25" y1="147" x2="24.25" y2="165" gradientUnits="userSpaceOnUse">
<stop stop-color="#B4A34E"/>
<stop offset="1" stop-color="#58561F"/>
</linearGradient>
<linearGradient id="paint5_linear_13_864" x1="38.5" y1="148" x2="38.5" y2="170" gradientUnits="userSpaceOnUse">
<stop stop-color="#B4A34E"/>
<stop offset="1" stop-color="#58561F"/>
</linearGradient>
<linearGradient id="paint6_linear_13_864" x1="127" y1="148" x2="127" y2="170" gradientUnits="userSpaceOnUse">
<stop stop-color="#B4A34E"/>
<stop offset="1" stop-color="#58561F"/>
</linearGradient>
<linearGradient id="paint7_linear_13_864" x1="110.871" y1="147.969" x2="110.871" y2="164.969" gradientUnits="userSpaceOnUse">
<stop stop-color="#B4A34E"/>
<stop offset="1" stop-color="#58561F"/>
</linearGradient>
<linearGradient id="paint8_linear_13_864" x1="75.7835" y1="150.976" x2="75.7835" y2="163.976" gradientUnits="userSpaceOnUse">
<stop stop-color="#B4A34E"/>
<stop offset="1" stop-color="#58561F"/>
</linearGradient>
<linearGradient id="paint9_linear_13_864" x1="70.2703" y1="144" x2="70.2703" y2="168.578" gradientUnits="userSpaceOnUse">
<stop stop-color="#B4A34E"/>
<stop offset="1" stop-color="#58561F"/>
</linearGradient>
<linearGradient id="paint10_linear_13_864" x1="80.9842" y1="144.558" x2="80.9842" y2="168.565" gradientUnits="userSpaceOnUse">
<stop stop-color="#B4A34E"/>
<stop offset="1" stop-color="#58561F"/>
</linearGradient>
</defs>
</svg>
