<svg width="150" height="225" viewBox="0 0 150 225" fill="none" xmlns="http://www.w3.org/2000/svg">
<path d="M0 7C0 3.13401 3.13401 0 7 0H143C146.866 0 150 3.13401 150 7V218C150 221.866 146.866 225 143 225H7C3.13401 225 0 221.866 0 218V7Z" fill="#363636"/>
<rect x="16.5" y="184.5" width="117" height="25.5" rx="8.5" fill="url(#paint0_linear_13_770)"/>
<path d="M32.192 195.048H29.056V193.2H37.596V195.048H34.46V203H32.192V195.048ZM47.8043 193.2V203H45.5363V198.982H41.0843V203H38.8163V193.2H41.0843V197.064H45.5363V193.2H47.8043ZM57.7109 201.18V203H50.1229V193.2H57.5289V195.02H52.3769V197.148H56.9269V198.912H52.3769V201.18H57.7109ZM72.4684 193.2V203H70.2004V198.982H65.7484V203H63.4804V193.2H65.7484V197.064H70.2004V193.2H72.4684ZM82.375 201.18V203H74.787V193.2H82.193V195.02H77.041V197.148H81.591V198.912H77.041V201.18H82.375ZM90.4236 203L88.5336 200.27H88.4216H86.4476V203H84.1796V193.2H88.4216C89.2896 193.2 90.0409 193.345 90.6756 193.634C91.3196 193.923 91.8142 194.334 92.1596 194.866C92.5049 195.398 92.6776 196.028 92.6776 196.756C92.6776 197.484 92.5002 198.114 92.1456 198.646C91.8002 199.169 91.3056 199.57 90.6616 199.85L92.8596 203H90.4236ZM90.3816 196.756C90.3816 196.205 90.2042 195.785 89.8496 195.496C89.4949 195.197 88.9769 195.048 88.2956 195.048H86.4476V198.464H88.2956C88.9769 198.464 89.4949 198.315 89.8496 198.016C90.2042 197.717 90.3816 197.297 90.3816 196.756ZM103.393 203L103.379 197.12L100.495 201.964H99.4725L96.6025 197.246V203H94.4745V193.2H96.3505L100.019 199.29L103.631 193.2H105.493L105.521 203H103.393ZM107.846 193.2H110.114V203H107.846V193.2ZM114.469 195.048H111.333V193.2H119.873V195.048H116.737V203H114.469V195.048Z" fill="#534100"/>
<path d="M117.716 39.291C124.327 71.6075 115.146 72.7092 99.722 56.5509C87.9586 56.5509 67.4055 49.7331 67.4055 42.2289C67.4055 34.7246 69.7351 31.2119 76.724 29.3757C101.558 26.4379 114.044 27.5396 117.716 39.291Z" fill="url(#paint1_linear_13_770)"/>
<path d="M112.076 49.6278C123.668 55.208 99.7743 66.8334 84.5995 66.8334C69.4247 66.8334 57.123 59.1302 57.123 49.6278C57.123 40.1253 60.1283 35.6772 69.144 33.3521C109.071 27.3068 95.3325 49.6278 112.076 49.6278Z" fill="url(#paint2_linear_13_770)"/>
<path d="M100.824 77.116C100.824 94.1526 90.1741 104.658 72.1797 107.963C56.36 107.963 53.4508 88.6441 53.4508 71.6075C55.6542 60.5905 52.78 37.5469 68.1401 47.3702C99.722 67.5679 98.6203 50.6753 100.824 77.116Z" fill="url(#paint3_linear_13_770)"/>
<path d="M58.9737 84.3009C57.2656 83.7667 53.9777 83.9163 54.4901 88.7888C55.1306 94.8796 49.366 95.2002 49.0457 93.9179C48.7255 92.6356 40.0785 92.3151 41.0393 96.4824C43.3879 95.0933 47.3163 94.4949 44.2419 103.214C46.9107 101.932 51.5437 100.714 48.7255 106.099C45.9072 111.485 43.7081 109.412 42.9609 107.702C42.3203 111.122 42.5765 118.089 48.7255 118.601C56.4116 119.243 47.7647 128.218 44.8824 122.448C44.4554 126.616 45.7791 133.476 54.4901 127.577C63.2011 121.679 59.6142 126.188 56.7319 129.18C55.4509 130.569 54.2339 132.77 59.6142 130.462C59.7209 133.241 61.0874 137.899 65.6991 134.309C71.4637 129.821 66.9801 124.372 73.7055 128.218C80.4309 132.065 76.5878 134.309 75.627 134.63C74.6663 134.95 82.3524 138.797 84.2739 131.103C86.1955 123.41 91.3196 127.898 90.3588 131.103C94.4154 128.005 100.863 120.397 94.2019 114.755C87.5406 109.113 93.7749 110.694 97.7247 112.19C100.927 110.587 106.115 107.061 101.248 105.779C103.062 103.962 105.411 100.457 100.287 100.97C101.675 97.7647 102.721 91.9945 95.8032 94.559C88.8856 97.1236 92.2804 92.6356 94.8424 90.0711C92.7074 91.1397 88.1811 92.5074 87.1563 89.43C85.8752 85.5832 89.7183 82.3775 83.9537 84.9421C78.1891 87.5066 69.5421 88.7889 69.5421 84.9421C69.5421 81.0953 70.5029 81.0953 66.0193 82.057C62.4325 82.8263 61.7492 84.3009 61.856 84.9421C60.8952 85.9038 58.9737 87.1219 58.9737 84.3009Z" fill="url(#paint4_linear_13_770)"/>
<path d="M60.0609 70.873C67.4056 79.6866 90.3208 75.0594 98.2531 68.3024C101.925 65.1741 101.803 73.3212 100.089 78.5849C92.867 81.89 68.8745 89.9691 60.0609 70.873Z" fill="url(#paint5_linear_13_770)"/>
<path d="M69.2417 76.3815C69.2417 83.6829 66.4358 81.89 61.1626 81.89C55.8893 81.89 45.3716 91.3948 45.3716 84.0934C45.3716 76.792 54.4204 63.1611 59.6936 63.1611C62.7708 63.1611 57.9968 76.3815 69.2417 76.3815Z" fill="url(#paint6_linear_13_770)"/>
<path d="M58.8778 58.0757C61.5357 55.2579 69.2598 50.7553 72.311 52.0043C75.3622 53.2533 76.3656 57.3221 76.2637 58.1994C72.5261 55.9802 65.2812 55.6883 59.9709 60.1313C59.0639 60.2962 57.8705 59.8689 58.8778 58.0757Z" fill="url(#paint7_linear_13_770)"/>
<path d="M60.7954 64.943C69.007 74.0455 87.206 70.891 89.0723 58.7543L75.1175 55.082C75.1175 60.1389 73.0381 69.1909 60.7954 64.943Z" fill="url(#paint8_linear_13_770)"/>
<path d="M80.5748 59.9369C80.6249 60.9498 76.2757 62.3558 70.8064 62.6265C65.337 62.8972 60.8626 62.2956 60.8124 61.2827C60.6672 58.3485 65.1555 59.2294 70.6248 58.9587C76.0942 58.688 80.8292 57.6492 80.5748 59.9369Z" fill="url(#paint9_linear_13_770)"/>
<path d="M54.1225 59.926C53.9354 60.7207 54.6347 61.8689 55.7747 62.1373C56.9146 62.4056 57.9904 61.9789 58.1774 61.1842C58.7194 58.882 57.592 59.5278 56.4521 59.2595C55.3121 58.9911 54.4652 58.1273 54.1225 59.926Z" fill="url(#paint10_linear_13_770)"/>
<path d="M54.5523 56.9182C53.9403 54.2251 54.5748 49.1627 59.3263 47.0029C67.4055 43.3306 81.7276 61.6923 96.0496 59.4889" stroke="url(#paint11_linear_13_770)" stroke-width="5" stroke-linecap="round"/>
<path d="M61.5298 62.8337C61.5676 64.147 62.5465 65.6021 63.9972 66.4897C65.4478 67.3773 67.394 67.8434 69.4077 67.7853C71.4214 67.7273 73.3375 67.15 74.7347 66.1803C76.1318 65.2107 76.8954 63.9282 76.8576 62.6149L69.265 62.8337L64.8323 62.9472L61.5298 62.8337Z" fill="#363636"/>
<path d="M54.5469 61.6922C54.4551 62.2654 54.5499 62.9442 54.7868 63.3979C55.0237 63.8516 55.3966 64.1448 55.8234 64.2132C56.2502 64.2816 56.6961 64.1194 57.0628 63.7624C57.4295 63.4054 57.6871 62.8828 57.7789 62.3095L56.1696 62.0518L55.231 61.8951L54.5469 61.6922Z" fill="#363636"/>
<path d="M57.4549 58.1153C57.9354 55.0918 60.9032 48.683 63.3659 48.1046C65.8287 47.5261 68.1977 49.6958 68.5072 50.3079C65.1966 50.5719 60.4885 53.6702 59.0226 58.9456C58.519 59.4634 57.5819 59.7291 57.4549 58.1153Z" fill="url(#paint12_linear_13_770)"/>
<path d="M108.869 73.8108C108.869 80.5038 105.088 81.8899 100.423 81.8899C95.758 81.8899 97.1178 76.097 97.1178 69.404C97.1178 62.7111 93.9218 59.4888 98.5866 59.4888C104.462 59.4888 108.869 67.1179 108.869 73.8108Z" fill="url(#paint13_linear_13_770)"/>
<path d="M54.5524 84.0934C53.0835 84.2158 49.9253 85.3419 49.0439 88.8674C47.9422 93.2742 42.4337 91.0708 41.332 88.8674C40.2303 86.664 39.8631 84.0934 41.332 84.0934C42.801 84.0934 42.0665 82.2572 40.9648 82.6244C40.108 82.7468 38.5411 83.7996 39.1287 87.0312C39.8631 91.0708 42.4337 93.6414 45.0044 94.0086C47.575 94.3759 50.5129 94.7431 53.0835 90.7035C53.6955 88.9898 55.2869 85.6357 56.7558 85.9295C58.592 86.2967 57.123 83.2367 54.5524 84.0934Z" fill="url(#paint14_linear_13_770)"/>
<path d="M68.5072 82.6244C71.0778 80.421 76.2191 77.4831 81.3603 80.0538C86.5016 82.6244 88.705 85.195 92.3773 82.6244C96.0496 80.0538 96.4168 81.1554 96.0496 82.6244C95.6824 84.0933 87.6033 88.5001 84.2982 86.664C80.9931 84.8278 75.1174 82.6244 69.2416 87.0312C63.3659 91.438 59.3264 88.1329 58.9591 86.664C58.5919 85.195 58.2247 81.8899 60.7953 82.6244C62.5091 83.3588 66.4507 84.3871 68.5072 82.6244Z" fill="url(#paint15_linear_13_770)"/>
<path d="M16 148V152C17.6667 153 21 156.5 24 161L21.5 163L22.5 164.5L25 163L26.5 165L29 163L27.5 161.5L29 159.5L27.5 158L26 159.5C22 155 20 150.5 20 149L16 148Z" fill="url(#paint16_linear_13_770)"/>
<path d="M37.562 152.4V165H34.646V154.74H32.126V152.4H37.562Z" fill="url(#paint17_linear_13_770)"/>
<path d="M128.588 157.53C129.692 157.71 130.538 158.124 131.126 158.772C131.714 159.408 132.008 160.2 132.008 161.148C132.008 161.88 131.816 162.558 131.432 163.182C131.048 163.794 130.46 164.286 129.668 164.658C128.888 165.03 127.928 165.216 126.788 165.216C125.9 165.216 125.024 165.102 124.16 164.874C123.308 164.634 122.582 164.298 121.982 163.866L123.116 161.634C123.596 161.994 124.148 162.276 124.772 162.48C125.408 162.672 126.056 162.768 126.716 162.768C127.448 162.768 128.024 162.63 128.444 162.354C128.864 162.066 129.074 161.664 129.074 161.148C129.074 160.116 128.288 159.6 126.716 159.6H125.384V157.674L127.976 154.74H122.612V152.4H131.432V154.29L128.588 157.53Z" fill="url(#paint18_linear_13_770)"/>
<path d="M110.23 165C107.297 162.757 101.355 157.562 101.049 154.729C100.666 151.187 102.579 148 104.874 148C107.169 148 109.082 150.479 109.465 151.896C109.847 150.448 111.454 148 113.29 148C115.585 148 118.645 150.125 117.88 154.729C117.268 158.412 112.525 163.111 110.23 165Z" fill="url(#paint19_linear_13_770)"/>
<defs>
<linearGradient id="paint0_linear_13_770" x1="75" y1="184.5" x2="75" y2="210" gradientUnits="userSpaceOnUse">
<stop stop-color="#B4A34E"/>
<stop offset="1" stop-color="#58561F"/>
</linearGradient>
<linearGradient id="paint1_linear_13_770" x1="88.705" y1="29.3757" x2="88.705" y2="55.8165" gradientUnits="userSpaceOnUse">
<stop stop-color="#B4A34E"/>
<stop offset="1" stop-color="#58561F"/>
</linearGradient>
<linearGradient id="paint2_linear_13_770" x1="86.1344" y1="33.3521" x2="86.1344" y2="66.8334" gradientUnits="userSpaceOnUse">
<stop stop-color="#B4A34E"/>
<stop offset="1" stop-color="#58561F"/>
</linearGradient>
<linearGradient id="paint3_linear_13_770" x1="76.5864" y1="46.2684" x2="76.5864" y2="107.963" gradientUnits="userSpaceOnUse">
<stop stop-color="#B4A34E"/>
<stop offset="1" stop-color="#58561F"/>
</linearGradient>
<linearGradient id="paint4_linear_13_770" x1="72.1796" y1="81.5227" x2="72.1796" y2="135.873" gradientUnits="userSpaceOnUse">
<stop stop-color="#B4A34E"/>
<stop offset="1" stop-color="#58561F"/>
</linearGradient>
<linearGradient id="paint5_linear_13_770" x1="81.6655" y1="67.5679" x2="81.6655" y2="80.9674" gradientUnits="userSpaceOnUse">
<stop stop-color="#B4A34E"/>
<stop offset="1" stop-color="#58561F"/>
</linearGradient>
<linearGradient id="paint6_linear_13_770" x1="57.3066" y1="63.1611" x2="57.3066" y2="86.8515" gradientUnits="userSpaceOnUse">
<stop stop-color="#B4A34E"/>
<stop offset="1" stop-color="#58561F"/>
</linearGradient>
<linearGradient id="paint7_linear_13_770" x1="72.6884" y1="53.7761" x2="60.8966" y2="63.642" gradientUnits="userSpaceOnUse">
<stop stop-color="#58561F"/>
<stop offset="1" stop-color="#B4A34E"/>
</linearGradient>
<linearGradient id="paint8_linear_13_770" x1="72.3632" y1="55.082" x2="72.3632" y2="70.3215" gradientUnits="userSpaceOnUse">
<stop stop-color="#58561F"/>
<stop offset="1" stop-color="#B4A34E"/>
</linearGradient>
<linearGradient id="paint9_linear_13_770" x1="70.6118" y1="58.7567" x2="70.8034" y2="62.6266" gradientUnits="userSpaceOnUse">
<stop stop-color="#B4A34E"/>
<stop offset="1" stop-color="#58561F"/>
</linearGradient>
<linearGradient id="paint10_linear_13_770" x1="56.49" y1="59.101" x2="55.7753" y2="62.1374" gradientUnits="userSpaceOnUse">
<stop stop-color="#B4A34E"/>
<stop offset="1" stop-color="#58561F"/>
</linearGradient>
<linearGradient id="paint11_linear_13_770" x1="75.1559" y1="46.1569" x2="75.1559" y2="59.6697" gradientUnits="userSpaceOnUse">
<stop stop-color="#B4A34E"/>
<stop offset="1" stop-color="#58561F"/>
</linearGradient>
<linearGradient id="paint12_linear_13_770" x1="64.3599" y1="49.0763" x2="61.1046" y2="60.7904" gradientUnits="userSpaceOnUse">
<stop stop-color="#58561F"/>
<stop offset="1" stop-color="#B4A34E"/>
</linearGradient>
<linearGradient id="paint13_linear_13_770" x1="102.459" y1="59.4888" x2="102.459" y2="81.8899" gradientUnits="userSpaceOnUse">
<stop stop-color="#B4A34E"/>
<stop offset="1" stop-color="#58561F"/>
</linearGradient>
<linearGradient id="paint14_linear_13_770" x1="48.2881" y1="82.5759" x2="48.2881" y2="94.2206" gradientUnits="userSpaceOnUse">
<stop stop-color="#B4A34E"/>
<stop offset="1" stop-color="#58561F"/>
</linearGradient>
<linearGradient id="paint15_linear_13_770" x1="72.1795" y1="77.1159" x2="76.2191" y2="88.8674" gradientUnits="userSpaceOnUse">
<stop stop-color="#B4A34E"/>
<stop offset="0.873129" stop-color="#58561F"/>
</linearGradient>
<linearGradient id="paint16_linear_13_770" x1="23.25" y1="147" x2="23.25" y2="165" gradientUnits="userSpaceOnUse">
<stop stop-color="#B4A34E"/>
<stop offset="1" stop-color="#58561F"/>
</linearGradient>
<linearGradient id="paint17_linear_13_770" x1="36" y1="148" x2="36" y2="170" gradientUnits="userSpaceOnUse">
<stop stop-color="#B4A34E"/>
<stop offset="1" stop-color="#58561F"/>
</linearGradient>
<linearGradient id="paint18_linear_13_770" x1="127.5" y1="148" x2="127.5" y2="170" gradientUnits="userSpaceOnUse">
<stop stop-color="#B4A34E"/>
<stop offset="1" stop-color="#58561F"/>
</linearGradient>
<linearGradient id="paint19_linear_13_770" x1="109.871" y1="147.969" x2="109.871" y2="164.969" gradientUnits="userSpaceOnUse">
<stop stop-color="#B4A34E"/>
<stop offset="1" stop-color="#58561F"/>
</linearGradient>
</defs>
</svg>
