<svg width="150" height="225" viewBox="0 0 150 225" fill="none" xmlns="http://www.w3.org/2000/svg">
<path d="M0 7C0 3.13401 3.13401 0 7 0H143C146.866 0 150 3.13401 150 7V218C150 221.866 146.866 225 143 225H7C3.13401 225 0 221.866 0 218V7Z" fill="#363636"/>
<rect x="16.5" y="184.5" width="117" height="25.5" rx="8.5" fill="url(#paint0_linear_9_337)"/>
<path d="M26.28 195.32H24.04V194H30.14V195.32H27.9V201H26.28V195.32ZM37.4316 194V201H35.8116V198.13H32.6316V201H31.0116V194H32.6316V196.76H35.8116V194H37.4316ZM44.5078 199.7V201H39.0878V194H44.3778V195.3H40.6978V196.82H43.9478V198.08H40.6978V199.7H44.5078ZM57.8809 194V201H56.2609V198.13H53.0809V201H51.4609V194H53.0809V196.76H56.2609V194H57.8809ZM59.537 194H61.157V201H59.537V194ZM68.2383 199.7V201H62.8183V194H68.1083V195.3H64.4283V196.82H67.6783V198.08H64.4283V199.7H68.2383ZM73.9873 201L72.6373 199.05H72.5573H71.1473V201H69.5273V194H72.5573C73.1773 194 73.7139 194.103 74.1673 194.31C74.6273 194.517 74.9806 194.81 75.2273 195.19C75.4739 195.57 75.5973 196.02 75.5973 196.54C75.5973 197.06 75.4706 197.51 75.2173 197.89C74.9706 198.263 74.6173 198.55 74.1573 198.75L75.7273 201H73.9873ZM73.9573 196.54C73.9573 196.147 73.8306 195.847 73.5773 195.64C73.3239 195.427 72.9539 195.32 72.4673 195.32H71.1473V197.76H72.4673C72.9539 197.76 73.3239 197.653 73.5773 197.44C73.8306 197.227 73.9573 196.927 73.9573 196.54ZM80.2708 201.12C79.5441 201.12 78.8874 200.963 78.3008 200.65C77.7208 200.337 77.2641 199.907 76.9308 199.36C76.6041 198.807 76.4408 198.187 76.4408 197.5C76.4408 196.813 76.6041 196.197 76.9308 195.65C77.2641 195.097 77.7208 194.663 78.3008 194.35C78.8874 194.037 79.5441 193.88 80.2708 193.88C80.9974 193.88 81.6508 194.037 82.2308 194.35C82.8108 194.663 83.2674 195.097 83.6008 195.65C83.9341 196.197 84.1008 196.813 84.1008 197.5C84.1008 198.187 83.9341 198.807 83.6008 199.36C83.2674 199.907 82.8108 200.337 82.2308 200.65C81.6508 200.963 80.9974 201.12 80.2708 201.12ZM80.2708 199.74C80.6841 199.74 81.0574 199.647 81.3908 199.46C81.7241 199.267 81.9841 199 82.1708 198.66C82.3641 198.32 82.4608 197.933 82.4608 197.5C82.4608 197.067 82.3641 196.68 82.1708 196.34C81.9841 196 81.7241 195.737 81.3908 195.55C81.0574 195.357 80.6841 195.26 80.2708 195.26C79.8574 195.26 79.4841 195.357 79.1508 195.55C78.8174 195.737 78.5541 196 78.3608 196.34C78.1741 196.68 78.0808 197.067 78.0808 197.5C78.0808 197.933 78.1741 198.32 78.3608 198.66C78.5541 199 78.8174 199.267 79.1508 199.46C79.4841 199.647 79.8574 199.74 80.2708 199.74ZM88.3483 194C88.9683 194 89.5049 194.103 89.9583 194.31C90.4183 194.517 90.7716 194.81 91.0183 195.19C91.2649 195.57 91.3883 196.02 91.3883 196.54C91.3883 197.053 91.2649 197.503 91.0183 197.89C90.7716 198.27 90.4183 198.563 89.9583 198.77C89.5049 198.97 88.9683 199.07 88.3483 199.07H86.9383V201H85.3183V194H88.3483ZM88.2583 197.75C88.7449 197.75 89.1149 197.647 89.3683 197.44C89.6216 197.227 89.7483 196.927 89.7483 196.54C89.7483 196.147 89.6216 195.847 89.3683 195.64C89.1149 195.427 88.7449 195.32 88.2583 195.32H86.9383V197.75H88.2583ZM98.9648 194V201H97.3448V198.13H94.1648V201H92.5448V194H94.1648V196.76H97.3448V194H98.9648ZM105.231 199.5H101.981L101.361 201H99.701L102.821 194H104.421L107.551 201H105.851L105.231 199.5ZM104.721 198.27L103.611 195.59L102.501 198.27H104.721ZM114.697 194V201H113.367L109.877 196.75V201H108.277V194H109.617L113.097 198.25V194H114.697ZM117.803 195.32H115.563V194H121.663V195.32H119.423V201H117.803V195.32Z" fill="#534100"/>
<path d="M96.808 85.8867C96.808 114.949 92.2065 127.228 87.3078 127.228C64.5639 127.228 59.1502 118.223 57.1036 85.8867C57.1036 67.246 66.1191 53.5502 79.2599 53.5502C92.4008 53.5502 96.808 67.246 96.808 85.8867Z" fill="url(#paint1_linear_9_337)"/>
<path d="M96.808 76.0629C96.808 76.0629 90.1558 74.835 80.4351 74.835C70.7144 74.835 58.3316 75.2443 58.3316 75.2443C61.1969 60.918 69.4864 53.1408 79.2071 53.1408C88.9278 53.1408 94.7614 61.3273 96.808 76.0629Z" fill="url(#paint2_linear_9_337)"/>
<path d="M80.8444 74.3885C79.862 78.4073 75.4124 79.7469 70.5294 79.7469C65.6465 79.7469 60.2145 78.0724 58.7409 74.3885C60.7057 72.714 65.6465 72.3791 70.5294 72.3791C75.4124 72.3791 80.8444 72.3539 80.8444 74.3885Z" fill="url(#paint3_linear_9_337)"/>
<path d="M97.2173 74.3885C96.526 78.4073 93.3948 79.7469 89.9587 79.7469C86.5225 79.7469 82.7 78.0724 81.663 74.3885C83.0456 72.714 86.5225 72.3791 89.9587 72.3791C93.3948 72.3791 97.2173 72.3539 97.2173 74.3885Z" fill="url(#paint4_linear_9_337)"/>
<path d="M85.7563 97.4297C85.7563 100.661 83.5571 106.762 80.8444 106.762C78.1316 106.762 75.9325 101.064 75.9325 96.2181C80.8444 87.7369 78.1316 73.1977 80.8444 73.1977C83.5571 73.1977 82.3179 87.333 85.7563 97.4297Z" fill="url(#paint5_linear_9_337)"/>
<path d="M77.5698 74.8662C77.5698 75.9857 74.5304 78.1096 70.7811 78.1096C67.0317 78.1096 63.6528 75.9857 63.6528 74.8662C63.6528 73.7467 67.0317 74.0554 70.7811 74.0554C74.5304 74.0554 77.5698 74.8662 77.5698 74.8662Z" fill="#363636"/>
<path d="M95.5997 74.666C95.6462 75.5218 93.4138 77.2716 90.5509 77.4274C87.6879 77.5833 85.0196 76.1002 84.973 75.2444C84.9264 74.3886 87.5193 74.4841 90.3822 74.3283C93.2451 74.1725 95.5997 74.666 95.5997 74.666Z" fill="#363636"/>
<path d="M69.3833 116.995C73.613 115.358 83.1366 113.066 87.3935 116.995" stroke="#B4A34E" stroke-linecap="round"/>
<path d="M114 131.628C103.358 123.464 106.265 102.796 106.222 92.436C106.18 82.0758 110.483 65.5795 105.404 57.2341C100.325 48.8886 85.7563 51.0942 85.7563 51.0942C85.7563 51.0942 77.5698 51.0943 66.9274 51.0942C66.9274 51.0942 47.3448 48.7994 42.368 57.2341C37.3911 65.6687 34.9188 83.6446 35.002 94.0043C35.0852 104.364 36.23 111.49 42.995 122.742C42.5321 132.172 35.002 143.601 35.002 143.601C43.1885 140.336 52.192 132.658 59.1503 124.008C66.1087 115.358 55.4664 93.2858 59.1503 82.6436C61.3564 76.2708 64.8809 70.1427 68.5648 66.8685C72.2488 63.5943 73.8861 63.05 83.3006 63.5943C92.3057 66.8685 92.6803 70.8027 95.5803 75.5682C97.627 82.0994 95.9654 115.371 95.9897 121.286C96.014 127.202 105.404 134.893 114 131.628Z" fill="url(#paint6_angular_9_337)"/>
<path d="M39.2737 39.2687H113.966C102.589 43.7614 99.1268 54.2449 99.1268 54.2449L93.6856 56.7407L87.2551 57.7391L80.8246 58.2383H73.8995L66.4797 57.2399L59.0599 56.2415L52.6294 54.2449C52.6294 54.2449 49.6615 44.2609 39.2737 39.2687Z" fill="url(#paint7_linear_9_337)"/>
<path d="M39.2737 39.2687H113.966C102.589 36.525 99.1268 30.1227 99.1268 30.1227L87.9222 28.5984H66.7921L52.6294 30.1227C52.6294 30.1227 49.6615 36.22 39.2737 39.2687Z" fill="url(#paint8_linear_9_337)"/>
<path d="M75.3103 20.2992H77.6815L80.0527 28.5984H72.9391L75.3103 20.2992Z" fill="url(#paint9_linear_9_337)"/>
<circle cx="76.4959" cy="16.7424" r="4.74239" fill="url(#paint10_radial_9_337)"/>
<path d="M52.7839 54.0887C65.8255 60.6095 92.8571 57.8827 99.0222 54.0887" stroke="url(#paint11_radial_9_337)" stroke-width="3" stroke-linecap="round"/>
<path d="M16 148V152C17.6667 153 21 156.5 24 161L21.5 163L22.5 164.5L25 163L26.5 165L29 163L27.5 161.5L29 159.5L27.5 158L26 159.5C22 155 20 150.5 20 149L16 148Z" fill="url(#paint12_linear_9_337)"/>
<path d="M37.562 152.4V165H34.646V154.74H32.126V152.4H37.562Z" fill="url(#paint13_linear_9_337)"/>
<path d="M128.588 157.53C129.692 157.71 130.538 158.124 131.126 158.772C131.714 159.408 132.008 160.2 132.008 161.148C132.008 161.88 131.816 162.558 131.432 163.182C131.048 163.794 130.46 164.286 129.668 164.658C128.888 165.03 127.928 165.216 126.788 165.216C125.9 165.216 125.024 165.102 124.16 164.874C123.308 164.634 122.582 164.298 121.982 163.866L123.116 161.634C123.596 161.994 124.148 162.276 124.772 162.48C125.408 162.672 126.056 162.768 126.716 162.768C127.448 162.768 128.024 162.63 128.444 162.354C128.864 162.066 129.074 161.664 129.074 161.148C129.074 160.116 128.288 159.6 126.716 159.6H125.384V157.674L127.976 154.74H122.612V152.4H131.432V154.29L128.588 157.53Z" fill="url(#paint14_linear_9_337)"/>
<path d="M110.23 165C107.297 162.757 101.355 157.562 101.049 154.729C100.666 151.187 102.579 148 104.874 148C107.169 148 109.082 150.479 109.465 151.896C109.847 150.448 111.454 148 113.29 148C115.585 148 118.645 150.125 117.88 154.729C117.268 158.412 112.525 163.111 110.23 165Z" fill="url(#paint15_linear_9_337)"/>
<defs>
<linearGradient id="paint0_linear_9_337" x1="75" y1="184.5" x2="75" y2="210" gradientUnits="userSpaceOnUse">
<stop stop-color="#B4A34E"/>
<stop offset="1" stop-color="#58561F"/>
</linearGradient>
<linearGradient id="paint1_linear_9_337" x1="77.1605" y1="53.5502" x2="77.1605" y2="127.228" gradientUnits="userSpaceOnUse">
<stop stop-color="#B4A34E"/>
<stop offset="1" stop-color="#58561F"/>
</linearGradient>
<linearGradient id="paint2_linear_9_337" x1="77.3652" y1="53.1408" x2="77.3652" y2="74.835" gradientUnits="userSpaceOnUse">
<stop stop-color="#B4A34E"/>
<stop offset="1" stop-color="#58561F"/>
</linearGradient>
<linearGradient id="paint3_linear_9_337" x1="69.7926" y1="72.3791" x2="69.7926" y2="79.7469" gradientUnits="userSpaceOnUse">
<stop stop-color="#B4A34E"/>
<stop offset="1" stop-color="#58561F"/>
</linearGradient>
<linearGradient id="paint4_linear_9_337" x1="89.4402" y1="72.3791" x2="89.4402" y2="79.7469" gradientUnits="userSpaceOnUse">
<stop stop-color="#B4A34E"/>
<stop offset="1" stop-color="#58561F"/>
</linearGradient>
<linearGradient id="paint5_linear_9_337" x1="80.8444" y1="73.1977" x2="80.8444" y2="103.488" gradientUnits="userSpaceOnUse">
<stop stop-color="#58561F"/>
<stop offset="1" stop-color="#B4A34E"/>
</linearGradient>
<radialGradient id="paint6_angular_9_337" cx="0" cy="0" r="1" gradientUnits="userSpaceOnUse" gradientTransform="translate(75.5232 94.0732) rotate(90) scale(49.5282 40.5231)">
<stop offset="0.0865113" stop-color="#B4A34E"/>
<stop offset="0.504382" stop-color="#58561F"/>
</radialGradient>
<linearGradient id="paint7_linear_9_337" x1="76.6201" y1="39.2687" x2="76.6201" y2="54.2449" gradientUnits="userSpaceOnUse">
<stop stop-color="#58561F"/>
<stop offset="1" stop-color="#B4A34E"/>
</linearGradient>
<linearGradient id="paint8_linear_9_337" x1="76.6201" y1="39.2687" x2="76.6201" y2="30.1227" gradientUnits="userSpaceOnUse">
<stop stop-color="#B4A34E"/>
<stop offset="1" stop-color="#58561F"/>
</linearGradient>
<linearGradient id="paint9_linear_9_337" x1="76.4959" y1="20.2992" x2="76.4959" y2="28.5984" gradientUnits="userSpaceOnUse">
<stop stop-color="#B4A34E"/>
<stop offset="1" stop-color="#58561F"/>
</linearGradient>
<radialGradient id="paint10_radial_9_337" cx="0" cy="0" r="1" gradientUnits="userSpaceOnUse" gradientTransform="translate(79.4599 14.3712) rotate(112.62) scale(7.70639)">
<stop stop-color="#B4A34E"/>
<stop offset="1" stop-color="#58561F"/>
</radialGradient>
<radialGradient id="paint11_radial_9_337" cx="0" cy="0" r="1" gradientUnits="userSpaceOnUse" gradientTransform="translate(76.4959 54.0887) rotate(94.7636) scale(7.13824 83.9121)">
<stop stop-color="#58561F"/>
<stop offset="1" stop-color="#B4A34E"/>
</radialGradient>
<linearGradient id="paint12_linear_9_337" x1="23.25" y1="147" x2="23.25" y2="165" gradientUnits="userSpaceOnUse">
<stop stop-color="#B4A34E"/>
<stop offset="1" stop-color="#58561F"/>
</linearGradient>
<linearGradient id="paint13_linear_9_337" x1="36" y1="148" x2="36" y2="170" gradientUnits="userSpaceOnUse">
<stop stop-color="#B4A34E"/>
<stop offset="1" stop-color="#58561F"/>
</linearGradient>
<linearGradient id="paint14_linear_9_337" x1="127.5" y1="148" x2="127.5" y2="170" gradientUnits="userSpaceOnUse">
<stop stop-color="#B4A34E"/>
<stop offset="1" stop-color="#58561F"/>
</linearGradient>
<linearGradient id="paint15_linear_9_337" x1="109.871" y1="147.969" x2="109.871" y2="164.969" gradientUnits="userSpaceOnUse">
<stop stop-color="#B4A34E"/>
<stop offset="1" stop-color="#58561F"/>
</linearGradient>
</defs>
</svg>
