<svg width="150" height="225" viewBox="0 0 150 225" fill="none" xmlns="http://www.w3.org/2000/svg">
<path d="M0 7C0 3.13401 3.13401 0 7 0H143C146.866 0 150 3.13401 150 7V218C150 221.866 146.866 225 143 225H7C3.13401 225 0 221.866 0 218V7Z" fill="#363636"/>
<rect x="16.5" y="184.5" width="117" height="25.5" rx="8.5" fill="url(#paint0_linear_5_69)"/>
<path d="M22.28 195.32H20.04V194H26.14V195.32H23.9V201H22.28V195.32ZM33.4316 194V201H31.8116V198.13H28.6316V201H27.0116V194H28.6316V196.76H31.8116V194H33.4316ZM40.5078 199.7V201H35.0878V194H40.3778V195.3H36.6978V196.82H39.9478V198.08H36.6978V199.7H40.5078ZM51.0488 194V201H49.4288V198.13H46.2488V201H44.6288V194H46.2488V196.76H49.4288V194H51.0488ZM52.705 194H54.325V201H52.705V194ZM60.7163 197.39H62.1963V200.23C61.8163 200.517 61.3763 200.737 60.8763 200.89C60.3763 201.043 59.8729 201.12 59.3663 201.12C58.6396 201.12 57.9863 200.967 57.4063 200.66C56.8263 200.347 56.3696 199.917 56.0363 199.37C55.7096 198.817 55.5463 198.193 55.5463 197.5C55.5463 196.807 55.7096 196.187 56.0363 195.64C56.3696 195.087 56.8296 194.657 57.4163 194.35C58.0029 194.037 58.6629 193.88 59.3963 193.88C60.0096 193.88 60.5663 193.983 61.0663 194.19C61.5663 194.397 61.9863 194.697 62.3263 195.09L61.2863 196.05C60.7863 195.523 60.1829 195.26 59.4763 195.26C59.0296 195.26 58.6329 195.353 58.2863 195.54C57.9396 195.727 57.6696 195.99 57.4763 196.33C57.2829 196.67 57.1863 197.06 57.1863 197.5C57.1863 197.933 57.2829 198.32 57.4763 198.66C57.6696 199 57.9363 199.267 58.2763 199.46C58.6229 199.647 59.0163 199.74 59.4563 199.74C59.9229 199.74 60.3429 199.64 60.7163 199.44V197.39ZM70.1211 194V201H68.5011V198.13H65.3211V201H63.7011V194H65.3211V196.76H68.5011V194H70.1211ZM77.6393 194C78.2593 194 78.796 194.103 79.2493 194.31C79.7093 194.517 80.0626 194.81 80.3093 195.19C80.556 195.57 80.6793 196.02 80.6793 196.54C80.6793 197.053 80.556 197.503 80.3093 197.89C80.0626 198.27 79.7093 198.563 79.2493 198.77C78.796 198.97 78.2593 199.07 77.6393 199.07H76.2293V201H74.6093V194H77.6393ZM77.5493 197.75C78.036 197.75 78.406 197.647 78.6593 197.44C78.9126 197.227 79.0393 196.927 79.0393 196.54C79.0393 196.147 78.9126 195.847 78.6593 195.64C78.406 195.427 78.036 195.32 77.5493 195.32H76.2293V197.75H77.5493ZM86.2959 201L84.9459 199.05H84.8659H83.4559V201H81.8359V194H84.8659C85.4859 194 86.0225 194.103 86.4759 194.31C86.9359 194.517 87.2892 194.81 87.5359 195.19C87.7825 195.57 87.9059 196.02 87.9059 196.54C87.9059 197.06 87.7792 197.51 87.5259 197.89C87.2792 198.263 86.9259 198.55 86.4659 198.75L88.0359 201H86.2959ZM86.2659 196.54C86.2659 196.147 86.1392 195.847 85.8859 195.64C85.6325 195.427 85.2625 195.32 84.7759 195.32H83.4559V197.76H84.7759C85.2625 197.76 85.6325 197.653 85.8859 197.44C86.1392 197.227 86.2659 196.927 86.2659 196.54ZM89.1894 194H90.8094V201H89.1894V194ZM97.8906 199.7V201H92.4706V194H97.7606V195.3H94.0806V196.82H97.3306V198.08H94.0806V199.7H97.8906ZM101.48 201.12C100.926 201.12 100.39 201.047 99.8696 200.9C99.3563 200.747 98.9429 200.55 98.6296 200.31L99.1796 199.09C99.4796 199.31 99.8363 199.487 100.25 199.62C100.663 199.753 101.076 199.82 101.49 199.82C101.95 199.82 102.29 199.753 102.51 199.62C102.73 199.48 102.84 199.297 102.84 199.07C102.84 198.903 102.773 198.767 102.64 198.66C102.513 198.547 102.346 198.457 102.14 198.39C101.94 198.323 101.666 198.25 101.32 198.17C100.786 198.043 100.35 197.917 100.01 197.79C99.6696 197.663 99.3763 197.46 99.1296 197.18C98.8896 196.9 98.7696 196.527 98.7696 196.06C98.7696 195.653 98.8796 195.287 99.0996 194.96C99.3196 194.627 99.6496 194.363 100.09 194.17C100.536 193.977 101.08 193.88 101.72 193.88C102.166 193.88 102.603 193.933 103.03 194.04C103.456 194.147 103.83 194.3 104.15 194.5L103.65 195.73C103.003 195.363 102.356 195.18 101.71 195.18C101.256 195.18 100.92 195.253 100.7 195.4C100.486 195.547 100.38 195.74 100.38 195.98C100.38 196.22 100.503 196.4 100.75 196.52C101.003 196.633 101.386 196.747 101.9 196.86C102.433 196.987 102.87 197.113 103.21 197.24C103.55 197.367 103.84 197.567 104.08 197.84C104.326 198.113 104.45 198.483 104.45 198.95C104.45 199.35 104.336 199.717 104.11 200.05C103.89 200.377 103.556 200.637 103.11 200.83C102.663 201.023 102.12 201.12 101.48 201.12ZM106.909 195.32H104.669V194H110.769V195.32H108.529V201H106.909V195.32ZM117.061 199.7V201H111.641V194H116.931V195.3H113.251V196.82H116.501V198.08H113.251V199.7H117.061ZM120.65 201.12C120.096 201.12 119.56 201.047 119.04 200.9C118.526 200.747 118.113 200.55 117.8 200.31L118.35 199.09C118.65 199.31 119.006 199.487 119.42 199.62C119.833 199.753 120.246 199.82 120.66 199.82C121.12 199.82 121.46 199.753 121.68 199.62C121.9 199.48 122.01 199.297 122.01 199.07C122.01 198.903 121.943 198.767 121.81 198.66C121.683 198.547 121.516 198.457 121.31 198.39C121.11 198.323 120.836 198.25 120.49 198.17C119.956 198.043 119.52 197.917 119.18 197.79C118.84 197.663 118.546 197.46 118.3 197.18C118.06 196.9 117.94 196.527 117.94 196.06C117.94 195.653 118.05 195.287 118.27 194.96C118.49 194.627 118.82 194.363 119.26 194.17C119.706 193.977 120.25 193.88 120.89 193.88C121.336 193.88 121.773 193.933 122.2 194.04C122.626 194.147 123 194.3 123.32 194.5L122.82 195.73C122.173 195.363 121.526 195.18 120.88 195.18C120.426 195.18 120.09 195.253 119.87 195.4C119.656 195.547 119.55 195.74 119.55 195.98C119.55 196.22 119.673 196.4 119.92 196.52C120.173 196.633 120.556 196.747 121.07 196.86C121.603 196.987 122.04 197.113 122.38 197.24C122.72 197.367 123.01 197.567 123.25 197.84C123.496 198.113 123.62 198.483 123.62 198.95C123.62 199.35 123.506 199.717 123.28 200.05C123.06 200.377 122.726 200.637 122.28 200.83C121.833 201.023 121.29 201.12 120.65 201.12ZM127.026 201.12C126.473 201.12 125.936 201.047 125.416 200.9C124.903 200.747 124.49 200.55 124.176 200.31L124.726 199.09C125.026 199.31 125.383 199.487 125.796 199.62C126.21 199.753 126.623 199.82 127.036 199.82C127.496 199.82 127.836 199.753 128.056 199.62C128.276 199.48 128.386 199.297 128.386 199.07C128.386 198.903 128.32 198.767 128.186 198.66C128.06 198.547 127.893 198.457 127.686 198.39C127.486 198.323 127.213 198.25 126.866 198.17C126.333 198.043 125.896 197.917 125.556 197.79C125.216 197.663 124.923 197.46 124.676 197.18C124.436 196.9 124.316 196.527 124.316 196.06C124.316 195.653 124.426 195.287 124.646 194.96C124.866 194.627 125.196 194.363 125.636 194.17C126.083 193.977 126.626 193.88 127.266 193.88C127.713 193.88 128.15 193.933 128.576 194.04C129.003 194.147 129.376 194.3 129.696 194.5L129.196 195.73C128.55 195.363 127.903 195.18 127.256 195.18C126.803 195.18 126.466 195.253 126.246 195.4C126.033 195.547 125.926 195.74 125.926 195.98C125.926 196.22 126.05 196.4 126.296 196.52C126.55 196.633 126.933 196.747 127.446 196.86C127.98 196.987 128.416 197.113 128.756 197.24C129.096 197.367 129.386 197.567 129.626 197.84C129.873 198.113 129.996 198.483 129.996 198.95C129.996 199.35 129.883 199.717 129.656 200.05C129.436 200.377 129.103 200.637 128.656 200.83C128.21 201.023 127.666 201.12 127.026 201.12Z" fill="#534100"/>
<path d="M120 112.809C115.151 137.443 93.8913 130.771 75.1438 130.771C56.3964 130.771 31.5 143.818 31.5 122.56C31.5 101.302 44.2295 50.7104 75.1438 48.6575C107.271 48.6575 120 91.5509 120 112.809Z" fill="url(#paint1_linear_5_69)"/>
<path d="M99.3904 78.0155C99.3904 100.599 88.5348 126.247 75.1438 126.247C61.7528 126.247 50.8972 100.599 50.8972 78.0155C50.8972 55.4318 61.7528 48.6575 75.1438 48.6575C88.5348 48.6575 99.3904 55.4318 99.3904 78.0155Z" fill="url(#paint2_linear_5_69)"/>
<path d="M78.4599 98.363C83.9154 102 76.6414 102.606 75.429 104.425C73.6106 102.606 66.9428 102.606 72.3982 98.363C72.3982 88.6545 73.0856 69.2671 75.429 69.2671C77.7724 69.2671 78.4599 88.6545 78.4599 98.363Z" fill="url(#paint3_linear_5_69)"/>
<path d="M70.2945 71.9101C70.2945 74.0394 67.3092 71.9101 63.6267 71.9101C59.9441 71.9101 56.9589 75.5815 56.9589 73.4523C56.9589 71.323 59.9441 68.0548 63.6267 68.0548C67.3092 68.0548 70.2945 69.7809 70.2945 71.9101Z" fill="#363636"/>
<path d="M79.9931 71.9101C79.9931 74.0394 82.9784 71.9101 86.6609 71.9101C90.3435 71.9101 93.3287 75.5815 93.3287 73.4523C93.3287 71.323 90.3435 68.0548 86.6609 68.0548C82.9784 68.0548 79.9931 69.7809 79.9931 71.9101Z" fill="#363636"/>
<path d="M72.113 67.4486C72.113 69.1225 68.2348 65.4183 64.2328 64.4178C59.3835 63.2055 55.1404 64.2732 55.1404 62.5993C55.7465 61.9932 59.3835 61.387 63.6267 61.9932C67.644 61.9932 72.113 65.7747 72.113 67.4486Z" fill="url(#paint4_linear_5_69)"/>
<path d="M78.7808 67.6316C78.7808 69.2855 82.659 65.6256 86.661 64.637C91.5103 63.4391 95.7534 64.4941 95.7534 62.8402C95.1473 62.2413 91.5103 61.6423 87.2671 62.2413C83.2498 62.2413 78.7808 65.9777 78.7808 67.6316Z" fill="url(#paint5_linear_5_69)"/>
<path d="M81.2054 112.98C81.2054 115.485 78.4916 115.334 75.1438 115.334C71.796 115.334 69.0822 115.485 69.0822 112.98C69.0822 110.476 71.796 112.414 75.1438 112.414C78.4916 112.414 81.2054 110.476 81.2054 112.98Z" fill="url(#paint6_linear_5_69)"/>
<path d="M81.2054 110.216C79.0406 107.059 76.4427 108.034 75.1438 109.009C73.8449 108.034 72.113 107.059 69.0822 110.216C69.0822 113.576 71.7992 112.167 75.1438 112.911C78.6076 111.936 81.2054 113.576 81.2054 110.216Z" fill="url(#paint7_linear_5_69)"/>
<path d="M98.7842 87.4521C98.178 92.3014 98.178 92.9075 95.7534 102.606C90.7317 102.606 84.8424 98.2639 84.8424 92.9075C84.8424 87.5511 94.3687 81.3904 99.3904 81.3904C99.3904 83.2089 98.7842 87.4521 98.7842 87.4521Z" fill="url(#paint8_linear_5_69)"/>
<path d="M51.5033 87.2789C52.1095 91.9896 52.1095 92.5785 54.5341 102C59.5557 102 65.4451 97.7818 65.4451 92.5785C65.4451 87.3751 55.9188 81.3904 50.8971 81.3904C50.8971 83.1569 51.5033 87.2789 51.5033 87.2789Z" fill="url(#paint9_linear_5_69)"/>
<path d="M97.5065 62.46C81.7463 57.6107 66.5922 59.4292 53.2566 62.46C45.3765 55.7922 39.3148 37.6073 41.7395 30.3333C62.3491 6.69293 90.2327 9.11758 109.024 30.3333C106.599 40.6381 105.387 51.5491 97.5065 62.46Z" fill="url(#paint10_linear_5_69)"/>
<path d="M72.7191 25.6233H77.5684V33.5034H85.4486V37.7466H77.5684V49.8699H72.7191V37.7466H64.839V33.5034H72.7191V25.6233Z" fill="#58561F"/>
<path d="M97.5066 62.4601C81.7463 57.6107 66.5922 59.4292 53.2566 62.4601C53.2566 62.4601 49.0788 58.9623 47.8665 55.3254C67.2637 46.2329 91.5103 48.6575 101.815 55.3253C100.603 58.3561 97.5066 62.4601 97.5066 62.4601Z" fill="url(#paint11_linear_5_69)"/>
<circle cx="55.7467" cy="57.1438" r="2.42466" fill="url(#paint12_radial_5_69)"/>
<circle cx="63.0206" cy="54.7192" r="2.42466" fill="url(#paint13_radial_5_69)"/>
<circle cx="92.1164" cy="57.1438" r="2.42466" fill="url(#paint14_radial_5_69)"/>
<circle cx="70.2945" cy="53.5068" r="2.42466" fill="url(#paint15_radial_5_69)"/>
<circle cx="77.5685" cy="53.5068" r="2.42466" fill="url(#paint16_radial_5_69)"/>
<circle cx="84.8424" cy="54.7192" r="2.42466" fill="url(#paint17_radial_5_69)"/>
<path d="M17 148V152C18.6667 153 22 156.5 25 161L22.5 163L23.5 164.5L26 163L27.5 165L30 163L28.5 161.5L30 159.5L28.5 158L27 159.5C23 155 21 150.5 21 149L17 148Z" fill="url(#paint18_linear_5_69)"/>
<path d="M38.562 152.4V165H35.646V154.74H33.126V152.4H38.562Z" fill="url(#paint19_linear_5_69)"/>
<path d="M133.116 162.624V165H123.594V163.11L128.454 158.52C128.97 158.028 129.318 157.608 129.498 157.26C129.678 156.9 129.768 156.546 129.768 156.198C129.768 155.694 129.594 155.31 129.246 155.046C128.91 154.77 128.412 154.632 127.752 154.632C127.2 154.632 126.702 154.74 126.258 154.956C125.814 155.16 125.442 155.472 125.142 155.892L123.018 154.524C123.51 153.792 124.188 153.222 125.052 152.814C125.916 152.394 126.906 152.184 128.022 152.184C128.958 152.184 129.774 152.34 130.47 152.652C131.178 152.952 131.724 153.384 132.108 153.948C132.504 154.5 132.702 155.154 132.702 155.91C132.702 156.594 132.558 157.236 132.27 157.836C131.982 158.436 131.424 159.12 130.596 159.888L127.698 162.624H133.116Z" fill="url(#paint20_linear_5_69)"/>
<path d="M111.23 165C108.297 162.757 102.355 157.562 102.049 154.729C101.666 151.188 103.579 148 105.874 148C108.169 148 110.082 150.479 110.465 151.896C110.847 150.448 112.454 148 114.29 148C116.585 148 119.645 150.125 118.88 154.729C118.268 158.412 113.525 163.111 111.23 165Z" fill="url(#paint21_linear_5_69)"/>
<path d="M78.1159 172C73.6306 168.569 64.543 160.625 64.0749 156.292C63.4899 150.875 66.4151 146 69.9253 146C73.4356 146 76.3608 149.792 76.9458 151.958C77.5309 149.745 79.988 146 82.7962 146C86.3065 146 90.9868 149.25 89.8167 156.292C88.8807 161.925 81.6262 169.111 78.1159 172Z" fill="url(#paint22_linear_5_69)"/>
<path d="M75.6541 153.28H78.3459V157.444H82.72V159.686H78.3459V164.72H75.6541V159.686H71.28V157.444H75.6541V153.28Z" fill="#363636"/>
<defs>
<linearGradient id="paint0_linear_5_69" x1="75" y1="184.5" x2="75" y2="210" gradientUnits="userSpaceOnUse">
<stop stop-color="#B4A34E"/>
<stop offset="1" stop-color="#58561F"/>
</linearGradient>
<linearGradient id="paint1_linear_5_69" x1="75.75" y1="48.6575" x2="75.75" y2="134.733" gradientUnits="userSpaceOnUse">
<stop stop-color="#B4A34E"/>
<stop offset="1" stop-color="#58561F"/>
</linearGradient>
<linearGradient id="paint2_linear_5_69" x1="75.1438" y1="48.6575" x2="75.1438" y2="126.247" gradientUnits="userSpaceOnUse">
<stop stop-color="#58561F"/>
<stop offset="1" stop-color="#B4A34E"/>
</linearGradient>
<linearGradient id="paint3_linear_5_69" x1="75.3797" y1="69.2671" x2="75.3797" y2="104.425" gradientUnits="userSpaceOnUse">
<stop stop-color="#B4A34E"/>
<stop offset="1" stop-color="#58561F"/>
</linearGradient>
<linearGradient id="paint4_linear_5_69" x1="64.2328" y1="58.3562" x2="64.2328" y2="64.4178" gradientUnits="userSpaceOnUse">
<stop stop-color="#B4A34E"/>
<stop offset="1" stop-color="#58561F"/>
</linearGradient>
<linearGradient id="paint5_linear_5_69" x1="86.661" y1="58.6477" x2="86.661" y2="64.637" gradientUnits="userSpaceOnUse">
<stop stop-color="#B4A34E"/>
<stop offset="1" stop-color="#58561F"/>
</linearGradient>
<linearGradient id="paint6_linear_5_69" x1="75.1438" y1="112.426" x2="75.1438" y2="115.334" gradientUnits="userSpaceOnUse">
<stop stop-color="#B4A34E"/>
<stop offset="1" stop-color="#58561F"/>
</linearGradient>
<linearGradient id="paint7_linear_5_69" x1="75.1438" y1="111.936" x2="75.1438" y2="108.034" gradientUnits="userSpaceOnUse">
<stop stop-color="#58561F"/>
<stop offset="1" stop-color="#B4A34E"/>
</linearGradient>
<linearGradient id="paint8_linear_5_69" x1="92.1164" y1="81.3904" x2="92.1164" y2="102.606" gradientUnits="userSpaceOnUse">
<stop stop-color="#B4A34E"/>
<stop offset="1" stop-color="#58561F"/>
</linearGradient>
<linearGradient id="paint9_linear_5_69" x1="58.1711" y1="81.3904" x2="58.1711" y2="102" gradientUnits="userSpaceOnUse">
<stop stop-color="#B4A34E"/>
<stop offset="1" stop-color="#58561F"/>
</linearGradient>
<linearGradient id="paint10_linear_5_69" x1="75.1111" y1="13.5" x2="75.1111" y2="62.46" gradientUnits="userSpaceOnUse">
<stop stop-color="#B4A34E"/>
<stop offset="1" stop-color="#58561F"/>
</linearGradient>
<linearGradient id="paint11_linear_5_69" x1="75.1439" y1="48.6575" x2="75.1112" y2="62.46" gradientUnits="userSpaceOnUse">
<stop stop-color="#B4A34E"/>
<stop offset="1" stop-color="#58561F"/>
</linearGradient>
<radialGradient id="paint12_radial_5_69" cx="0" cy="0" r="1" gradientUnits="userSpaceOnUse" gradientTransform="translate(56.959 55.3253) rotate(116.565) scale(4.06627)">
<stop stop-color="#B4A34E"/>
<stop offset="1" stop-color="#58561F"/>
</radialGradient>
<radialGradient id="paint13_radial_5_69" cx="0" cy="0" r="1" gradientUnits="userSpaceOnUse" gradientTransform="translate(64.2329 52.9007) rotate(116.565) scale(4.06627)">
<stop stop-color="#B4A34E"/>
<stop offset="1" stop-color="#58561F"/>
</radialGradient>
<radialGradient id="paint14_radial_5_69" cx="0" cy="0" r="1" gradientUnits="userSpaceOnUse" gradientTransform="translate(93.3288 55.3253) rotate(116.565) scale(4.06627)">
<stop stop-color="#B4A34E"/>
<stop offset="1" stop-color="#58561F"/>
</radialGradient>
<radialGradient id="paint15_radial_5_69" cx="0" cy="0" r="1" gradientUnits="userSpaceOnUse" gradientTransform="translate(71.5069 51.6883) rotate(116.565) scale(4.06627)">
<stop stop-color="#B4A34E"/>
<stop offset="1" stop-color="#58561F"/>
</radialGradient>
<radialGradient id="paint16_radial_5_69" cx="0" cy="0" r="1" gradientUnits="userSpaceOnUse" gradientTransform="translate(78.7808 51.6883) rotate(116.565) scale(4.06627)">
<stop stop-color="#B4A34E"/>
<stop offset="1" stop-color="#58561F"/>
</radialGradient>
<radialGradient id="paint17_radial_5_69" cx="0" cy="0" r="1" gradientUnits="userSpaceOnUse" gradientTransform="translate(86.0547 52.9007) rotate(116.565) scale(4.06627)">
<stop stop-color="#B4A34E"/>
<stop offset="1" stop-color="#58561F"/>
</radialGradient>
<linearGradient id="paint18_linear_5_69" x1="24.25" y1="147" x2="24.25" y2="165" gradientUnits="userSpaceOnUse">
<stop stop-color="#B4A34E"/>
<stop offset="1" stop-color="#58561F"/>
</linearGradient>
<linearGradient id="paint19_linear_5_69" x1="37" y1="148" x2="37" y2="170" gradientUnits="userSpaceOnUse">
<stop stop-color="#B4A34E"/>
<stop offset="1" stop-color="#58561F"/>
</linearGradient>
<linearGradient id="paint20_linear_5_69" x1="128.5" y1="148" x2="128.5" y2="170" gradientUnits="userSpaceOnUse">
<stop stop-color="#B4A34E"/>
<stop offset="1" stop-color="#58561F"/>
</linearGradient>
<linearGradient id="paint21_linear_5_69" x1="110.871" y1="147.969" x2="110.871" y2="164.969" gradientUnits="userSpaceOnUse">
<stop stop-color="#B4A34E"/>
<stop offset="1" stop-color="#58561F"/>
</linearGradient>
<linearGradient id="paint22_linear_5_69" x1="77.5671" y1="145.953" x2="77.5671" y2="171.953" gradientUnits="userSpaceOnUse">
<stop stop-color="#B4A34E"/>
<stop offset="1" stop-color="#58561F"/>
</linearGradient>
</defs>
</svg>
