<svg width="150" height="225" viewBox="0 0 150 225" fill="none" xmlns="http://www.w3.org/2000/svg">
<path d="M0 7C0 3.13401 3.13401 0 7 0H143C146.866 0 150 3.13401 150 7V218C150 221.866 146.866 225 143 225H7C3.13401 225 0 221.866 0 218V7Z" fill="#363636"/>
<rect x="16.5" y="184.5" width="117" height="25.5" rx="8.5" fill="url(#paint0_linear_21_59)"/>
<path d="M30.968 203.168C30.3053 203.168 29.694 203.047 29.134 202.804C28.5833 202.552 28.1307 202.197 27.776 201.74L29.036 200.228C29.568 200.947 30.1747 201.306 30.856 201.306C31.78 201.306 32.242 200.765 32.242 199.682V195.02H28.798V193.2H34.496V199.556C34.496 200.76 34.1973 201.665 33.6 202.272C33.0027 202.869 32.1253 203.168 30.968 203.168ZM41.0902 203.168C39.6902 203.168 38.5982 202.781 37.8142 202.006C37.0396 201.231 36.6522 200.125 36.6522 198.688V193.2H38.9202V198.604C38.9202 200.359 39.6482 201.236 41.1042 201.236C41.8136 201.236 42.3549 201.026 42.7282 200.606C43.1016 200.177 43.2882 199.509 43.2882 198.604V193.2H45.5282V198.688C45.5282 200.125 45.1362 201.231 44.3522 202.006C43.5776 202.781 42.4902 203.168 41.0902 203.168ZM47.7694 193.2H52.2214C53.2854 193.2 54.2234 193.405 55.0354 193.816C55.8568 194.217 56.4914 194.787 56.9394 195.524C57.3968 196.261 57.6254 197.12 57.6254 198.1C57.6254 199.08 57.3968 199.939 56.9394 200.676C56.4914 201.413 55.8568 201.987 55.0354 202.398C54.2234 202.799 53.2854 203 52.2214 203H47.7694V193.2ZM52.1094 201.138C53.0894 201.138 53.8688 200.867 54.4474 200.326C55.0354 199.775 55.3294 199.033 55.3294 198.1C55.3294 197.167 55.0354 196.429 54.4474 195.888C53.8688 195.337 53.0894 195.062 52.1094 195.062H50.0374V201.138H52.1094ZM65.9578 197.946H68.0298V201.922C67.4978 202.323 66.8818 202.631 66.1818 202.846C65.4818 203.061 64.7772 203.168 64.0678 203.168C63.0505 203.168 62.1358 202.953 61.3238 202.524C60.5118 202.085 59.8725 201.483 59.4058 200.718C58.9485 199.943 58.7198 199.071 58.7198 198.1C58.7198 197.129 58.9485 196.261 59.4058 195.496C59.8725 194.721 60.5165 194.119 61.3378 193.69C62.1592 193.251 63.0832 193.032 64.1098 193.032C64.9685 193.032 65.7478 193.177 66.4478 193.466C67.1478 193.755 67.7358 194.175 68.2118 194.726L66.7558 196.07C66.0558 195.333 65.2112 194.964 64.2218 194.964C63.5965 194.964 63.0412 195.095 62.5558 195.356C62.0705 195.617 61.6925 195.986 61.4218 196.462C61.1512 196.938 61.0158 197.484 61.0158 198.1C61.0158 198.707 61.1512 199.248 61.4218 199.724C61.6925 200.2 62.0658 200.573 62.5418 200.844C63.0272 201.105 63.5778 201.236 64.1938 201.236C64.8472 201.236 65.4352 201.096 65.9578 200.816V197.946ZM77.7246 201.18V203H70.1366V193.2H77.5426V195.02H72.3906V197.148H76.9406V198.912H72.3906V201.18H77.7246ZM88.4472 203L88.4332 197.12L85.5492 201.964H84.5272L81.6572 197.246V203H79.5292V193.2H81.4052L85.0732 199.29L88.6852 193.2H90.5472L90.5752 203H88.4472ZM100.488 201.18V203H92.9003V193.2H100.306V195.02H95.1543V197.148H99.7043V198.912H95.1543V201.18H100.488ZM111.281 193.2V203H109.419L104.533 197.05V203H102.293V193.2H104.169L109.041 199.15V193.2H111.281ZM115.63 195.048H112.494V193.2H121.034V195.048H117.898V203H115.63V195.048Z" fill="#534100"/>
<circle cx="49.1299" cy="40.1299" r="9.12987" fill="url(#paint1_radial_21_59)"/>
<circle cx="104.87" cy="40.1299" r="9.12987" fill="url(#paint2_radial_21_59)"/>
<circle cx="42.1301" cy="32.1301" r="6.13007" fill="url(#paint3_radial_21_59)"/>
<circle cx="111.87" cy="32.1301" r="6.13007" fill="url(#paint4_radial_21_59)"/>
<circle cx="34.3073" cy="32.3073" r="4.30734" fill="url(#paint5_radial_21_59)"/>
<circle cx="118.922" cy="32.3073" r="4.30734" fill="url(#paint6_radial_21_59)"/>
<path d="M105.678 67.4811C105.678 89.286 93.7254 95.3714 76.3392 97.5447C62.2129 95.0092 47 89.286 47 67.4811C47 45.6763 50.9843 28.0001 76.3392 28C103.143 27.9999 105.678 45.6763 105.678 67.4811Z" fill="url(#paint7_linear_21_59)"/>
<path d="M71.6304 58.3178C71.6304 59.9373 67.452 62.2276 61.8507 62.2276C56.2495 62.2276 51.3466 57.6567 51.3466 56.0372C51.3466 54.4178 56.2495 59.2953 61.8507 59.2953C67.452 59.2953 71.6304 56.6984 71.6304 58.3178Z" fill="#363636"/>
<path d="M81.0479 58.3178C81.0479 59.9373 85.2264 62.2276 90.8276 62.2276C96.4289 62.2276 101.332 57.6567 101.332 56.0372C101.332 54.4178 96.4289 59.2953 90.8276 59.2953C85.2264 59.2953 81.0479 56.6984 81.0479 58.3178Z" fill="#363636"/>
<path d="M55.6931 34.3374C70.1816 34.3374 73.8037 42.3785 73.8037 65.8499H79.5991C81.4102 42.6682 81.4102 34.3374 97.3475 34.3374C89.3789 24.1954 65.1106 24.9198 55.6931 34.3374Z" fill="url(#paint8_linear_21_59)"/>
<path d="M79.5991 66.5742C79.5991 68.9747 78.3018 68.7475 76.7014 68.7475C75.1011 68.7475 73.8037 68.9747 73.8037 66.5742C73.8037 64.1737 75.2526 63.3143 76.7014 62.2277C78.1503 63.3143 79.5991 64.1737 79.5991 66.5742Z" fill="url(#paint9_linear_21_59)"/>
<path d="M68.7327 41.5814C68.7327 42.7817 66.138 42.6681 62.9373 42.6681C59.7366 42.6681 56.4175 43.5061 56.4175 42.3059C56.4175 41.1056 59.7366 38.3215 62.9373 38.3215C66.138 38.3215 68.7327 40.3812 68.7327 41.5814Z" fill="url(#paint10_linear_21_59)"/>
<path d="M84.67 41.3811C84.67 42.5076 87.2647 42.401 90.4654 42.401C93.6661 42.401 96.9852 43.1876 96.9852 42.061C96.9852 40.9345 93.6661 38.3215 90.4654 38.3215C87.2647 38.3215 84.67 40.2546 84.67 41.3811Z" fill="url(#paint11_linear_21_59)"/>
<ellipse cx="87" cy="75.5" rx="10" ry="9.5" fill="url(#paint12_linear_21_59)"/>
<ellipse rx="10" ry="9.5" transform="matrix(-1 0 0 1 65 75.5)" fill="url(#paint13_linear_21_59)"/>
<path d="M77 74C76 74 77 74 76 74C71.9727 83.0196 62.0383 100.982 46.5554 111C29.5554 122 45.5554 136 53.5554 130C60.0554 122 72.6 99.6 77 74Z" fill="url(#paint14_linear_21_59)"/>
<path d="M57.0294 121.5C57.0294 126.747 53.0293 132 49.0293 131.5C45.0293 132.5 39.0294 126.747 39.0294 121.5C38.5293 117.5 44.5293 110.5 48.5293 111.5C52.5293 112.5 57.0294 116.253 57.0294 121.5Z" fill="#58561F"/>
<path d="M55.0293 121.493C55.0293 125.906 51.7014 130.325 48.3735 129.904C45.0456 130.745 40.0537 125.906 40.0537 121.493C39.6377 118.128 44.6295 112.24 47.9574 113.081C51.2854 113.922 55.0293 117.079 55.0293 121.493Z" fill="url(#paint15_linear_21_59)"/>
<circle cx="71.5" cy="27.5" r="4.5" fill="url(#paint16_radial_21_59)"/>
<circle cx="81.5" cy="27.5" r="4.5" fill="url(#paint17_radial_21_59)"/>
<circle cx="60.5" cy="30.5" r="5.5" fill="url(#paint18_radial_21_59)"/>
<circle cx="93.5" cy="30.5" r="5.5" fill="url(#paint19_radial_21_59)"/>
<path d="M16 148V152C17.6667 153 21 156.5 24 161L21.5 163L22.5 164.5L25 163L26.5 165L29 163L27.5 161.5L29 159.5L27.5 158L26 159.5C22 155 20 150.5 20 149L16 148Z" fill="url(#paint20_linear_21_59)"/>
<path d="M44.24 162.354H42.188V165H39.344V162.354H32.558V160.392L38.498 152.4H41.558L36.05 159.978H39.434V157.62H42.188V159.978H44.24V162.354Z" fill="url(#paint21_linear_21_59)"/>
<path d="M127.562 152.4V165H124.646V154.74H122.126V152.4H127.562Z" fill="url(#paint22_linear_21_59)"/>
<path d="M110.23 165C107.297 162.757 101.355 157.562 101.049 154.729C100.666 151.187 102.579 148 104.874 148C107.169 148 109.082 150.479 109.465 151.896C109.847 150.448 111.454 148 113.29 148C115.585 148 118.645 150.125 117.88 154.729C117.268 158.412 112.525 163.111 110.23 165Z" fill="url(#paint23_linear_21_59)"/>
<defs>
<linearGradient id="paint0_linear_21_59" x1="75" y1="184.5" x2="75" y2="210" gradientUnits="userSpaceOnUse">
<stop stop-color="#B4A34E"/>
<stop offset="1" stop-color="#58561F"/>
</linearGradient>
<radialGradient id="paint1_radial_21_59" cx="0" cy="0" r="1" gradientUnits="userSpaceOnUse" gradientTransform="translate(53.1876 37.0866) rotate(108.435) scale(12.8316)">
<stop stop-color="#B4A34E"/>
<stop offset="1" stop-color="#58561F"/>
</radialGradient>
<radialGradient id="paint2_radial_21_59" cx="0" cy="0" r="1" gradientUnits="userSpaceOnUse" gradientTransform="translate(108.928 37.0866) rotate(108.435) scale(12.8316)">
<stop stop-color="#B4A34E"/>
<stop offset="1" stop-color="#58561F"/>
</radialGradient>
<radialGradient id="paint3_radial_21_59" cx="0" cy="0" r="1" gradientUnits="userSpaceOnUse" gradientTransform="translate(44.8545 30.0867) rotate(108.435) scale(8.61555)">
<stop stop-color="#B4A34E"/>
<stop offset="1" stop-color="#58561F"/>
</radialGradient>
<radialGradient id="paint4_radial_21_59" cx="0" cy="0" r="1" gradientUnits="userSpaceOnUse" gradientTransform="translate(114.594 30.0867) rotate(108.435) scale(8.61555)">
<stop stop-color="#B4A34E"/>
<stop offset="1" stop-color="#58561F"/>
</radialGradient>
<radialGradient id="paint5_radial_21_59" cx="0" cy="0" r="1" gradientUnits="userSpaceOnUse" gradientTransform="translate(36.2217 30.8716) rotate(108.435) scale(6.05378)">
<stop stop-color="#B4A34E"/>
<stop offset="1" stop-color="#58561F"/>
</radialGradient>
<radialGradient id="paint6_radial_21_59" cx="0" cy="0" r="1" gradientUnits="userSpaceOnUse" gradientTransform="translate(120.836 30.8716) rotate(108.435) scale(6.05378)">
<stop stop-color="#B4A34E"/>
<stop offset="1" stop-color="#58561F"/>
</radialGradient>
<linearGradient id="paint7_linear_21_59" x1="76.3392" y1="28" x2="76.3392" y2="106.962" gradientUnits="userSpaceOnUse">
<stop stop-color="#B4A34E"/>
<stop offset="1" stop-color="#58561F"/>
</linearGradient>
<linearGradient id="paint8_linear_21_59" x1="76.5203" y1="27" x2="76.5203" y2="65.8499" gradientUnits="userSpaceOnUse">
<stop stop-color="#58561F"/>
<stop offset="1" stop-color="#B4A34E"/>
</linearGradient>
<linearGradient id="paint9_linear_21_59" x1="76.7014" y1="62.2277" x2="76.7014" y2="68.7532" gradientUnits="userSpaceOnUse">
<stop stop-color="#58561F"/>
<stop offset="1" stop-color="#B4A34E"/>
</linearGradient>
<linearGradient id="paint10_linear_21_59" x1="62.5751" y1="38.3215" x2="62.5751" y2="42.9526" gradientUnits="userSpaceOnUse">
<stop stop-color="#B4A34E"/>
<stop offset="1" stop-color="#58561F"/>
</linearGradient>
<linearGradient id="paint11_linear_21_59" x1="90.8276" y1="38.3215" x2="90.8276" y2="42.6681" gradientUnits="userSpaceOnUse">
<stop stop-color="#B4A34E"/>
<stop offset="1" stop-color="#58561F"/>
</linearGradient>
<linearGradient id="paint12_linear_21_59" x1="78.5" y1="76" x2="98" y2="76" gradientUnits="userSpaceOnUse">
<stop stop-color="#58561F"/>
<stop offset="1" stop-color="#B4A34E" stop-opacity="0"/>
</linearGradient>
<linearGradient id="paint13_linear_21_59" x1="1.5" y1="10" x2="21" y2="10" gradientUnits="userSpaceOnUse">
<stop stop-color="#58561F"/>
<stop offset="1" stop-color="#B4A34E" stop-opacity="0"/>
</linearGradient>
<linearGradient id="paint14_linear_21_59" x1="50.5554" y1="90.4999" x2="68.0554" y2="114" gradientUnits="userSpaceOnUse">
<stop stop-color="#B4A34E"/>
<stop offset="1" stop-color="#58561F"/>
</linearGradient>
<linearGradient id="paint15_linear_21_59" x1="39.5605" y1="125.278" x2="55.5493" y2="116.875" gradientUnits="userSpaceOnUse">
<stop stop-color="#B4A34E"/>
<stop offset="1" stop-color="#58561F"/>
</linearGradient>
<radialGradient id="paint16_radial_21_59" cx="0" cy="0" r="1" gradientUnits="userSpaceOnUse" gradientTransform="translate(73.5 26) rotate(108.435) scale(6.32456)">
<stop stop-color="#B4A34E"/>
<stop offset="1" stop-color="#58561F"/>
</radialGradient>
<radialGradient id="paint17_radial_21_59" cx="0" cy="0" r="1" gradientUnits="userSpaceOnUse" gradientTransform="translate(83.5 26) rotate(108.435) scale(6.32456)">
<stop stop-color="#B4A34E"/>
<stop offset="1" stop-color="#58561F"/>
</radialGradient>
<radialGradient id="paint18_radial_21_59" cx="0" cy="0" r="1" gradientUnits="userSpaceOnUse" gradientTransform="translate(62.9444 28.6667) rotate(108.435) scale(7.73001)">
<stop stop-color="#B4A34E"/>
<stop offset="1" stop-color="#58561F"/>
</radialGradient>
<radialGradient id="paint19_radial_21_59" cx="0" cy="0" r="1" gradientUnits="userSpaceOnUse" gradientTransform="translate(95.9444 28.6667) rotate(108.435) scale(7.73001)">
<stop stop-color="#B4A34E"/>
<stop offset="1" stop-color="#58561F"/>
</radialGradient>
<linearGradient id="paint20_linear_21_59" x1="23.25" y1="147" x2="23.25" y2="165" gradientUnits="userSpaceOnUse">
<stop stop-color="#B4A34E"/>
<stop offset="1" stop-color="#58561F"/>
</linearGradient>
<linearGradient id="paint21_linear_21_59" x1="38.5" y1="148" x2="38.5" y2="170" gradientUnits="userSpaceOnUse">
<stop stop-color="#B4A34E"/>
<stop offset="1" stop-color="#58561F"/>
</linearGradient>
<linearGradient id="paint22_linear_21_59" x1="126" y1="148" x2="126" y2="170" gradientUnits="userSpaceOnUse">
<stop stop-color="#B4A34E"/>
<stop offset="1" stop-color="#58561F"/>
</linearGradient>
<linearGradient id="paint23_linear_21_59" x1="109.871" y1="147.969" x2="109.871" y2="164.969" gradientUnits="userSpaceOnUse">
<stop stop-color="#B4A34E"/>
<stop offset="1" stop-color="#58561F"/>
</linearGradient>
</defs>
</svg>
