<svg width="150" height="225" viewBox="0 0 150 225" fill="none" xmlns="http://www.w3.org/2000/svg">
<path d="M0 7C0 3.13401 3.13401 0 7 0H143C146.866 0 150 3.13401 150 7V218C150 221.866 146.866 225 143 225H7C3.13401 225 0 221.866 0 218V7Z" fill="#363636"/>
<rect x="16.5" y="184.5" width="117" height="25.5" rx="8.5" fill="url(#paint0_linear_13_804)"/>
<path d="M39.816 205.216C38.964 205.216 38.178 205.06 37.458 204.748C36.75 204.424 36.168 203.968 35.712 203.38L37.332 201.436C38.016 202.36 38.796 202.822 39.672 202.822C40.86 202.822 41.454 202.126 41.454 200.734V194.74H37.026V192.4H44.352V200.572C44.352 202.12 43.968 203.284 43.2 204.064C42.432 204.832 41.304 205.216 39.816 205.216ZM52.8303 205.216C51.0303 205.216 49.6263 204.718 48.6183 203.722C47.6223 202.726 47.1243 201.304 47.1243 199.456V192.4H50.0403V199.348C50.0403 201.604 50.9763 202.732 52.8483 202.732C53.7603 202.732 54.4563 202.462 54.9363 201.922C55.4163 201.37 55.6563 200.512 55.6563 199.348V192.4H58.5363V199.456C58.5363 201.304 58.0323 202.726 57.0243 203.722C56.0283 204.718 54.6303 205.216 52.8303 205.216ZM65.5578 205.216C64.5618 205.216 63.5958 205.084 62.6598 204.82C61.7358 204.544 60.9918 204.19 60.4278 203.758L61.4178 201.562C61.9578 201.958 62.5998 202.276 63.3438 202.516C64.0878 202.756 64.8318 202.876 65.5758 202.876C66.4038 202.876 67.0158 202.756 67.4118 202.516C67.8078 202.264 68.0058 201.934 68.0058 201.526C68.0058 201.226 67.8858 200.98 67.6458 200.788C67.4178 200.584 67.1178 200.422 66.7458 200.302C66.3858 200.182 65.8938 200.05 65.2698 199.906C64.3098 199.678 63.5238 199.45 62.9118 199.222C62.2998 198.994 61.7718 198.628 61.3278 198.124C60.8958 197.62 60.6798 196.948 60.6798 196.108C60.6798 195.376 60.8778 194.716 61.2738 194.128C61.6698 193.528 62.2638 193.054 63.0558 192.706C63.8598 192.358 64.8378 192.184 65.9898 192.184C66.7938 192.184 67.5798 192.28 68.3478 192.472C69.1158 192.664 69.7878 192.94 70.3638 193.3L69.4638 195.514C68.2998 194.854 67.1358 194.524 65.9718 194.524C65.1558 194.524 64.5498 194.656 64.1538 194.92C63.7698 195.184 63.5778 195.532 63.5778 195.964C63.5778 196.396 63.7998 196.72 64.2438 196.936C64.6998 197.14 65.3898 197.344 66.3138 197.548C67.2738 197.776 68.0598 198.004 68.6718 198.232C69.2838 198.46 69.8058 198.82 70.2378 199.312C70.6818 199.804 70.9038 200.47 70.9038 201.31C70.9038 202.03 70.6998 202.69 70.2918 203.29C69.8958 203.878 69.2958 204.346 68.4918 204.694C67.6878 205.042 66.7098 205.216 65.5578 205.216ZM75.3306 194.776H71.2986V192.4H82.2786V194.776H78.2466V205H75.3306V194.776ZM83.8475 192.4H86.7635V205H83.8475V192.4ZM95.7838 205.216C94.4998 205.216 93.3358 204.94 92.2918 204.388C91.2598 203.824 90.4438 203.05 89.8438 202.066C89.2558 201.07 88.9618 199.948 88.9618 198.7C88.9618 197.452 89.2558 196.336 89.8438 195.352C90.4438 194.356 91.2598 193.582 92.2918 193.03C93.3358 192.466 94.5058 192.184 95.8018 192.184C96.8938 192.184 97.8778 192.376 98.7538 192.76C99.6418 193.144 100.386 193.696 100.986 194.416L99.1138 196.144C98.2618 195.16 97.2058 194.668 95.9458 194.668C95.1658 194.668 94.4698 194.842 93.8578 195.19C93.2458 195.526 92.7658 196 92.4178 196.612C92.0818 197.224 91.9138 197.92 91.9138 198.7C91.9138 199.48 92.0818 200.176 92.4178 200.788C92.7658 201.4 93.2458 201.88 93.8578 202.228C94.4698 202.564 95.1658 202.732 95.9458 202.732C97.2058 202.732 98.2618 202.234 99.1138 201.238L100.986 202.966C100.386 203.698 99.6418 204.256 98.7538 204.64C97.8658 205.024 96.8758 205.216 95.7838 205.216ZM112.711 202.66V205H102.955V192.4H112.477V194.74H105.853V197.476H111.703V199.744H105.853V202.66H112.711Z" fill="#534100"/>
<ellipse cx="76.6972" cy="55.0709" rx="26.788" ry="31.5153" fill="url(#paint1_linear_13_804)"/>
<path d="M99.2832 111.048C99.2832 116.925 89.3514 128.607 77.7477 128.607C66.1441 128.607 57.2628 116.925 57.2628 111.048C57.2628 105.171 52.5355 87.6368 76.6972 87.6368C101.909 87.6368 99.2832 105.171 99.2832 111.048Z" fill="url(#paint2_linear_13_804)"/>
<path d="M105.669 82.9095C99.7987 99.7177 94.4251 90.5849 89.316 97.6167C86.8001 108.122 90.1546 113.374 76.7368 113.374C64.5769 113.374 67.512 106.546 64.5769 97.6167C59.64 90.7889 53.2556 99.7177 47.8046 82.9095C42.1392 65.4401 40.2571 48.7678 76.7368 48.7679C111.959 48.7679 111.702 65.6345 105.669 82.9095Z" fill="url(#paint3_linear_13_804)"/>
<path d="M71.9699 113.299C71.9699 112.826 71.9291 112.358 71.8499 111.921C71.7708 111.484 71.6547 111.087 71.5084 110.752C71.362 110.418 71.1883 110.153 70.9971 109.972C70.806 109.791 70.6011 109.697 70.3941 109.697C70.1872 109.697 69.9823 109.791 69.7911 109.972C69.5999 110.153 69.4262 110.418 69.2799 110.752C69.1336 111.087 69.0175 111.484 68.9383 111.921C68.8591 112.358 68.8184 112.826 68.8184 113.299L69.3436 113.625L70.3941 113.899L71.3047 113.625L71.9699 113.299Z" fill="url(#paint4_linear_13_804)"/>
<path d="M76.172 113.299C76.172 112.826 76.1176 112.358 76.012 111.921C75.9064 111.484 75.7517 111.087 75.5566 110.752C75.3615 110.418 75.1299 110.153 74.875 109.972C74.62 109.791 74.3468 109.697 74.0709 109.697C73.795 109.697 73.5218 109.791 73.2669 109.972C73.012 110.153 72.7804 110.418 72.5853 110.752C72.3902 111.087 72.2354 111.484 72.1298 111.921C72.0243 112.358 71.9699 112.826 71.9699 113.299L72.6702 113.625L74.0709 113.899L75.2851 113.625L76.172 113.299Z" fill="url(#paint5_linear_13_804)"/>
<path d="M83.5255 113.299C83.5255 112.826 83.4712 112.358 83.3656 111.921C83.26 111.484 83.1053 111.087 82.9102 110.752C82.7151 110.418 82.4834 110.153 82.2285 109.972C81.9736 109.791 81.7004 109.697 81.4245 109.697C81.1486 109.697 80.8754 109.791 80.6205 109.972C80.3656 110.153 80.134 110.418 79.9389 110.752C79.7438 111.087 79.589 111.484 79.4834 111.921C79.3778 112.358 79.3235 112.826 79.3235 113.299L80.0238 113.625L81.4245 113.899L82.6386 113.625L83.5255 113.299Z" fill="url(#paint6_linear_13_804)"/>
<path d="M86.677 113.299C86.677 112.826 86.6363 112.358 86.5571 111.921C86.4779 111.484 86.3618 111.087 86.2155 110.752C86.0692 110.418 85.8955 110.153 85.7043 109.972C85.5131 109.791 85.3082 109.697 85.1013 109.697C84.8943 109.697 84.6894 109.791 84.4983 109.972C84.3071 110.153 84.1334 110.418 83.987 110.752C83.8407 111.087 83.7247 111.484 83.6455 111.921C83.5663 112.358 83.5255 112.826 83.5255 113.299L84.0508 113.625L85.1013 113.899L86.0119 113.625L86.677 113.299Z" fill="url(#paint7_linear_13_804)"/>
<path d="M79.3235 113.299C79.3235 112.826 79.2827 112.358 79.2035 111.921C79.1243 111.484 79.0083 111.087 78.8619 110.752C78.7156 110.418 78.5419 110.153 78.3507 109.972C78.1595 109.791 77.9546 109.697 77.7477 109.697C77.5408 109.697 77.3359 109.791 77.1447 109.972C76.9535 110.153 76.7798 110.418 76.6335 110.752C76.4871 111.087 76.3711 111.484 76.2919 111.921C76.2127 112.358 76.1719 112.826 76.1719 113.299L76.6972 113.625L77.7477 113.899L78.6583 113.625L79.3235 113.299Z" fill="url(#paint8_linear_13_804)"/>
<path d="M71.9699 115.55C71.9699 116.023 71.9291 116.492 71.8499 116.929C71.7708 117.366 71.6547 117.763 71.5084 118.097C71.362 118.432 71.1883 118.697 70.9971 118.878C70.806 119.059 70.6011 119.152 70.3941 119.152C70.1872 119.152 69.9823 119.059 69.7911 118.878C69.5999 118.697 69.4262 118.432 69.2799 118.097C69.1336 117.763 69.0175 117.366 68.9383 116.929C68.8591 116.492 68.8184 116.023 68.8184 115.55L69.3436 115.224L70.3941 114.95L71.3047 115.224L71.9699 115.55Z" fill="url(#paint9_linear_13_804)"/>
<path d="M76.172 115.55C76.172 116.023 76.1176 116.492 76.012 116.929C75.9064 117.366 75.7517 117.763 75.5566 118.097C75.3615 118.432 75.1299 118.697 74.875 118.878C74.62 119.059 74.3468 119.152 74.0709 119.152C73.795 119.152 73.5218 119.059 73.2669 118.878C73.012 118.697 72.7804 118.432 72.5853 118.097C72.3902 117.763 72.2354 117.366 72.1298 116.929C72.0243 116.492 71.9699 116.023 71.9699 115.55L72.6702 115.224L74.0709 114.95L75.2851 115.224L76.172 115.55Z" fill="url(#paint10_linear_13_804)"/>
<path d="M83.5255 115.55C83.5255 116.023 83.4712 116.492 83.3656 116.929C83.26 117.366 83.1053 117.763 82.9102 118.097C82.7151 118.432 82.4834 118.697 82.2285 118.878C81.9736 119.059 81.7004 119.152 81.4245 119.152C81.1486 119.152 80.8754 119.059 80.6205 118.878C80.3656 118.697 80.134 118.432 79.9389 118.097C79.7438 117.763 79.589 117.366 79.4834 116.929C79.3778 116.492 79.3235 116.023 79.3235 115.55L80.0238 115.224L81.4245 114.95L82.6386 115.224L83.5255 115.55Z" fill="url(#paint11_linear_13_804)"/>
<path d="M86.677 115.55C86.677 116.023 86.6363 116.492 86.5571 116.929C86.4779 117.366 86.3618 117.763 86.2155 118.097C86.0692 118.432 85.8955 118.697 85.7043 118.878C85.5131 119.059 85.3082 119.152 85.1013 119.152C84.8943 119.152 84.6894 119.059 84.4983 118.878C84.3071 118.697 84.1334 118.432 83.987 118.097C83.8407 117.763 83.7247 117.366 83.6455 116.929C83.5663 116.492 83.5255 116.023 83.5255 115.55L84.0508 115.224L85.1013 114.95L86.0119 115.224L86.677 115.55Z" fill="url(#paint12_linear_13_804)"/>
<path d="M79.3235 115.55C79.3235 116.023 79.2827 116.492 79.2035 116.929C79.1243 117.366 79.0083 117.763 78.8619 118.097C78.7156 118.432 78.5419 118.697 78.3507 118.878C78.1595 119.059 77.9546 119.152 77.7477 119.152C77.5408 119.152 77.3359 119.059 77.1447 118.878C76.9535 118.697 76.7798 118.432 76.6335 118.097C76.4871 117.763 76.3711 117.366 76.2919 116.929C76.2127 116.492 76.1719 116.023 76.1719 115.55L76.6972 115.224L77.7477 114.95L78.6583 115.224L79.3235 115.55Z" fill="url(#paint13_linear_13_804)"/>
<path d="M81.4245 67.677C81.4245 79.2807 82.4441 97.0913 77.2224 97.0913C72.0008 97.0913 73.5457 79.2807 73.5457 67.677C73.5457 56.0734 62.5152 55.0709 77.2224 55.0709C93.5054 55.0709 81.4245 56.0734 81.4245 67.677Z" fill="url(#paint14_linear_13_804)"/>
<ellipse cx="63.0406" cy="71.3539" rx="11.0304" ry="13.1314" fill="url(#paint15_linear_13_804)"/>
<path d="M73.0204 72.9296C73.0204 74.6702 68.7875 76.0811 63.5658 76.0811C58.3442 76.0811 53.586 72.5691 53.586 70.8286C53.586 70.8286 58.3442 69.7781 63.5658 69.7781C68.7875 69.7781 73.0204 71.1891 73.0204 72.9296Z" fill="#363636"/>
<ellipse rx="11.0304" ry="13.1314" transform="matrix(-1 0 0 1 92.4549 71.3539)" fill="url(#paint16_linear_13_804)"/>
<path d="M82.475 72.9296C82.475 74.6702 86.708 76.0811 91.9296 76.0811C97.1513 76.0811 101.909 72.5691 101.909 70.8286C101.909 70.8286 97.1513 69.7781 91.9296 69.7781C86.708 69.7781 82.475 71.1891 82.475 72.9296Z" fill="#363636"/>
<path d="M98.0096 28.0022L110.461 23.5362L112.852 35.9272L101.909 57.6972L84.576 53.1617L98.0096 28.0022Z" fill="url(#paint17_linear_13_804)" stroke="#58561F"/>
<path d="M36.3612 39.7631L38.435 26.6986L50.4485 30.5623L70.9194 53.4952L51.485 57.172L36.3612 39.7631Z" fill="url(#paint18_linear_13_804)" stroke="#58561F"/>
<path d="M67.7679 23.0181L77.7477 12L86.6771 23.0181V55.0709H67.7679V23.0181Z" fill="url(#paint19_linear_13_804)" stroke="#58561F"/>
<path d="M47.2829 58.2225L74.5962 55.0709" stroke="#58561F" stroke-width="3" stroke-linecap="round"/>
<path d="M106.637 58.2225L80.374 55.0709" stroke="#58561F" stroke-width="3" stroke-linecap="round"/>
<ellipse cx="77.2225" cy="54.5457" rx="4.20204" ry="5.77781" fill="url(#paint20_linear_13_804)"/>
<ellipse cx="77.2225" cy="54.0204" rx="2.10102" ry="3.15153" fill="url(#paint21_radial_13_804)"/>
<path d="M97.7074 115.475C97.7074 118.957 85.345 129.658 77.2224 129.658C69.0999 129.658 58.8385 118.956 58.8385 115.475C58.8385 111.994 69.0999 119.152 77.2224 119.152C85.345 119.152 97.7074 111.994 97.7074 115.475Z" fill="url(#paint22_linear_13_804)"/>
<path d="M17 148V152C18.6667 153 22 156.5 25 161L22.5 163L23.5 164.5L26 163L27.5 165L30 163L28.5 161.5L30 159.5L28.5 158L27 159.5C23 155 21 150.5 21 149L17 148Z" fill="url(#paint23_linear_13_804)"/>
<path d="M39.588 157.53C40.692 157.71 41.538 158.124 42.126 158.772C42.714 159.408 43.008 160.2 43.008 161.148C43.008 161.88 42.816 162.558 42.432 163.182C42.048 163.794 41.46 164.286 40.668 164.658C39.888 165.03 38.928 165.216 37.788 165.216C36.9 165.216 36.024 165.102 35.16 164.874C34.308 164.634 33.582 164.298 32.982 163.866L34.116 161.634C34.596 161.994 35.148 162.276 35.772 162.48C36.408 162.672 37.056 162.768 37.716 162.768C38.448 162.768 39.024 162.63 39.444 162.354C39.864 162.066 40.074 161.664 40.074 161.148C40.074 160.116 39.288 159.6 37.716 159.6H36.384V157.674L38.976 154.74H33.612V152.4H42.432V154.29L39.588 157.53Z" fill="url(#paint24_linear_13_804)"/>
<path d="M133.116 162.624V165H123.594V163.11L128.454 158.52C128.97 158.028 129.318 157.608 129.498 157.26C129.678 156.9 129.768 156.546 129.768 156.198C129.768 155.694 129.594 155.31 129.246 155.046C128.91 154.77 128.412 154.632 127.752 154.632C127.2 154.632 126.702 154.74 126.258 154.956C125.814 155.16 125.442 155.472 125.142 155.892L123.018 154.524C123.51 153.792 124.188 153.222 125.052 152.814C125.916 152.394 126.906 152.184 128.022 152.184C128.958 152.184 129.774 152.34 130.47 152.652C131.178 152.952 131.724 153.384 132.108 153.948C132.504 154.5 132.702 155.154 132.702 155.91C132.702 156.594 132.558 157.236 132.27 157.836C131.982 158.436 131.424 159.12 130.596 159.888L127.698 162.624H133.116Z" fill="url(#paint25_linear_13_804)"/>
<path d="M111.23 165C108.297 162.757 102.355 157.562 102.049 154.729C101.666 151.188 103.579 148 105.874 148C108.169 148 110.082 150.479 110.465 151.896C110.847 150.448 112.454 148 114.29 148C116.585 148 119.645 150.125 118.88 154.729C118.268 158.412 113.525 163.111 111.23 165Z" fill="url(#paint26_linear_13_804)"/>
<path d="M77.5306 143V170" stroke="url(#paint27_linear_13_804)"/>
<path d="M61.551 154.571L67.6122 147.959M67.6122 147.959L73.6735 154.571M67.6122 147.959L77.5306 143" stroke="url(#paint28_linear_13_804)"/>
<path d="M92.4081 154.571L86.3469 147.959M86.3469 147.959L80.2857 154.571M86.3469 147.959L76.9796 143" stroke="url(#paint29_linear_13_804)"/>
<path d="M92.9592 154.02C92.9592 155.043 92.2625 156.024 91.0225 156.748C89.7825 157.471 88.1006 157.878 86.3469 157.878C84.5932 157.878 82.9114 157.471 81.6714 156.748C80.4313 156.024 79.7347 155.043 79.7347 154.02L86.3469 154.02L92.9592 154.02Z" fill="url(#paint30_linear_13_804)"/>
<path d="M61 154.02C61 155.043 61.6966 156.024 62.9367 156.748C64.1767 157.471 65.8586 157.878 67.6122 157.878C69.3659 157.878 71.0478 157.471 72.2878 156.748C73.5278 156.024 74.2245 155.043 74.2245 154.02L67.6122 154.02L61 154.02Z" fill="url(#paint31_linear_13_804)"/>
<defs>
<linearGradient id="paint0_linear_13_804" x1="75" y1="184.5" x2="75" y2="210" gradientUnits="userSpaceOnUse">
<stop stop-color="#B4A34E"/>
<stop offset="1" stop-color="#58561F"/>
</linearGradient>
<linearGradient id="paint1_linear_13_804" x1="76.6972" y1="23.5556" x2="76.6972" y2="86.5862" gradientUnits="userSpaceOnUse">
<stop stop-color="#B4A34E"/>
<stop offset="1" stop-color="#58561F"/>
</linearGradient>
<linearGradient id="paint2_linear_13_804" x1="78.273" y1="87.6368" x2="78.273" y2="128.607" gradientUnits="userSpaceOnUse">
<stop offset="0.315625" stop-color="#58561F"/>
<stop offset="1" stop-color="#B4A34E"/>
</linearGradient>
<linearGradient id="paint3_linear_13_804" x1="76.6972" y1="48.7679" x2="76.6972" y2="113.374" gradientUnits="userSpaceOnUse">
<stop stop-color="#B4A34E"/>
<stop offset="1" stop-color="#58561F"/>
</linearGradient>
<linearGradient id="paint4_linear_13_804" x1="70.3941" y1="109.697" x2="70.3941" y2="113.899" gradientUnits="userSpaceOnUse">
<stop stop-color="#B4A34E"/>
<stop offset="1" stop-color="#58561F"/>
</linearGradient>
<linearGradient id="paint5_linear_13_804" x1="74.0709" y1="109.697" x2="74.0709" y2="113.899" gradientUnits="userSpaceOnUse">
<stop stop-color="#B4A34E"/>
<stop offset="1" stop-color="#58561F"/>
</linearGradient>
<linearGradient id="paint6_linear_13_804" x1="81.4245" y1="109.697" x2="81.4245" y2="113.899" gradientUnits="userSpaceOnUse">
<stop stop-color="#B4A34E"/>
<stop offset="1" stop-color="#58561F"/>
</linearGradient>
<linearGradient id="paint7_linear_13_804" x1="85.1013" y1="109.697" x2="85.1013" y2="113.899" gradientUnits="userSpaceOnUse">
<stop stop-color="#B4A34E"/>
<stop offset="1" stop-color="#58561F"/>
</linearGradient>
<linearGradient id="paint8_linear_13_804" x1="77.7477" y1="109.697" x2="77.7477" y2="113.899" gradientUnits="userSpaceOnUse">
<stop stop-color="#B4A34E"/>
<stop offset="1" stop-color="#58561F"/>
</linearGradient>
<linearGradient id="paint9_linear_13_804" x1="70.3941" y1="119.152" x2="70.3941" y2="114.95" gradientUnits="userSpaceOnUse">
<stop stop-color="#B4A34E"/>
<stop offset="1" stop-color="#58561F"/>
</linearGradient>
<linearGradient id="paint10_linear_13_804" x1="74.0709" y1="119.152" x2="74.0709" y2="114.95" gradientUnits="userSpaceOnUse">
<stop stop-color="#B4A34E"/>
<stop offset="1" stop-color="#58561F"/>
</linearGradient>
<linearGradient id="paint11_linear_13_804" x1="81.4245" y1="119.152" x2="81.4245" y2="114.95" gradientUnits="userSpaceOnUse">
<stop stop-color="#B4A34E"/>
<stop offset="1" stop-color="#58561F"/>
</linearGradient>
<linearGradient id="paint12_linear_13_804" x1="85.1013" y1="119.152" x2="85.1013" y2="114.95" gradientUnits="userSpaceOnUse">
<stop stop-color="#B4A34E"/>
<stop offset="1" stop-color="#58561F"/>
</linearGradient>
<linearGradient id="paint13_linear_13_804" x1="77.7477" y1="119.152" x2="77.7477" y2="114.95" gradientUnits="userSpaceOnUse">
<stop stop-color="#B4A34E"/>
<stop offset="1" stop-color="#58561F"/>
</linearGradient>
<linearGradient id="paint14_linear_13_804" x1="77.6554" y1="55.0709" x2="77.6554" y2="97.0913" gradientUnits="userSpaceOnUse">
<stop stop-color="#58561F"/>
<stop offset="1" stop-color="#B4A34E"/>
</linearGradient>
<linearGradient id="paint15_linear_13_804" x1="63.0406" y1="58.2225" x2="63.0406" y2="84.4852" gradientUnits="userSpaceOnUse">
<stop stop-color="#58561F"/>
<stop offset="1" stop-color="#B4A34E"/>
</linearGradient>
<linearGradient id="paint16_linear_13_804" x1="11.0304" y1="0" x2="11.0304" y2="26.2628" gradientUnits="userSpaceOnUse">
<stop stop-color="#58561F"/>
<stop offset="1" stop-color="#B4A34E"/>
</linearGradient>
<linearGradient id="paint17_linear_13_804" x1="110.049" y1="23.3161" x2="91.9973" y2="57.1242" gradientUnits="userSpaceOnUse">
<stop stop-color="#B4A34E"/>
<stop offset="1" stop-color="#58561F"/>
</linearGradient>
<linearGradient id="paint18_linear_13_804" x1="38.0437" y1="26.9542" x2="59.0011" y2="59.0419" gradientUnits="userSpaceOnUse">
<stop stop-color="#B4A34E"/>
<stop offset="1" stop-color="#58561F"/>
</linearGradient>
<linearGradient id="paint19_linear_13_804" x1="77.2225" y1="12" x2="77.2225" y2="55.0709" gradientUnits="userSpaceOnUse">
<stop stop-color="#B4A34E"/>
<stop offset="1" stop-color="#58561F"/>
</linearGradient>
<linearGradient id="paint20_linear_13_804" x1="77.2225" y1="48.7679" x2="77.2225" y2="60.3235" gradientUnits="userSpaceOnUse">
<stop stop-color="#58561F"/>
<stop offset="1" stop-color="#B4A34E"/>
</linearGradient>
<radialGradient id="paint21_radial_13_804" cx="0" cy="0" r="1" gradientUnits="userSpaceOnUse" gradientTransform="translate(78.273 52.4447) rotate(102.529) scale(4.84261 3.22841)">
<stop stop-color="#B4A34E"/>
<stop offset="1" stop-color="#58561F"/>
</radialGradient>
<linearGradient id="paint22_linear_13_804" x1="78.2729" y1="114.521" x2="78.2729" y2="129.658" gradientUnits="userSpaceOnUse">
<stop stop-color="#B4A34E"/>
<stop offset="1" stop-color="#58561F"/>
</linearGradient>
<linearGradient id="paint23_linear_13_804" x1="24.25" y1="147" x2="24.25" y2="165" gradientUnits="userSpaceOnUse">
<stop stop-color="#B4A34E"/>
<stop offset="1" stop-color="#58561F"/>
</linearGradient>
<linearGradient id="paint24_linear_13_804" x1="38.5" y1="148" x2="38.5" y2="170" gradientUnits="userSpaceOnUse">
<stop stop-color="#B4A34E"/>
<stop offset="1" stop-color="#58561F"/>
</linearGradient>
<linearGradient id="paint25_linear_13_804" x1="128.5" y1="148" x2="128.5" y2="170" gradientUnits="userSpaceOnUse">
<stop stop-color="#B4A34E"/>
<stop offset="1" stop-color="#58561F"/>
</linearGradient>
<linearGradient id="paint26_linear_13_804" x1="110.871" y1="147.969" x2="110.871" y2="164.969" gradientUnits="userSpaceOnUse">
<stop stop-color="#B4A34E"/>
<stop offset="1" stop-color="#58561F"/>
</linearGradient>
<linearGradient id="paint27_linear_13_804" x1="78.0577" y1="143" x2="78.0577" y2="170.651" gradientUnits="userSpaceOnUse">
<stop stop-color="#B4A34E"/>
<stop offset="1" stop-color="#58561F"/>
</linearGradient>
<linearGradient id="paint28_linear_13_804" x1="69.7121" y1="143" x2="69.7121" y2="154.286" gradientUnits="userSpaceOnUse">
<stop stop-color="#B4A34E"/>
<stop offset="1" stop-color="#58561F"/>
</linearGradient>
<linearGradient id="paint29_linear_13_804" x1="84.2471" y1="143" x2="84.2471" y2="154.286" gradientUnits="userSpaceOnUse">
<stop stop-color="#B4A34E"/>
<stop offset="1" stop-color="#58561F"/>
</linearGradient>
<linearGradient id="paint30_linear_13_804" x1="86.3469" y1="150.163" x2="86.3469" y2="157.878" gradientUnits="userSpaceOnUse">
<stop stop-color="#B4A34E"/>
<stop offset="1" stop-color="#58561F"/>
</linearGradient>
<linearGradient id="paint31_linear_13_804" x1="67.6122" y1="150.163" x2="67.6122" y2="157.878" gradientUnits="userSpaceOnUse">
<stop stop-color="#B4A34E"/>
<stop offset="1" stop-color="#58561F"/>
</linearGradient>
</defs>
</svg>
