<svg width="150" height="225" viewBox="0 0 150 225" fill="none" xmlns="http://www.w3.org/2000/svg">
<path d="M0 7C0 3.13401 3.13401 0 7 0H143C146.866 0 150 3.13401 150 7V218C150 221.866 146.866 225 143 225H7C3.13401 225 0 221.866 0 218V7Z" fill="#363636"/>
<rect x="16.5" y="184.5" width="117" height="25.5" rx="8.5" fill="url(#paint0_linear_10_398)"/>
<path d="M32.192 195.048H29.056V193.2H37.596V195.048H34.46V203H32.192V195.048ZM47.8043 193.2V203H45.5363V198.982H41.0843V203H38.8163V193.2H41.0843V197.064H45.5363V193.2H47.8043ZM57.7109 201.18V203H50.1229V193.2H57.5289V195.02H52.3769V197.148H56.9269V198.912H52.3769V201.18H57.7109ZM67.4452 193.2H69.7132V201.152H74.6272V203H67.4452V193.2ZM80.4764 203.168C79.459 203.168 78.5397 202.949 77.7184 202.51C76.9064 202.071 76.267 201.469 75.8004 200.704C75.343 199.929 75.1144 199.061 75.1144 198.1C75.1144 197.139 75.343 196.275 75.8004 195.51C76.267 194.735 76.9064 194.129 77.7184 193.69C78.5397 193.251 79.459 193.032 80.4764 193.032C81.4937 193.032 82.4084 193.251 83.2204 193.69C84.0324 194.129 84.6717 194.735 85.1384 195.51C85.605 196.275 85.8384 197.139 85.8384 198.1C85.8384 199.061 85.605 199.929 85.1384 200.704C84.6717 201.469 84.0324 202.071 83.2204 202.51C82.4084 202.949 81.4937 203.168 80.4764 203.168ZM80.4764 201.236C81.055 201.236 81.5777 201.105 82.0444 200.844C82.511 200.573 82.875 200.2 83.1364 199.724C83.407 199.248 83.5424 198.707 83.5424 198.1C83.5424 197.493 83.407 196.952 83.1364 196.476C82.875 196 82.511 195.631 82.0444 195.37C81.5777 195.099 81.055 194.964 80.4764 194.964C79.8977 194.964 79.375 195.099 78.9084 195.37C78.4417 195.631 78.073 196 77.8024 196.476C77.541 196.952 77.4104 197.493 77.4104 198.1C77.4104 198.707 77.541 199.248 77.8024 199.724C78.073 200.2 78.4417 200.573 78.9084 200.844C79.375 201.105 79.8977 201.236 80.4764 201.236ZM96.6367 193.2L92.3947 203H90.1547L85.9267 193.2H88.3767L91.3587 200.2L94.3827 193.2H96.6367ZM105.043 201.18V203H97.455V193.2H104.861V195.02H99.709V197.148H104.259V198.912H99.709V201.18H105.043ZM113.092 203L111.202 200.27H111.09H109.116V203H106.848V193.2H111.09C111.958 193.2 112.709 193.345 113.344 193.634C113.988 193.923 114.482 194.334 114.828 194.866C115.173 195.398 115.346 196.028 115.346 196.756C115.346 197.484 115.168 198.114 114.814 198.646C114.468 199.169 113.974 199.57 113.33 199.85L115.528 203H113.092ZM113.05 196.756C113.05 196.205 112.872 195.785 112.518 195.496C112.163 195.197 111.645 195.048 110.964 195.048H109.116V198.464H110.964C111.645 198.464 112.163 198.315 112.518 198.016C112.872 197.717 113.05 197.297 113.05 196.756ZM120.362 203.168C119.588 203.168 118.836 203.065 118.108 202.86C117.39 202.645 116.811 202.37 116.372 202.034L117.142 200.326C117.562 200.634 118.062 200.881 118.64 201.068C119.219 201.255 119.798 201.348 120.376 201.348C121.02 201.348 121.496 201.255 121.804 201.068C122.112 200.872 122.266 200.615 122.266 200.298C122.266 200.065 122.173 199.873 121.986 199.724C121.809 199.565 121.576 199.439 121.286 199.346C121.006 199.253 120.624 199.15 120.138 199.038C119.392 198.861 118.78 198.683 118.304 198.506C117.828 198.329 117.418 198.044 117.072 197.652C116.736 197.26 116.568 196.737 116.568 196.084C116.568 195.515 116.722 195.001 117.03 194.544C117.338 194.077 117.8 193.709 118.416 193.438C119.042 193.167 119.802 193.032 120.698 193.032C121.324 193.032 121.935 193.107 122.532 193.256C123.13 193.405 123.652 193.62 124.1 193.9L123.4 195.622C122.495 195.109 121.59 194.852 120.684 194.852C120.05 194.852 119.578 194.955 119.27 195.16C118.972 195.365 118.822 195.636 118.822 195.972C118.822 196.308 118.995 196.56 119.34 196.728C119.695 196.887 120.232 197.045 120.95 197.204C121.697 197.381 122.308 197.559 122.784 197.736C123.26 197.913 123.666 198.193 124.002 198.576C124.348 198.959 124.52 199.477 124.52 200.13C124.52 200.69 124.362 201.203 124.044 201.67C123.736 202.127 123.27 202.491 122.644 202.762C122.019 203.033 121.258 203.168 120.362 203.168Z" fill="#534100"/>
<path d="M107.116 82.8487C107.116 108.053 90.2116 128.485 76.0582 134.19C60.4211 129.753 45 108.053 45 82.8487C45 57.6443 58.9052 37.2122 76.0582 37.2122C93.2112 37.2122 107.116 57.6443 107.116 82.8487Z" fill="url(#paint1_linear_10_398)"/>
<path d="M58.1214 120.879C59.6004 113.484 73.7318 101.23 58.1214 94.8917C51.0497 92.0203 50.5153 86.0179 54.3184 84.1164C52.4169 78.2006 50.5153 65.4815 58.1214 61.932L60.023 51.7905C67.4178 54.1146 76.7742 56.1007 78.8025 73.3411C80.8308 90.5816 89.5778 76.5103 96.7857 73.3411C100.377 77.5667 104.544 89.7736 90.2116 99.3286C82.6055 104.399 90.2116 113.907 96.7857 115.808C115.801 92.9902 110.495 42.2829 75.6333 35.9445C47.7443 38.4799 32.7678 84.1164 58.1214 120.879Z" fill="url(#paint2_linear_10_398)"/>
<path d="M69.2949 94.8917C69.2949 96.9921 65.5483 99.3286 61.6043 99.3286C57.6602 99.3286 52.815 90.4548 52.815 90.4548C52.815 90.4548 56.5616 92.3564 60.5056 92.3564C63.4166 92.8556 69.2949 94.8917 69.2949 94.8917Z" fill="#363636"/>
<path d="M83.2394 94.8917C83.2394 96.9921 86.986 99.3286 90.93 99.3286C94.874 99.3286 99.7192 90.4548 99.7192 90.4548C99.7192 90.4548 95.9727 92.3564 92.0286 92.3564C89.1176 92.8556 83.2394 94.8917 83.2394 94.8917Z" fill="#363636"/>
<path d="M69.2949 117.076C72.4641 122.693 79.4363 121.57 81.9717 117.076" stroke="url(#paint3_linear_10_398)" stroke-linecap="round"/>
<path d="M114.527 66.4073C111.584 76.4884 97.7362 72.7306 81.5352 68.0011C65.3341 63.2715 50.332 53.985 53.2749 43.904C56.2179 33.823 75.9914 26.7649 92.1925 31.4944C108.394 36.224 117.47 56.3263 114.527 66.4073Z" fill="url(#paint4_linear_10_398)"/>
<path d="M103.279 47.9905C101.905 52.6984 95.1714 50.8657 87.2918 48.5654C79.4122 46.2652 72.0902 41.8361 73.4646 37.1282C74.839 32.4204 84.3892 29.2164 92.2688 31.5167C100.148 33.817 104.654 43.2826 103.279 47.9905Z" fill="url(#paint5_linear_10_398)"/>
<path d="M90.2646 36.2344C88.5744 35.3893 85.3207 34.5864 85.8278 38.1359L92.1662 43.2067L94.0677 38.1359C94.0677 36.0231 93.3071 32.6849 90.2646 36.2344Z" fill="url(#paint6_linear_10_398)"/>
<path d="M17 148V152C18.6667 153 22 156.5 25 161L22.5 163L23.5 164.5L26 163L27.5 165L30 163L28.5 161.5L30 159.5L28.5 158L27 159.5C23 155 21 150.5 21 149L17 148Z" fill="url(#paint7_linear_10_398)"/>
<path d="M38.562 152.4V165H35.646V154.74H33.126V152.4H38.562Z" fill="url(#paint8_linear_10_398)"/>
<path d="M135.24 162.354H133.188V165H130.344V162.354H123.558V160.392L129.498 152.4H132.558L127.05 159.978H130.434V157.62H133.188V159.978H135.24V162.354Z" fill="url(#paint9_linear_10_398)"/>
<path d="M111.23 165C108.297 162.757 102.355 157.562 102.049 154.729C101.666 151.188 103.579 148 105.874 148C108.169 148 110.082 150.479 110.465 151.896C110.847 150.448 112.454 148 114.29 148C116.585 148 119.645 150.125 118.88 154.729C118.268 158.412 113.525 163.111 111.23 165Z" fill="url(#paint10_linear_10_398)"/>
<path d="M77 141C76.5641 165 76.5641 165 60 165" stroke="url(#paint11_linear_10_398)" stroke-width="2"/>
<path d="M77 139L82.9822 148.877L71.4377 149.119L77 139ZM78.1884 147.964C78.3223 152.215 78.5403 155.329 79.0003 157.63C79.4595 159.928 80.1348 161.279 81.0761 162.134C82.0192 162.992 83.375 163.485 85.5023 163.741C87.6371 163.998 90.3816 164 94 164V166C90.4295 166 87.545 166.002 85.2634 165.727C82.9744 165.452 81.1265 164.883 79.731 163.614C78.3338 162.345 77.5355 160.507 77.0391 158.022C76.5433 155.541 76.3233 152.279 76.1894 148.027L78.1884 147.964Z" fill="url(#paint12_linear_10_398)"/>
<defs>
<linearGradient id="paint0_linear_10_398" x1="75" y1="184.5" x2="75" y2="210" gradientUnits="userSpaceOnUse">
<stop stop-color="#B4A34E"/>
<stop offset="1" stop-color="#58561F"/>
</linearGradient>
<linearGradient id="paint1_linear_10_398" x1="76.0582" y1="37.2122" x2="76.0582" y2="134.19" gradientUnits="userSpaceOnUse">
<stop stop-color="#B4A34E"/>
<stop offset="1" stop-color="#58561F"/>
</linearGradient>
<linearGradient id="paint2_linear_10_398" x1="76.2149" y1="37.2122" x2="76.2149" y2="120.879" gradientUnits="userSpaceOnUse">
<stop stop-color="#58561F"/>
<stop offset="1" stop-color="#B4A34E"/>
</linearGradient>
<linearGradient id="paint3_linear_10_398" x1="75.6333" y1="117.076" x2="75.6333" y2="120.879" gradientUnits="userSpaceOnUse">
<stop stop-color="#B4A34E"/>
<stop offset="1" stop-color="#58561F"/>
</linearGradient>
<linearGradient id="paint4_linear_10_398" x1="90.9171" y1="31.1221" x2="80.2597" y2="67.6288" gradientUnits="userSpaceOnUse">
<stop stop-color="#B4A34E"/>
<stop offset="1" stop-color="#58561F"/>
</linearGradient>
<linearGradient id="paint5_linear_10_398" x1="91.6485" y1="31.3356" x2="86.6715" y2="48.3844" gradientUnits="userSpaceOnUse">
<stop stop-color="#B4A34E"/>
<stop offset="1" stop-color="#58561F"/>
</linearGradient>
<linearGradient id="paint6_linear_10_398" x1="89.9212" y1="34.6768" x2="89.9212" y2="43.2067" gradientUnits="userSpaceOnUse">
<stop stop-color="#58561F"/>
<stop offset="1" stop-color="#B4A34E"/>
</linearGradient>
<linearGradient id="paint7_linear_10_398" x1="24.25" y1="147" x2="24.25" y2="165" gradientUnits="userSpaceOnUse">
<stop stop-color="#B4A34E"/>
<stop offset="1" stop-color="#58561F"/>
</linearGradient>
<linearGradient id="paint8_linear_10_398" x1="37" y1="148" x2="37" y2="170" gradientUnits="userSpaceOnUse">
<stop stop-color="#B4A34E"/>
<stop offset="1" stop-color="#58561F"/>
</linearGradient>
<linearGradient id="paint9_linear_10_398" x1="129.5" y1="148" x2="129.5" y2="170" gradientUnits="userSpaceOnUse">
<stop stop-color="#B4A34E"/>
<stop offset="1" stop-color="#58561F"/>
</linearGradient>
<linearGradient id="paint10_linear_10_398" x1="110.871" y1="147.969" x2="110.871" y2="164.969" gradientUnits="userSpaceOnUse">
<stop stop-color="#B4A34E"/>
<stop offset="1" stop-color="#58561F"/>
</linearGradient>
<linearGradient id="paint11_linear_10_398" x1="68.5" y1="141" x2="68.5" y2="165" gradientUnits="userSpaceOnUse">
<stop stop-color="#B4A34E"/>
<stop offset="1" stop-color="#58561F"/>
</linearGradient>
<linearGradient id="paint12_linear_10_398" x1="85.5" y1="139" x2="85.5" y2="165" gradientUnits="userSpaceOnUse">
<stop stop-color="#B4A34E"/>
<stop offset="1" stop-color="#58561F"/>
</linearGradient>
</defs>
</svg>
