<svg width="150" height="225" viewBox="0 0 150 225" fill="none" xmlns="http://www.w3.org/2000/svg">
<path d="M0 7C0 3.13401 3.13401 0 7 0H143C146.866 0 150 3.13401 150 7V218C150 221.866 146.866 225 143 225H7C3.13401 225 0 221.866 0 218V7Z" fill="#363636"/>
<rect x="16.5" y="184.5" width="117" height="25.5" rx="8.5" fill="url(#paint0_linear_21_28)"/>
<path d="M37.192 195.048H34.056V193.2H42.596V195.048H39.46V203H37.192V195.048ZM52.8043 193.2V203H50.5363V198.982H46.0843V203H43.8163V193.2H46.0843V197.064H50.5363V193.2H52.8043ZM62.7109 201.18V203H55.1229V193.2H62.5289V195.02H57.3769V197.148H61.9269V198.912H57.3769V201.18H62.7109ZM77.3984 203L77.3844 197.12L74.5004 201.964H73.4784L70.6084 197.246V203H68.4804V193.2H70.3564L74.0244 199.29L77.6364 193.2H79.4984L79.5264 203H77.3984ZM86.5975 203.168C85.5801 203.168 84.6608 202.949 83.8395 202.51C83.0275 202.071 82.3881 201.469 81.9215 200.704C81.4641 199.929 81.2355 199.061 81.2355 198.1C81.2355 197.139 81.4641 196.275 81.9215 195.51C82.3881 194.735 83.0275 194.129 83.8395 193.69C84.6608 193.251 85.5801 193.032 86.5975 193.032C87.6148 193.032 88.5295 193.251 89.3415 193.69C90.1535 194.129 90.7928 194.735 91.2595 195.51C91.7261 196.275 91.9595 197.139 91.9595 198.1C91.9595 199.061 91.7261 199.929 91.2595 200.704C90.7928 201.469 90.1535 202.071 89.3415 202.51C88.5295 202.949 87.6148 203.168 86.5975 203.168ZM86.5975 201.236C87.1761 201.236 87.6988 201.105 88.1655 200.844C88.6321 200.573 88.9961 200.2 89.2575 199.724C89.5281 199.248 89.6635 198.707 89.6635 198.1C89.6635 197.493 89.5281 196.952 89.2575 196.476C88.9961 196 88.6321 195.631 88.1655 195.37C87.6988 195.099 87.1761 194.964 86.5975 194.964C86.0188 194.964 85.4961 195.099 85.0295 195.37C84.5628 195.631 84.1941 196 83.9235 196.476C83.6621 196.952 83.5315 197.493 83.5315 198.1C83.5315 198.707 83.6621 199.248 83.9235 199.724C84.1941 200.2 84.5628 200.573 85.0295 200.844C85.4961 201.105 86.0188 201.236 86.5975 201.236ZM98.41 203.168C97.3926 203.168 96.4733 202.949 95.652 202.51C94.84 202.071 94.2006 201.469 93.734 200.704C93.2766 199.929 93.048 199.061 93.048 198.1C93.048 197.139 93.2766 196.275 93.734 195.51C94.2006 194.735 94.84 194.129 95.652 193.69C96.4733 193.251 97.3926 193.032 98.41 193.032C99.4273 193.032 100.342 193.251 101.154 193.69C101.966 194.129 102.605 194.735 103.072 195.51C103.539 196.275 103.772 197.139 103.772 198.1C103.772 199.061 103.539 199.929 103.072 200.704C102.605 201.469 101.966 202.071 101.154 202.51C100.342 202.949 99.4273 203.168 98.41 203.168ZM98.41 201.236C98.9886 201.236 99.5113 201.105 99.978 200.844C100.445 200.573 100.809 200.2 101.07 199.724C101.341 199.248 101.476 198.707 101.476 198.1C101.476 197.493 101.341 196.952 101.07 196.476C100.809 196 100.445 195.631 99.978 195.37C99.5113 195.099 98.9886 194.964 98.41 194.964C97.8313 194.964 97.3086 195.099 96.842 195.37C96.3753 195.631 96.0066 196 95.736 196.476C95.4746 196.952 95.344 197.493 95.344 198.1C95.344 198.707 95.4746 199.248 95.736 199.724C96.0066 200.2 96.3753 200.573 96.842 200.844C97.3086 201.105 97.8313 201.236 98.41 201.236ZM114.464 193.2V203H112.602L107.716 197.05V203H105.476V193.2H107.352L112.224 199.15V193.2H114.464Z" fill="#534100"/>
<path d="M33.5 43.3597C66.7472 27.9451 102 59.3598 64 82.8598C59.5 89.3598 81.9522 90.3951 81 94.8598C81 116.86 51.5591 112.864 31 107.86C52 147.86 117.2 134.56 118 79.3597C118.8 24.1597 53 8.85981 33.5 43.3597Z" fill="url(#paint1_linear_21_28)"/>
<path d="M106.5 70.6779C106.5 72.9373 101.765 78.8597 95.9231 78.8597C90.0816 78.8597 84.5 72.9373 84.5 70.6779C84.5 70.6779 90.0816 69.8597 95.9231 69.8597C101.765 69.8597 106.5 70.6779 106.5 70.6779Z" fill="#363636"/>
<path d="M108 78.2905C108 79.9474 102.799 86.2905 97 86.2905C91.201 86.2905 85.5 79.9474 85.5 78.2905C85.5 76.6337 91.201 80.2905 97 80.2905C102.799 80.2905 108 76.6337 108 78.2905Z" fill="url(#paint2_linear_21_28)"/>
<path d="M104.5 82.2174C104.5 83.5931 100.108 88.8597 95.2111 88.8597C90.3142 88.8597 85.5 83.5931 85.5 82.2174C85.5 80.8417 90.3142 83.878 95.2111 83.878C100.108 83.878 104.5 80.8417 104.5 82.2174Z" fill="url(#paint3_linear_21_28)"/>
<path d="M101.5 85.1663C101.5 86.3455 97.8015 90.8597 93.6778 90.8597C89.5541 90.8597 85.5 86.3455 85.5 85.1663C85.5 83.9872 89.5541 86.5897 93.6778 86.5897C97.8015 86.5897 101.5 83.9872 101.5 85.1663Z" fill="url(#paint4_linear_21_28)"/>
<path d="M97 95C93.4 100.6 84 101.667 80 101.5L77.5 105L76 107C88.8 112.6 95.3333 101.333 97 95Z" fill="#363636"/>
<path d="M17 148V152C18.6667 153 22 156.5 25 161L22.5 163L23.5 164.5L26 163L27.5 165L30 163L28.5 161.5L30 159.5L28.5 158L27 159.5C23 155 21 150.5 21 149L17 148Z" fill="url(#paint5_linear_21_28)"/>
<path d="M43.116 162.624V165H33.594V163.11L38.454 158.52C38.97 158.028 39.318 157.608 39.498 157.26C39.678 156.9 39.768 156.546 39.768 156.198C39.768 155.694 39.594 155.31 39.246 155.046C38.91 154.77 38.412 154.632 37.752 154.632C37.2 154.632 36.702 154.74 36.258 154.956C35.814 155.16 35.442 155.472 35.142 155.892L33.018 154.524C33.51 153.792 34.188 153.222 35.052 152.814C35.916 152.394 36.906 152.184 38.022 152.184C38.958 152.184 39.774 152.34 40.47 152.652C41.178 152.952 41.724 153.384 42.108 153.948C42.504 154.5 42.702 155.154 42.702 155.91C42.702 156.594 42.558 157.236 42.27 157.836C41.982 158.436 41.424 159.12 40.596 159.888L37.698 162.624H43.116Z" fill="url(#paint6_linear_21_28)"/>
<path d="M135.24 162.354H133.188V165H130.344V162.354H123.558V160.392L129.498 152.4H132.558L127.05 159.978H130.434V157.62H133.188V159.978H135.24V162.354Z" fill="url(#paint7_linear_21_28)"/>
<path d="M111.23 165C108.297 162.757 102.355 157.562 102.049 154.729C101.666 151.188 103.579 148 105.874 148C108.169 148 110.082 150.479 110.465 151.896C110.847 150.448 112.454 148 114.29 148C116.585 148 119.645 150.125 118.88 154.729C118.268 158.412 113.525 163.111 111.23 165Z" fill="url(#paint8_linear_21_28)"/>
<path d="M85.964 168.4V172H69.368V169.156L79.916 156.376H69.584V152.776H85.676V155.62L75.092 168.4H85.964Z" fill="url(#paint9_linear_21_28)"/>
<path d="M80.964 162.4V166H64.368V163.156L74.916 150.376H64.584V146.776H80.676V149.62L70.092 162.4H80.964Z" fill="url(#paint10_linear_21_28)"/>
<defs>
<linearGradient id="paint0_linear_21_28" x1="75" y1="184.5" x2="75" y2="210" gradientUnits="userSpaceOnUse">
<stop stop-color="#B4A34E"/>
<stop offset="1" stop-color="#58561F"/>
</linearGradient>
<linearGradient id="paint1_linear_21_28" x1="70.5044" y1="27.3083" x2="70.5044" y2="127.101" gradientUnits="userSpaceOnUse">
<stop stop-color="#B4A34E"/>
<stop offset="1" stop-color="#58561F"/>
</linearGradient>
<linearGradient id="paint2_linear_21_28" x1="96.75" y1="77.8597" x2="96.75" y2="86.2905" gradientUnits="userSpaceOnUse">
<stop stop-color="#58561F"/>
<stop offset="1" stop-color="#B4A34E"/>
</linearGradient>
<linearGradient id="paint3_linear_21_28" x1="95" y1="81.8597" x2="95" y2="88.8597" gradientUnits="userSpaceOnUse">
<stop stop-color="#58561F"/>
<stop offset="1" stop-color="#B4A34E"/>
</linearGradient>
<linearGradient id="paint4_linear_21_28" x1="93.5" y1="84.8597" x2="93.5" y2="90.8597" gradientUnits="userSpaceOnUse">
<stop stop-color="#58561F"/>
<stop offset="1" stop-color="#B4A34E"/>
</linearGradient>
<linearGradient id="paint5_linear_21_28" x1="24.25" y1="147" x2="24.25" y2="165" gradientUnits="userSpaceOnUse">
<stop stop-color="#B4A34E"/>
<stop offset="1" stop-color="#58561F"/>
</linearGradient>
<linearGradient id="paint6_linear_21_28" x1="38.5" y1="148" x2="38.5" y2="170" gradientUnits="userSpaceOnUse">
<stop stop-color="#B4A34E"/>
<stop offset="1" stop-color="#58561F"/>
</linearGradient>
<linearGradient id="paint7_linear_21_28" x1="129.5" y1="148" x2="129.5" y2="170" gradientUnits="userSpaceOnUse">
<stop stop-color="#B4A34E"/>
<stop offset="1" stop-color="#58561F"/>
</linearGradient>
<linearGradient id="paint8_linear_21_28" x1="110.871" y1="147.969" x2="110.871" y2="164.969" gradientUnits="userSpaceOnUse">
<stop stop-color="#B4A34E"/>
<stop offset="1" stop-color="#58561F"/>
</linearGradient>
<linearGradient id="paint9_linear_21_28" x1="79" y1="137" x2="79" y2="178" gradientUnits="userSpaceOnUse">
<stop stop-color="#B4A34E"/>
<stop offset="1" stop-color="#58561F"/>
</linearGradient>
<linearGradient id="paint10_linear_21_28" x1="75.5" y1="131" x2="75.5" y2="175" gradientUnits="userSpaceOnUse">
<stop stop-color="#B4A34E"/>
<stop offset="1" stop-color="#58561F"/>
</linearGradient>
</defs>
</svg>
