<svg width="150" height="225" viewBox="0 0 150 225" fill="none" xmlns="http://www.w3.org/2000/svg">
<path d="M0 7C0 3.13401 3.13401 0 7 0H143C146.866 0 150 3.13401 150 7V218C150 221.866 146.866 225 143 225H7C3.13401 225 0 221.866 0 218V7Z" fill="#363636"/>
<rect x="16.5" y="184.5" width="117" height="25.5" rx="8.5" fill="url(#paint0_linear_16_173)"/>
<path d="M42.192 195.048H39.056V193.2H47.596V195.048H44.46V203H42.192V195.048ZM57.8043 193.2V203H55.5363V198.982H51.0843V203H48.8163V193.2H51.0843V197.064H55.5363V193.2H57.8043ZM67.7109 201.18V203H60.1229V193.2H67.5289V195.02H62.3769V197.148H66.9269V198.912H62.3769V201.18H67.7109ZM76.7004 203.168C75.9257 203.168 75.1744 203.065 74.4464 202.86C73.7277 202.645 73.149 202.37 72.7104 202.034L73.4804 200.326C73.9004 200.634 74.3997 200.881 74.9784 201.068C75.557 201.255 76.1357 201.348 76.7144 201.348C77.3584 201.348 77.8344 201.255 78.1424 201.068C78.4504 200.872 78.6044 200.615 78.6044 200.298C78.6044 200.065 78.511 199.873 78.3244 199.724C78.147 199.565 77.9137 199.439 77.6244 199.346C77.3444 199.253 76.9617 199.15 76.4764 199.038C75.7297 198.861 75.1184 198.683 74.6424 198.506C74.1664 198.329 73.7557 198.044 73.4104 197.652C73.0744 197.26 72.9064 196.737 72.9064 196.084C72.9064 195.515 73.0604 195.001 73.3684 194.544C73.6764 194.077 74.1384 193.709 74.7544 193.438C75.3797 193.167 76.1404 193.032 77.0364 193.032C77.6617 193.032 78.273 193.107 78.8704 193.256C79.4677 193.405 79.9904 193.62 80.4384 193.9L79.7384 195.622C78.833 195.109 77.9277 194.852 77.0224 194.852C76.3877 194.852 75.9164 194.955 75.6084 195.16C75.3097 195.365 75.1604 195.636 75.1604 195.972C75.1604 196.308 75.333 196.56 75.6784 196.728C76.033 196.887 76.5697 197.045 77.2884 197.204C78.035 197.381 78.6464 197.559 79.1224 197.736C79.5984 197.913 80.0044 198.193 80.3404 198.576C80.6857 198.959 80.8584 199.477 80.8584 200.13C80.8584 200.69 80.6997 201.203 80.3824 201.67C80.0744 202.127 79.6077 202.491 78.9824 202.762C78.357 203.033 77.5964 203.168 76.7004 203.168ZM84.3014 195.048H81.1654V193.2H89.7054V195.048H86.5694V203H84.3014V195.048ZM96.8875 200.9H92.3375L91.4695 203H89.1455L93.5135 193.2H95.7535L100.135 203H97.7555L96.8875 200.9ZM96.1735 199.178L94.6195 195.426L93.0655 199.178H96.1735ZM107.396 203L105.506 200.27H105.394H103.42V203H101.152V193.2H105.394C106.262 193.2 107.014 193.345 107.648 193.634C108.292 193.923 108.787 194.334 109.132 194.866C109.478 195.398 109.65 196.028 109.65 196.756C109.65 197.484 109.473 198.114 109.118 198.646C108.773 199.169 108.278 199.57 107.634 199.85L109.832 203H107.396ZM107.354 196.756C107.354 196.205 107.177 195.785 106.822 195.496C106.468 195.197 105.95 195.048 105.268 195.048H103.42V198.464H105.268C105.95 198.464 106.468 198.315 106.822 198.016C107.177 197.717 107.354 197.297 107.354 196.756Z" fill="#534100"/>
<path d="M108.71 112.718C108.71 128.735 76.4502 108.218 60.7101 108.218C44.97 108.218 35.2101 92.7185 34.2101 76.7185C33.0695 58.4703 81.4699 30.2185 97.2101 30.2185C108.21 60.2185 93.7101 88.7185 108.71 112.718Z" fill="#58561F"/>
<path d="M104.21 77.2184C104.21 125.719 91.4502 115.218 75.7101 115.218C59.97 115.218 47.2101 118.719 47.2101 77.2184C47.2101 37.2185 59.97 39.2184 75.7101 39.2184C91.4502 39.2184 104.21 39.2184 104.21 77.2184Z" fill="url(#paint1_linear_16_173)"/>
<path d="M78.1247 69.2185C78.1247 74.1891 78.8932 78.2185 75.8192 78.2185C71.9767 78.2185 73.5137 74.1891 73.5137 69.2185C73.5137 64.2479 74.1215 60.2185 75.8192 60.2185C77.5169 60.2185 78.1247 64.2479 78.1247 69.2185Z" fill="url(#paint2_linear_16_173)"/>
<path d="M73.7101 61.2185L63.2101 73.7185L48.2101 61.2185C50.7101 41.7185 57.7101 39.7185 71.2101 39.7185C95.2101 38.2185 101.61 46.4185 103.21 61.2185L89.2101 73.7185L78.2101 61.2185H73.7101Z" fill="url(#paint3_linear_16_173)"/>
<path d="M71.7101 61.2185C71.7101 63.7038 67.0761 67.2185 63.2101 67.2185C59.3441 67.2185 55.2101 63.7038 55.2101 61.2185C55.2101 61.2185 59.3441 60.7185 63.2101 60.7185C67.0761 60.7185 71.7101 61.2185 71.7101 61.2185Z" fill="#363636"/>
<path d="M97.7101 61.2185C97.7101 63.7038 93.0761 67.2185 89.2101 67.2185C85.3441 67.2185 81.2101 63.7038 81.2101 61.2185C81.2101 61.2185 85.3441 60.7185 89.2101 60.7185C93.0761 60.7185 97.7101 61.2185 97.7101 61.2185Z" fill="#363636"/>
<path d="M63.2101 73.7185V114.719C44.2101 114.719 46.2101 75.7185 48.2101 61.2185L63.2101 73.7185Z" fill="url(#paint4_linear_16_173)"/>
<path d="M89.2101 73.7185L89.2101 116.219C107.21 117.219 104.71 70.2185 103.21 61.2185L89.2101 73.7185Z" fill="url(#paint5_linear_16_173)"/>
<path d="M81.7718 89.0167C81.7718 88.4096 77.3895 88.8005 75.5113 88.8005C73.8419 88.8005 69.6682 88.5764 69.6682 89.0167C69.6682 90.3807 75.0134 91.2702 75.5113 91.2703C76.0093 91.2703 81.7718 90.3807 81.7718 89.0167Z" fill="url(#paint6_linear_16_173)"/>
<path d="M81.7718 89.0167C81.7718 88.4096 77.3895 88.8005 75.5113 88.8005C73.8419 88.8005 69.6682 88.5764 69.6682 89.0167C69.6682 90.3807 75.0134 91.2702 75.5113 91.2703C76.0093 91.2703 81.7718 90.3807 81.7718 89.0167Z" fill="url(#paint7_linear_16_173)"/>
<path d="M86.0945 87.6755C86.0945 89.1455 78.895 88.5627 75.8095 88.5627C73.0668 88.5627 66.2101 89.1455 66.2101 87.6755C66.2101 86.2055 74.781 84.1265 75.8095 85.901C76.838 84.1265 86.0945 86.2055 86.0945 87.6755Z" fill="url(#paint8_linear_16_173)"/>
<path d="M86.0945 87.6755C86.0945 89.1455 78.895 88.5627 75.8095 88.5627C73.0668 88.5627 66.2101 89.1455 66.2101 87.6755C66.2101 86.2055 74.781 84.1265 75.8095 85.901C76.838 84.1265 86.0945 86.2055 86.0945 87.6755Z" fill="url(#paint9_linear_16_173)"/>
<path d="M90.2101 38.2186C102.61 30.2186 95.3768 27.5519 90.2101 27.2186C89.2101 25.0519 84.7101 21.0186 74.7101 22.2186C64.7101 23.4186 45.8767 40.3852 37.7101 48.7186L43.8982 74.576C57.1841 58.2904 78.4479 45.8071 90.2101 38.2186Z" fill="url(#paint10_linear_16_173)"/>
<path d="M34.2101 91.2186C27.4101 110.819 43.0434 110.052 51.7101 107.219L43.8982 74.576C39.6762 79.7512 36.2599 85.3104 34.2101 91.2186Z" fill="url(#paint11_linear_16_173)"/>
<path d="M40.7101 63.7185C37.7101 63.0518 31.9101 64.6185 32.7101 76.2185C32.8063 77.6135 33.444 78.8975 34.5261 80.0935C36.6023 73.2794 38.9806 67.3849 40.7101 63.7185Z" fill="url(#paint12_linear_16_173)"/>
<path d="M102.21 97.7185C105.21 107.219 109.41 122.919 102.21 109.719C94.0759 94.8059 44.6914 91.3291 34.5261 80.0935C31.6001 89.6964 29.2741 101.126 30.21 110.719C31.81 127.119 73.5434 133.219 94.21 134.219C96.21 135.885 102.61 135.519 112.21 120.719C121.81 105.919 110.21 97.2185 103.21 94.7185L102.21 97.7185Z" fill="url(#paint13_linear_16_173)"/>
<path d="M17 148V152C18.6667 153 22 156.5 25 161L22.5 163L23.5 164.5L26 163L27.5 165L30 163L28.5 161.5L30 159.5L28.5 158L27 159.5C23 155 21 150.5 21 149L17 148Z" fill="url(#paint14_linear_16_173)"/>
<path d="M39.588 157.53C40.692 157.71 41.538 158.124 42.126 158.772C42.714 159.408 43.008 160.2 43.008 161.148C43.008 161.88 42.816 162.558 42.432 163.182C42.048 163.794 41.46 164.286 40.668 164.658C39.888 165.03 38.928 165.216 37.788 165.216C36.9 165.216 36.024 165.102 35.16 164.874C34.308 164.634 33.582 164.298 32.982 163.866L34.116 161.634C34.596 161.994 35.148 162.276 35.772 162.48C36.408 162.672 37.056 162.768 37.716 162.768C38.448 162.768 39.024 162.63 39.444 162.354C39.864 162.066 40.074 161.664 40.074 161.148C40.074 160.116 39.288 159.6 37.716 159.6H36.384V157.674L38.976 154.74H33.612V152.4H42.432V154.29L39.588 157.53Z" fill="url(#paint15_linear_16_173)"/>
<path d="M129.588 157.53C130.692 157.71 131.538 158.124 132.126 158.772C132.714 159.408 133.008 160.2 133.008 161.148C133.008 161.88 132.816 162.558 132.432 163.182C132.048 163.794 131.46 164.286 130.668 164.658C129.888 165.03 128.928 165.216 127.788 165.216C126.9 165.216 126.024 165.102 125.16 164.874C124.308 164.634 123.582 164.298 122.982 163.866L124.116 161.634C124.596 161.994 125.148 162.276 125.772 162.48C126.408 162.672 127.056 162.768 127.716 162.768C128.448 162.768 129.024 162.63 129.444 162.354C129.864 162.066 130.074 161.664 130.074 161.148C130.074 160.116 129.288 159.6 127.716 159.6H126.384V157.674L128.976 154.74H123.612V152.4H132.432V154.29L129.588 157.53Z" fill="url(#paint16_linear_16_173)"/>
<path d="M111.23 165C108.297 162.757 102.355 157.562 102.049 154.729C101.666 151.187 103.579 148 105.874 148C108.169 148 110.082 150.479 110.465 151.896C110.847 150.448 112.454 148 114.29 148C116.585 148 119.645 150.125 118.88 154.729C118.268 158.412 113.525 163.111 111.23 165Z" fill="url(#paint17_linear_16_173)"/>
<defs>
<linearGradient id="paint0_linear_16_173" x1="75" y1="184.5" x2="75" y2="210" gradientUnits="userSpaceOnUse">
<stop stop-color="#B4A34E"/>
<stop offset="1" stop-color="#58561F"/>
</linearGradient>
<linearGradient id="paint1_linear_16_173" x1="75.7101" y1="39.2019" x2="75.7101" y2="116.177" gradientUnits="userSpaceOnUse">
<stop stop-color="#B4A34E"/>
<stop offset="1" stop-color="#58561F"/>
</linearGradient>
<linearGradient id="paint2_linear_16_173" x1="75.7101" y1="60.2185" x2="75.7101" y2="78.2185" gradientUnits="userSpaceOnUse">
<stop stop-color="#58561F"/>
<stop offset="1" stop-color="#B4A34E"/>
</linearGradient>
<linearGradient id="paint3_linear_16_173" x1="75.7101" y1="39.5431" x2="75.7101" y2="73.7185" gradientUnits="userSpaceOnUse">
<stop stop-color="#B4A34E"/>
<stop offset="1" stop-color="#58561F"/>
</linearGradient>
<linearGradient id="paint4_linear_16_173" x1="55.3332" y1="61.7185" x2="55.3332" y2="114.719" gradientUnits="userSpaceOnUse">
<stop stop-color="#58561F"/>
<stop offset="1" stop-color="#B4A34E"/>
</linearGradient>
<linearGradient id="paint5_linear_16_173" x1="96.9732" y1="61.7138" x2="96.9732" y2="114.218" gradientUnits="userSpaceOnUse">
<stop stop-color="#58561F"/>
<stop offset="1" stop-color="#B4A34E"/>
</linearGradient>
<linearGradient id="paint6_linear_16_173" x1="75.72" y1="91.9036" x2="75.72" y2="86.7423" gradientUnits="userSpaceOnUse">
<stop stop-color="#B4A34E"/>
<stop offset="1" stop-color="#58561F"/>
</linearGradient>
<linearGradient id="paint7_linear_16_173" x1="75.72" y1="91.9036" x2="75.72" y2="86.7423" gradientUnits="userSpaceOnUse">
<stop stop-color="#B4A34E"/>
<stop offset="1" stop-color="#58561F"/>
</linearGradient>
<linearGradient id="paint8_linear_16_173" x1="76.1523" y1="85.2185" x2="76.1523" y2="90.7807" gradientUnits="userSpaceOnUse">
<stop stop-color="#B4A34E"/>
<stop offset="1" stop-color="#58561F"/>
</linearGradient>
<linearGradient id="paint9_linear_16_173" x1="76.1523" y1="85.2185" x2="76.1523" y2="90.7807" gradientUnits="userSpaceOnUse">
<stop stop-color="#B4A34E"/>
<stop offset="1" stop-color="#58561F"/>
</linearGradient>
<linearGradient id="paint10_linear_16_173" x1="64.7997" y1="22" x2="64.7997" y2="108.717" gradientUnits="userSpaceOnUse">
<stop stop-color="#58561F"/>
<stop offset="1" stop-color="#B4A34E"/>
</linearGradient>
<linearGradient id="paint11_linear_16_173" x1="64.7997" y1="22" x2="64.7997" y2="108.717" gradientUnits="userSpaceOnUse">
<stop stop-color="#58561F"/>
<stop offset="1" stop-color="#B4A34E"/>
</linearGradient>
<linearGradient id="paint12_linear_16_173" x1="72.9287" y1="63.5884" x2="72.9287" y2="134.896" gradientUnits="userSpaceOnUse">
<stop stop-color="#B4A34E"/>
<stop offset="1" stop-color="#58561F"/>
</linearGradient>
<linearGradient id="paint13_linear_16_173" x1="72.9287" y1="63.5884" x2="72.9287" y2="134.896" gradientUnits="userSpaceOnUse">
<stop stop-color="#B4A34E"/>
<stop offset="1" stop-color="#58561F"/>
</linearGradient>
<linearGradient id="paint14_linear_16_173" x1="24.25" y1="147" x2="24.25" y2="165" gradientUnits="userSpaceOnUse">
<stop stop-color="#B4A34E"/>
<stop offset="1" stop-color="#58561F"/>
</linearGradient>
<linearGradient id="paint15_linear_16_173" x1="38.5" y1="148" x2="38.5" y2="170" gradientUnits="userSpaceOnUse">
<stop stop-color="#B4A34E"/>
<stop offset="1" stop-color="#58561F"/>
</linearGradient>
<linearGradient id="paint16_linear_16_173" x1="128.5" y1="148" x2="128.5" y2="170" gradientUnits="userSpaceOnUse">
<stop stop-color="#B4A34E"/>
<stop offset="1" stop-color="#58561F"/>
</linearGradient>
<linearGradient id="paint17_linear_16_173" x1="110.871" y1="147.969" x2="110.871" y2="164.969" gradientUnits="userSpaceOnUse">
<stop stop-color="#B4A34E"/>
<stop offset="1" stop-color="#58561F"/>
</linearGradient>
</defs>
</svg>
