<svg width="150" height="225" viewBox="0 0 150 225" fill="none" xmlns="http://www.w3.org/2000/svg">
<path d="M0 7C0 3.13401 3.13401 0 7 0H143C146.866 0 150 3.13401 150 7V218C150 221.866 146.866 225 143 225H7C3.13401 225 0 221.866 0 218V7Z" fill="#363636"/>
<rect x="16.5" y="184.5" width="117" height="25.5" rx="8.5" fill="url(#paint0_linear_21_241)"/>
<path d="M47.192 195.048H44.056V193.2H52.596V195.048H49.46V203H47.192V195.048ZM62.8043 193.2V203H60.5363V198.982H56.0843V203H53.8163V193.2H56.0843V197.064H60.5363V193.2H62.8043ZM72.7109 201.18V203H65.1229V193.2H72.5289V195.02H67.3769V197.148H71.9269V198.912H67.3769V201.18H72.7109ZM81.7004 203.168C80.9257 203.168 80.1744 203.065 79.4464 202.86C78.7277 202.645 78.149 202.37 77.7104 202.034L78.4804 200.326C78.9004 200.634 79.3997 200.881 79.9784 201.068C80.557 201.255 81.1357 201.348 81.7144 201.348C82.3584 201.348 82.8344 201.255 83.1424 201.068C83.4504 200.872 83.6044 200.615 83.6044 200.298C83.6044 200.065 83.511 199.873 83.3244 199.724C83.147 199.565 82.9137 199.439 82.6244 199.346C82.3444 199.253 81.9617 199.15 81.4764 199.038C80.7297 198.861 80.1184 198.683 79.6424 198.506C79.1664 198.329 78.7557 198.044 78.4104 197.652C78.0744 197.26 77.9064 196.737 77.9064 196.084C77.9064 195.515 78.0604 195.001 78.3684 194.544C78.6764 194.077 79.1384 193.709 79.7544 193.438C80.3797 193.167 81.1404 193.032 82.0364 193.032C82.6617 193.032 83.273 193.107 83.8704 193.256C84.4677 193.405 84.9904 193.62 85.4384 193.9L84.7384 195.622C83.833 195.109 82.9277 194.852 82.0224 194.852C81.3877 194.852 80.9164 194.955 80.6084 195.16C80.3097 195.365 80.1604 195.636 80.1604 195.972C80.1604 196.308 80.333 196.56 80.6784 196.728C81.033 196.887 81.5697 197.045 82.2884 197.204C83.035 197.381 83.6464 197.559 84.1224 197.736C84.5984 197.913 85.0044 198.193 85.3404 198.576C85.6857 198.959 85.8584 199.477 85.8584 200.13C85.8584 200.69 85.6997 201.203 85.3824 201.67C85.0744 202.127 84.6077 202.491 83.9824 202.762C83.357 203.033 82.5964 203.168 81.7004 203.168ZM91.7621 203.168C90.3621 203.168 89.2701 202.781 88.4861 202.006C87.7114 201.231 87.3241 200.125 87.3241 198.688V193.2H89.5921V198.604C89.5921 200.359 90.3201 201.236 91.7761 201.236C92.4854 201.236 93.0268 201.026 93.4001 200.606C93.7734 200.177 93.9601 199.509 93.9601 198.604V193.2H96.2001V198.688C96.2001 200.125 95.8081 201.231 95.0241 202.006C94.2494 202.781 93.1621 203.168 91.7621 203.168ZM107.429 193.2V203H105.567L100.681 197.05V203H98.4413V193.2H100.317L105.189 199.15V193.2H107.429Z" fill="#534100"/>
<circle cx="76.2173" cy="76.5854" r="37.3171" fill="url(#paint1_linear_21_241)"/>
<path d="M46.3637 58.3415C46.9165 59.7236 48.271 62.5708 49.2661 62.9025C50.51 63.3171 61.7051 64.9757 64.6076 70.3659C67.2336 70.0895 72.7344 68.8732 73.7295 66.2196C74.5588 62.9025 73.3149 55.9366 61.7051 54.6098C50.0954 53.283 48.575 51.8456 49.2661 51.2927C48.0222 52.122 45.4515 54.361 45.1198 56.683L46.3637 58.3415Z" fill="url(#paint2_linear_21_241)"/>
<path d="M82.4368 71.1951C79.5344 61.2439 85.5051 50.5463 101.095 49.2195C103.307 51.0162 108.061 55.8536 109.388 60.8292C102.201 60.691 86.749 62.5707 82.4368 71.1951Z" fill="url(#paint3_linear_21_241)"/>
<path d="M72.9003 65.8048C72.9003 65.8048 69.9037 65.8048 64.0152 65.8048C58.1268 65.8048 50.51 59.0878 50.51 59.0878C50.51 59.0878 60.1058 57.4085 64.0152 59.0878C68.9908 60.767 72.9003 65.8048 72.9003 65.8048Z" fill="#363636"/>
<path d="M102.833 60.1056C103.852 61.8971 96.9413 62.0253 91.7658 64.9686C86.1685 66.2195 83.2661 70.7805 83.2661 70.7805C83.2661 70.7805 82.9007 61.4242 88.0762 58.4809C93.2517 55.5376 101.814 58.3141 102.833 60.1056Z" fill="#363636"/>
<path d="M70.8271 84.4634C70.8271 96.3712 62.2444 104.781 52.1686 104.781C52.1686 104.781 39.9445 96.5019 38.9003 80.3171C38.071 67.4634 41.8027 62.4878 41.8027 62.4878C66.2661 62.4878 70.8271 78.2439 70.8271 84.4634Z" fill="url(#paint4_linear_21_241)"/>
<path d="M70.8271 84.4634C70.8271 96.3712 62.2444 104.781 52.1686 104.781C52.1686 104.781 39.9445 96.5019 38.9003 80.3171C38.071 67.4634 41.8027 62.4878 41.8027 62.4878C66.2661 62.4878 70.8271 78.2439 70.8271 84.4634Z" fill="url(#paint5_linear_21_241)"/>
<path d="M79.5344 82.8048C80.7809 94.6472 89.837 105.195 100.266 105.195C100.266 105.195 111.874 97.317 113.12 78.6585C113.895 67.0487 109.576 60.8292 109.576 60.8292C84.2553 60.8292 78.7051 74.9268 79.5344 82.8048Z" fill="url(#paint6_linear_21_241)"/>
<path d="M72.4857 60.8292C73.1767 58.3414 74.9735 54.4439 76.632 58.7561C78.2905 63.0683 79.258 60.5528 79.5344 58.7561C79.9491 57.0975 81.0271 54.7756 82.0222 58.7561C83.2661 63.7317 82.4369 65.3903 80.3637 65.8049C78.2905 66.2195 72.4857 63.7316 72.4857 60.8292Z" fill="url(#paint7_linear_21_241)"/>
<path d="M80.3637 65.3902C79.5344 64.0081 77.4612 62.0732 75.8027 65.3902C73.7295 69.5366 66.6807 79.0732 57.1441 80.7317C47.6076 82.3903 47.6076 77.4146 44.7051 80.7317C41.8027 84.0488 45.3979 88.6747 48 89C60 90.5 72 90 80.3637 65.3902Z" fill="url(#paint8_linear_21_241)"/>
<circle cx="69.9978" cy="53.7805" r="2.90244" fill="url(#paint9_radial_21_241)"/>
<circle cx="76.632" cy="50.4635" r="2.90244" fill="url(#paint10_radial_21_241)"/>
<circle cx="82.4369" cy="52.9513" r="2.90244" fill="url(#paint11_radial_21_241)"/>
<path d="M82.4368 35.5366C82.4368 39.4295 79.8813 40.0976 76.2173 40.0976C72.5534 40.0976 69.9978 39.4295 69.9978 35.5366C69.9978 31.6437 74.1441 31.8049 76.2173 26C78.7051 32.2195 82.4368 31.6437 82.4368 35.5366Z" fill="url(#paint12_linear_21_241)"/>
<path d="M80.3637 36.8781C80.3637 39.626 78.66 40.0976 76.2173 40.0976C73.7747 40.0976 72.071 39.626 72.071 36.8781C72.071 34.1301 74.8352 34.2439 76.2173 30.1464C77.8759 34.5366 80.3637 34.1301 80.3637 36.8781Z" fill="url(#paint13_linear_21_241)"/>
<path d="M82.4368 35.5366C82.4368 39.4295 79.8813 40.0976 76.2173 40.0976C72.5534 40.0976 69.9978 39.4295 69.9978 35.5366C69.9978 31.6437 74.1441 31.8049 76.2173 26C78.7051 32.2195 82.4368 31.6437 82.4368 35.5366Z" fill="url(#paint14_linear_21_241)"/>
<path d="M80.3637 36.8781C80.3637 39.626 78.66 40.0976 76.2173 40.0976C73.7747 40.0976 72.071 39.626 72.071 36.8781C72.071 34.1301 74.8352 34.2439 76.2173 30.1464C77.8759 34.5366 80.3637 34.1301 80.3637 36.8781Z" fill="url(#paint15_linear_21_241)"/>
<path d="M69.5832 118.463C69.5832 114.57 72.1388 113.902 75.8027 113.902C79.4666 113.902 82.0222 114.57 82.0222 118.463C82.0222 122.356 77.8759 122.195 75.8027 128C73.3149 121.78 69.5832 122.356 69.5832 118.463Z" fill="url(#paint16_linear_21_241)"/>
<path d="M71.6564 117.122C71.6564 114.374 73.3601 113.902 75.8027 113.902C78.2453 113.902 79.949 114.374 79.949 117.122C79.949 119.87 77.1848 119.756 75.8027 123.854C74.1442 119.463 71.6564 119.87 71.6564 117.122Z" fill="url(#paint17_linear_21_241)"/>
<path d="M117.483 83.3617C113.591 83.3678 112.918 80.8133 112.913 77.1494C112.907 73.4854 113.571 70.9288 117.464 70.9227C121.357 70.9166 121.202 75.0632 127.01 77.1272C120.795 79.6248 121.376 83.3556 117.483 83.3617Z" fill="url(#paint18_linear_21_241)"/>
<path d="M116.139 81.2907C113.391 81.295 112.917 79.592 112.913 77.1494C112.909 74.7068 113.378 73.0023 116.126 72.998C118.874 72.9937 118.764 75.7581 122.864 77.1338C118.476 78.7992 118.887 81.2864 116.139 81.2907Z" fill="url(#paint19_linear_21_241)"/>
<path d="M34.5366 70.6383C38.4295 70.6322 39.1016 73.1867 39.1073 76.8506C39.1131 80.5146 38.449 83.0712 34.5561 83.0773C30.6632 83.0834 30.8179 78.9368 25.0098 76.8728C31.2254 74.3752 30.6436 70.6444 34.5366 70.6383Z" fill="url(#paint20_linear_21_241)"/>
<path d="M35.8813 72.7093C38.6293 72.705 39.1035 74.408 39.1074 76.8506C39.1112 79.2932 38.6423 80.9977 35.8944 81.002C33.1464 81.0063 33.2559 78.2419 29.1561 76.8662C33.5438 75.2008 33.1334 72.7136 35.8813 72.7093Z" fill="url(#paint21_linear_21_241)"/>
<path d="M96.1507 113.809C93.781 110.72 95.4019 108.634 98.3088 106.404C101.216 104.174 103.65 103.148 106.02 106.237C108.389 109.325 105.002 111.721 106.89 117.589C101.131 114.169 98.5204 116.897 96.1507 113.809Z" fill="url(#paint22_linear_21_241)"/>
<path d="M96.979 111.482C95.3063 109.302 96.3709 107.891 98.3089 106.404C100.247 104.917 101.886 104.254 103.558 106.434C105.231 108.615 102.969 110.207 104.366 114.299C100.378 111.826 98.6517 113.663 96.979 111.482Z" fill="url(#paint23_linear_21_241)"/>
<path d="M55.8694 40.1914C58.2391 43.28 56.6182 45.3657 53.7113 47.596C50.8043 49.8263 48.3701 50.8519 46.0004 47.7633C43.6307 44.6747 47.0185 42.2787 45.1298 36.4112C50.8895 39.8313 53.4997 37.1028 55.8694 40.1914Z" fill="url(#paint24_linear_21_241)"/>
<path d="M55.0411 42.5176C56.7138 44.6978 55.6492 46.109 53.7112 47.5959C51.7733 49.0828 50.1345 49.7458 48.4618 47.5656C46.7891 45.3854 49.0514 43.793 47.6537 39.7008C51.642 42.1743 53.3684 40.3375 55.0411 42.5176Z" fill="url(#paint25_linear_21_241)"/>
<path d="M43.109 103.039C45.7555 100.184 48.0838 101.432 50.7709 103.922C53.4579 106.413 54.878 108.64 52.2315 111.495C49.585 114.35 46.6537 111.413 41.187 114.261C43.5907 108.009 40.4625 105.894 43.109 103.039Z" fill="url(#paint26_linear_21_241)"/>
<path d="M45.5414 103.465C47.4095 101.449 48.9796 102.262 50.7709 103.922C52.5623 105.583 53.4912 107.087 51.6231 109.102C49.7549 111.118 47.8051 109.155 44.0059 111.22C45.7741 106.873 43.6733 105.48 45.5414 103.465Z" fill="url(#paint27_linear_21_241)"/>
<path d="M108.911 50.9609C106.265 53.8158 103.936 52.5684 101.249 50.0776C98.5621 47.5868 97.142 45.3595 99.7885 42.5045C102.435 39.6495 105.366 42.5866 110.833 39.7388C108.429 45.9913 111.558 48.1059 108.911 50.9609Z" fill="url(#paint28_linear_21_241)"/>
<path d="M106.479 50.5352C104.611 52.5505 103.041 51.7381 101.249 50.0776C99.4578 48.417 98.5289 46.913 100.397 44.8977C102.265 42.8824 104.215 44.8451 108.014 42.7796C106.246 47.1268 108.347 48.52 106.479 50.5352Z" fill="url(#paint29_linear_21_241)"/>
<path d="M35.2584 86.991C38.8528 85.4958 40.4511 87.5988 41.8583 90.9817C43.2655 94.3647 43.6302 96.9808 40.0358 98.476C36.4415 99.9711 34.9978 96.0809 28.8419 96.3962C33.629 91.7104 31.664 88.4861 35.2584 86.991Z" fill="url(#paint30_linear_21_241)"/>
<path d="M37.2932 88.3898C39.8304 87.3344 40.9202 88.7264 41.8583 90.9817C42.7964 93.237 43.0154 94.9911 40.4782 96.0465C37.941 97.1019 36.9844 94.506 32.6703 94.8036C36.0868 91.5861 34.756 89.4453 37.2932 88.3898Z" fill="url(#paint31_linear_21_241)"/>
<path d="M116.762 67.009C113.167 68.5042 111.569 66.4012 110.162 63.0183C108.755 59.6353 108.39 57.0192 111.984 55.524C115.579 54.0289 117.022 57.9191 123.178 57.6038C118.391 62.2896 120.356 65.5139 116.762 67.009Z" fill="url(#paint32_linear_21_241)"/>
<path d="M114.727 65.6102C112.19 66.6656 111.1 65.2736 110.162 63.0183C109.224 60.763 109.005 59.0089 111.542 57.9535C114.079 56.8981 115.036 59.494 119.35 59.1964C115.933 62.4139 117.264 64.5547 114.727 65.6102Z" fill="url(#paint33_linear_21_241)"/>
<path d="M42.0986 52.2911C45.5589 54.0747 44.9819 56.6523 43.3033 59.9091C41.6247 63.1659 39.86 65.1314 36.3997 63.3479C32.9394 61.5644 34.9823 57.9526 30.7723 53.4504C37.4405 54.0885 38.6382 50.5076 42.0986 52.2911Z" fill="url(#paint34_linear_21_241)"/>
<path d="M42.3411 54.7486C44.7837 56.0075 44.4223 57.738 43.3033 59.9092C42.1842 62.0804 40.9845 63.3787 38.5419 62.1197C36.0993 60.8608 37.4669 58.4559 34.4579 55.3501C39.1201 55.8872 39.8985 53.4896 42.3411 54.7486Z" fill="url(#paint35_linear_21_241)"/>
<path d="M109.922 101.709C106.461 99.9253 107.038 97.3477 108.717 94.0909C110.395 90.8341 112.16 88.8686 115.62 90.6521C119.081 92.4356 117.038 96.0474 121.248 100.55C114.58 99.9115 113.382 103.492 109.922 101.709Z" fill="url(#paint36_linear_21_241)"/>
<path d="M109.679 99.2514C107.236 97.9925 107.598 96.262 108.717 94.0908C109.836 91.9196 111.036 90.6213 113.478 91.8803C115.921 93.1392 114.553 95.5441 117.562 98.6499C112.9 98.1128 112.122 100.51 109.679 99.2514Z" fill="url(#paint37_linear_21_241)"/>
<path d="M68.8236 35.6615C70.07 39.3496 67.8628 40.8006 64.3917 41.9737C60.9207 43.1467 58.2857 43.332 57.0394 39.644C55.793 35.956 59.7727 34.7812 59.8783 28.6181C64.2264 33.7138 67.5773 31.9735 68.8236 35.6615Z" fill="url(#paint38_linear_21_241)"/>
<path d="M67.2891 37.5961C68.1688 40.1994 66.7058 41.1916 64.3917 41.9736C62.0777 42.7556 60.3126 42.8543 59.4329 40.251C58.5531 37.6477 61.2082 36.8705 61.2057 32.5462C64.1826 36.1743 66.4093 34.9927 67.2891 37.5961Z" fill="url(#paint39_linear_21_241)"/>
<path d="M83.1964 118.338C81.9501 114.65 84.1573 113.199 87.6283 112.026C91.0994 110.853 93.7344 110.668 94.9807 114.356C96.2271 118.044 92.2474 119.219 92.1418 125.382C87.7937 120.286 84.4428 122.026 83.1964 118.338Z" fill="url(#paint40_linear_21_241)"/>
<path d="M84.731 116.404C83.8512 113.801 85.3143 112.808 87.6284 112.026C89.9424 111.244 91.7074 111.146 92.5872 113.749C93.467 116.352 90.8118 117.129 90.8143 121.454C87.8375 117.826 85.6108 119.007 84.731 116.404Z" fill="url(#paint41_linear_21_241)"/>
<path d="M97.1324 40.7459C95.711 44.3701 93.088 44.0589 89.677 42.7211C86.266 41.3833 84.1308 39.8282 85.5522 36.2041C86.9737 32.5799 90.7749 34.244 94.8244 29.5968C94.8695 36.2953 98.5539 37.1218 97.1324 40.7459Z" fill="url(#paint42_linear_21_241)"/>
<path d="M94.7126 41.2378C93.7092 43.796 91.951 43.613 89.677 42.7211C87.403 41.8292 85.9891 40.7682 86.9924 38.2099C87.9958 35.6517 90.5276 36.7669 93.3104 33.4569C93.2515 38.1496 95.7159 38.6796 94.7126 41.2378Z" fill="url(#paint43_linear_21_241)"/>
<path d="M54.8876 113.254C56.3091 109.63 58.9321 109.941 62.3431 111.279C65.754 112.617 67.8893 114.172 66.4678 117.796C65.0464 121.42 61.2452 119.756 57.1957 124.403C57.1505 117.705 53.4662 116.878 54.8876 113.254Z" fill="url(#paint44_linear_21_241)"/>
<path d="M57.3075 112.762C58.3108 110.204 60.0691 110.387 62.3431 111.279C64.6171 112.171 66.031 113.232 65.0276 115.79C64.0243 118.348 61.4925 117.233 58.7096 120.543C58.7686 115.85 56.3041 115.32 57.3075 112.762Z" fill="url(#paint45_linear_21_241)"/>
<path d="M17 148V152C18.6667 153 22 156.5 25 161L22.5 163L23.5 164.5L26 163L27.5 165L30 163L28.5 161.5L30 159.5L28.5 158L27 159.5C23 155 21 150.5 21 149L17 148Z" fill="url(#paint46_linear_21_241)"/>
<path d="M43.116 162.624V165H33.594V163.11L38.454 158.52C38.97 158.028 39.318 157.608 39.498 157.26C39.678 156.9 39.768 156.546 39.768 156.198C39.768 155.694 39.594 155.31 39.246 155.046C38.91 154.77 38.412 154.632 37.752 154.632C37.2 154.632 36.702 154.74 36.258 154.956C35.814 155.16 35.442 155.472 35.142 155.892L33.018 154.524C33.51 153.792 34.188 153.222 35.052 152.814C35.916 152.394 36.906 152.184 38.022 152.184C38.958 152.184 39.774 152.34 40.47 152.652C41.178 152.952 41.724 153.384 42.108 153.948C42.504 154.5 42.702 155.154 42.702 155.91C42.702 156.594 42.558 157.236 42.27 157.836C41.982 158.436 41.424 159.12 40.596 159.888L37.698 162.624H43.116Z" fill="url(#paint47_linear_21_241)"/>
<path d="M135.24 162.354H133.188V165H130.344V162.354H123.558V160.392L129.498 152.4H132.558L127.05 159.978H130.434V157.62H133.188V159.978H135.24V162.354Z" fill="url(#paint48_linear_21_241)"/>
<path d="M111.23 165C108.297 162.757 102.355 157.562 102.049 154.729C101.666 151.188 103.579 148 105.874 148C108.169 148 110.082 150.479 110.465 151.896C110.847 150.448 112.454 148 114.29 148C116.585 148 119.645 150.125 118.88 154.729C118.268 158.412 113.525 163.111 111.23 165Z" fill="url(#paint49_linear_21_241)"/>
<path d="M57 143L58.7688 154.411L67.7664 147.174L57 143ZM76.2792 165.373L63.42 149.386L61.8616 150.64L74.7208 166.627L76.2792 165.373Z" fill="url(#paint50_linear_21_241)"/>
<path d="M95 142L93.5458 153.455L84.3525 146.468L95 142ZM75.2038 166.395L88.7581 148.56L90.3504 149.771L76.7962 167.605L75.2038 166.395Z" fill="url(#paint51_linear_21_241)"/>
<path d="M76 135L81.7735 145H70.2265L76 135ZM75 167V144H77V167H75Z" fill="url(#paint52_linear_21_241)"/>
<defs>
<linearGradient id="paint0_linear_21_241" x1="75" y1="184.5" x2="75" y2="210" gradientUnits="userSpaceOnUse">
<stop stop-color="#B4A34E"/>
<stop offset="1" stop-color="#58561F"/>
</linearGradient>
<linearGradient id="paint1_linear_21_241" x1="76.2173" y1="39.2683" x2="76.2173" y2="113.902" gradientUnits="userSpaceOnUse">
<stop stop-color="#B4A34E"/>
<stop offset="1" stop-color="#58561F"/>
</linearGradient>
<linearGradient id="paint2_linear_21_241" x1="59.5273" y1="51.2927" x2="59.5273" y2="70.3659" gradientUnits="userSpaceOnUse">
<stop stop-color="#58561F"/>
<stop offset="1" stop-color="#B4A34E"/>
</linearGradient>
<linearGradient id="paint3_linear_21_241" x1="95.558" y1="49.2195" x2="95.558" y2="71.1951" gradientUnits="userSpaceOnUse">
<stop stop-color="#58561F"/>
<stop offset="1" stop-color="#B4A34E"/>
</linearGradient>
<linearGradient id="paint4_linear_21_241" x1="54.8036" y1="62.4878" x2="54.8036" y2="104.781" gradientUnits="userSpaceOnUse">
<stop stop-color="#58561F"/>
<stop offset="1" stop-color="#B4A34E"/>
</linearGradient>
<linearGradient id="paint5_linear_21_241" x1="54.8036" y1="62.4878" x2="54.8036" y2="104.781" gradientUnits="userSpaceOnUse">
<stop stop-color="#58561F"/>
<stop offset="1" stop-color="#B4A34E"/>
</linearGradient>
<linearGradient id="paint6_linear_21_241" x1="96.1198" y1="60.8292" x2="96.1198" y2="103.122" gradientUnits="userSpaceOnUse">
<stop stop-color="#58561F"/>
<stop offset="1" stop-color="#B4A34E"/>
</linearGradient>
<linearGradient id="paint7_linear_21_241" x1="77.5462" y1="56.5582" x2="77.5462" y2="65.8503" gradientUnits="userSpaceOnUse">
<stop stop-color="#B4A34E"/>
<stop offset="1" stop-color="#58561F"/>
</linearGradient>
<linearGradient id="paint8_linear_21_241" x1="59.2173" y1="69.5366" x2="64.6076" y2="85.7073" gradientUnits="userSpaceOnUse">
<stop stop-color="#B4A34E"/>
<stop offset="1" stop-color="#58561F"/>
</linearGradient>
<radialGradient id="paint9_radial_21_241" cx="0" cy="0" r="1" gradientUnits="userSpaceOnUse" gradientTransform="translate(71.6564 52.122) rotate(109.983) scale(4.85317)">
<stop stop-color="#B4A34E"/>
<stop offset="1" stop-color="#58561F"/>
</radialGradient>
<radialGradient id="paint10_radial_21_241" cx="0" cy="0" r="1" gradientUnits="userSpaceOnUse" gradientTransform="translate(78.2905 48.8049) rotate(109.983) scale(4.85317)">
<stop stop-color="#B4A34E"/>
<stop offset="1" stop-color="#58561F"/>
</radialGradient>
<radialGradient id="paint11_radial_21_241" cx="0" cy="0" r="1" gradientUnits="userSpaceOnUse" gradientTransform="translate(84.0954 51.2927) rotate(109.983) scale(4.85317)">
<stop stop-color="#B4A34E"/>
<stop offset="1" stop-color="#58561F"/>
</radialGradient>
<linearGradient id="paint12_linear_21_241" x1="76.2173" y1="26" x2="76.2173" y2="40.0976" gradientUnits="userSpaceOnUse">
<stop stop-color="#B4A34E"/>
<stop offset="1" stop-color="#58561F"/>
</linearGradient>
<linearGradient id="paint13_linear_21_241" x1="76.2173" y1="30.1464" x2="76.2173" y2="40.0976" gradientUnits="userSpaceOnUse">
<stop stop-color="#58561F"/>
<stop offset="1" stop-color="#B4A34E"/>
</linearGradient>
<linearGradient id="paint14_linear_21_241" x1="76.2173" y1="26" x2="76.2173" y2="40.0976" gradientUnits="userSpaceOnUse">
<stop stop-color="#B4A34E"/>
<stop offset="1" stop-color="#58561F"/>
</linearGradient>
<linearGradient id="paint15_linear_21_241" x1="76.2173" y1="30.1464" x2="76.2173" y2="40.0976" gradientUnits="userSpaceOnUse">
<stop stop-color="#58561F"/>
<stop offset="1" stop-color="#B4A34E"/>
</linearGradient>
<linearGradient id="paint16_linear_21_241" x1="75.8027" y1="128" x2="75.8027" y2="113.902" gradientUnits="userSpaceOnUse">
<stop stop-color="#B4A34E"/>
<stop offset="1" stop-color="#58561F"/>
</linearGradient>
<linearGradient id="paint17_linear_21_241" x1="75.8027" y1="123.854" x2="75.8027" y2="113.902" gradientUnits="userSpaceOnUse">
<stop stop-color="#58561F"/>
<stop offset="1" stop-color="#B4A34E"/>
</linearGradient>
<linearGradient id="paint18_linear_21_241" x1="127.01" y1="77.1272" x2="112.913" y2="77.1494" gradientUnits="userSpaceOnUse">
<stop stop-color="#B4A34E"/>
<stop offset="1" stop-color="#58561F"/>
</linearGradient>
<linearGradient id="paint19_linear_21_241" x1="122.864" y1="77.1338" x2="112.913" y2="77.1494" gradientUnits="userSpaceOnUse">
<stop stop-color="#58561F"/>
<stop offset="1" stop-color="#B4A34E"/>
</linearGradient>
<linearGradient id="paint20_linear_21_241" x1="25.0098" y1="76.8728" x2="39.1073" y2="76.8506" gradientUnits="userSpaceOnUse">
<stop stop-color="#B4A34E"/>
<stop offset="1" stop-color="#58561F"/>
</linearGradient>
<linearGradient id="paint21_linear_21_241" x1="29.1561" y1="76.8662" x2="39.1074" y2="76.8506" gradientUnits="userSpaceOnUse">
<stop stop-color="#58561F"/>
<stop offset="1" stop-color="#B4A34E"/>
</linearGradient>
<linearGradient id="paint22_linear_21_241" x1="106.89" y1="117.589" x2="98.3088" y2="106.404" gradientUnits="userSpaceOnUse">
<stop stop-color="#B4A34E"/>
<stop offset="1" stop-color="#58561F"/>
</linearGradient>
<linearGradient id="paint23_linear_21_241" x1="104.366" y1="114.299" x2="98.3089" y2="106.404" gradientUnits="userSpaceOnUse">
<stop stop-color="#58561F"/>
<stop offset="1" stop-color="#B4A34E"/>
</linearGradient>
<linearGradient id="paint24_linear_21_241" x1="45.1298" y1="36.4112" x2="53.7113" y2="47.596" gradientUnits="userSpaceOnUse">
<stop stop-color="#B4A34E"/>
<stop offset="1" stop-color="#58561F"/>
</linearGradient>
<linearGradient id="paint25_linear_21_241" x1="47.6537" y1="39.7008" x2="53.7112" y2="47.5959" gradientUnits="userSpaceOnUse">
<stop stop-color="#58561F"/>
<stop offset="1" stop-color="#B4A34E"/>
</linearGradient>
<linearGradient id="paint26_linear_21_241" x1="41.187" y1="114.261" x2="50.7709" y2="103.922" gradientUnits="userSpaceOnUse">
<stop stop-color="#B4A34E"/>
<stop offset="1" stop-color="#58561F"/>
</linearGradient>
<linearGradient id="paint27_linear_21_241" x1="44.0059" y1="111.22" x2="50.7709" y2="103.922" gradientUnits="userSpaceOnUse">
<stop stop-color="#58561F"/>
<stop offset="1" stop-color="#B4A34E"/>
</linearGradient>
<linearGradient id="paint28_linear_21_241" x1="110.833" y1="39.7388" x2="101.249" y2="50.0776" gradientUnits="userSpaceOnUse">
<stop stop-color="#B4A34E"/>
<stop offset="1" stop-color="#58561F"/>
</linearGradient>
<linearGradient id="paint29_linear_21_241" x1="108.014" y1="42.7796" x2="101.249" y2="50.0776" gradientUnits="userSpaceOnUse">
<stop stop-color="#58561F"/>
<stop offset="1" stop-color="#B4A34E"/>
</linearGradient>
<linearGradient id="paint30_linear_21_241" x1="28.8419" y1="96.3962" x2="41.8583" y2="90.9817" gradientUnits="userSpaceOnUse">
<stop stop-color="#B4A34E"/>
<stop offset="1" stop-color="#58561F"/>
</linearGradient>
<linearGradient id="paint31_linear_21_241" x1="32.6703" y1="94.8036" x2="41.8583" y2="90.9817" gradientUnits="userSpaceOnUse">
<stop stop-color="#58561F"/>
<stop offset="1" stop-color="#B4A34E"/>
</linearGradient>
<linearGradient id="paint32_linear_21_241" x1="123.178" y1="57.6038" x2="110.162" y2="63.0183" gradientUnits="userSpaceOnUse">
<stop stop-color="#B4A34E"/>
<stop offset="1" stop-color="#58561F"/>
</linearGradient>
<linearGradient id="paint33_linear_21_241" x1="119.35" y1="59.1964" x2="110.162" y2="63.0183" gradientUnits="userSpaceOnUse">
<stop stop-color="#58561F"/>
<stop offset="1" stop-color="#B4A34E"/>
</linearGradient>
<linearGradient id="paint34_linear_21_241" x1="30.7723" y1="53.4504" x2="43.3033" y2="59.9091" gradientUnits="userSpaceOnUse">
<stop stop-color="#B4A34E"/>
<stop offset="1" stop-color="#58561F"/>
</linearGradient>
<linearGradient id="paint35_linear_21_241" x1="34.4579" y1="55.3501" x2="43.3033" y2="59.9092" gradientUnits="userSpaceOnUse">
<stop stop-color="#58561F"/>
<stop offset="1" stop-color="#B4A34E"/>
</linearGradient>
<linearGradient id="paint36_linear_21_241" x1="121.248" y1="100.55" x2="108.717" y2="94.0909" gradientUnits="userSpaceOnUse">
<stop stop-color="#B4A34E"/>
<stop offset="1" stop-color="#58561F"/>
</linearGradient>
<linearGradient id="paint37_linear_21_241" x1="117.562" y1="98.6499" x2="108.717" y2="94.0908" gradientUnits="userSpaceOnUse">
<stop stop-color="#58561F"/>
<stop offset="1" stop-color="#B4A34E"/>
</linearGradient>
<linearGradient id="paint38_linear_21_241" x1="59.8783" y1="28.6181" x2="64.3917" y2="41.9737" gradientUnits="userSpaceOnUse">
<stop stop-color="#B4A34E"/>
<stop offset="1" stop-color="#58561F"/>
</linearGradient>
<linearGradient id="paint39_linear_21_241" x1="61.2057" y1="32.5462" x2="64.3917" y2="41.9736" gradientUnits="userSpaceOnUse">
<stop stop-color="#58561F"/>
<stop offset="1" stop-color="#B4A34E"/>
</linearGradient>
<linearGradient id="paint40_linear_21_241" x1="92.1418" y1="125.382" x2="87.6283" y2="112.026" gradientUnits="userSpaceOnUse">
<stop stop-color="#B4A34E"/>
<stop offset="1" stop-color="#58561F"/>
</linearGradient>
<linearGradient id="paint41_linear_21_241" x1="90.8143" y1="121.454" x2="87.6284" y2="112.026" gradientUnits="userSpaceOnUse">
<stop stop-color="#58561F"/>
<stop offset="1" stop-color="#B4A34E"/>
</linearGradient>
<linearGradient id="paint42_linear_21_241" x1="94.8244" y1="29.5968" x2="89.677" y2="42.7211" gradientUnits="userSpaceOnUse">
<stop stop-color="#B4A34E"/>
<stop offset="1" stop-color="#58561F"/>
</linearGradient>
<linearGradient id="paint43_linear_21_241" x1="93.3104" y1="33.4569" x2="89.677" y2="42.7211" gradientUnits="userSpaceOnUse">
<stop stop-color="#58561F"/>
<stop offset="1" stop-color="#B4A34E"/>
</linearGradient>
<linearGradient id="paint44_linear_21_241" x1="57.1957" y1="124.403" x2="62.3431" y2="111.279" gradientUnits="userSpaceOnUse">
<stop stop-color="#B4A34E"/>
<stop offset="1" stop-color="#58561F"/>
</linearGradient>
<linearGradient id="paint45_linear_21_241" x1="58.7096" y1="120.543" x2="62.3431" y2="111.279" gradientUnits="userSpaceOnUse">
<stop stop-color="#58561F"/>
<stop offset="1" stop-color="#B4A34E"/>
</linearGradient>
<linearGradient id="paint46_linear_21_241" x1="24.25" y1="147" x2="24.25" y2="165" gradientUnits="userSpaceOnUse">
<stop stop-color="#B4A34E"/>
<stop offset="1" stop-color="#58561F"/>
</linearGradient>
<linearGradient id="paint47_linear_21_241" x1="38.5" y1="148" x2="38.5" y2="170" gradientUnits="userSpaceOnUse">
<stop stop-color="#B4A34E"/>
<stop offset="1" stop-color="#58561F"/>
</linearGradient>
<linearGradient id="paint48_linear_21_241" x1="129.5" y1="148" x2="129.5" y2="170" gradientUnits="userSpaceOnUse">
<stop stop-color="#B4A34E"/>
<stop offset="1" stop-color="#58561F"/>
</linearGradient>
<linearGradient id="paint49_linear_21_241" x1="110.871" y1="147.969" x2="110.871" y2="164.969" gradientUnits="userSpaceOnUse">
<stop stop-color="#B4A34E"/>
<stop offset="1" stop-color="#58561F"/>
</linearGradient>
<linearGradient id="paint50_linear_21_241" x1="66.25" y1="143" x2="66.25" y2="166" gradientUnits="userSpaceOnUse">
<stop stop-color="#B4A34E"/>
<stop offset="1" stop-color="#58561F"/>
</linearGradient>
<linearGradient id="paint51_linear_21_241" x1="85.5" y1="142" x2="85.5" y2="167" gradientUnits="userSpaceOnUse">
<stop stop-color="#B4A34E"/>
<stop offset="1" stop-color="#58561F"/>
</linearGradient>
<linearGradient id="paint52_linear_21_241" x1="85.5" y1="142" x2="85.5" y2="167" gradientUnits="userSpaceOnUse">
<stop stop-color="#B4A34E"/>
<stop offset="1" stop-color="#58561F"/>
</linearGradient>
</defs>
</svg>
