<svg width="150" height="225" viewBox="0 0 150 225" fill="none" xmlns="http://www.w3.org/2000/svg">
<path d="M0 7C0 3.13401 3.13401 0 7 0H143C146.866 0 150 3.13401 150 7V218C150 221.866 146.866 225 143 225H7C3.13401 225 0 221.866 0 218V7Z" fill="#363636"/>
<rect x="16.5" y="184.5" width="117" height="25.5" rx="8.5" fill="url(#paint0_linear_15_49)"/>
<path d="M29.964 194.616H27.052V192.9H34.982V194.616H32.07V202H29.964V194.616ZM43.1611 200.31V202H36.1151V192.9H42.9921V194.59H38.2081V196.566H42.4331V198.204H38.2081V200.31H43.1611ZM53.1178 202L53.1048 196.54L50.4268 201.038H49.4778L46.8128 196.657V202H44.8368V192.9H46.5788L49.9848 198.555L53.3388 192.9H55.0678L55.0938 202H53.1178ZM61.1918 192.9C61.9978 192.9 62.6955 193.034 63.2848 193.303C63.8828 193.572 64.3422 193.953 64.6628 194.447C64.9835 194.941 65.1438 195.526 65.1438 196.202C65.1438 196.869 64.9835 197.454 64.6628 197.957C64.3422 198.451 63.8828 198.832 63.2848 199.101C62.6955 199.361 61.9978 199.491 61.1918 199.491H59.3588V202H57.2528V192.9H61.1918ZM61.0748 197.775C61.7075 197.775 62.1885 197.641 62.5178 197.372C62.8472 197.095 63.0118 196.705 63.0118 196.202C63.0118 195.691 62.8472 195.301 62.5178 195.032C62.1885 194.755 61.7075 194.616 61.0748 194.616H59.3588V197.775H61.0748ZM73.6934 200.31V202H66.6474V192.9H73.5244V194.59H68.7404V196.566H72.9654V198.204H68.7404V200.31H73.6934ZM81.167 202L79.412 199.465H79.308H77.475V202H75.369V192.9H79.308C80.114 192.9 80.8117 193.034 81.401 193.303C81.999 193.572 82.4584 193.953 82.779 194.447C83.0997 194.941 83.26 195.526 83.26 196.202C83.26 196.878 83.0954 197.463 82.766 197.957C82.4454 198.442 81.986 198.815 81.388 199.075L83.429 202H81.167ZM81.128 196.202C81.128 195.691 80.9634 195.301 80.634 195.032C80.3047 194.755 79.8237 194.616 79.191 194.616H77.475V197.788H79.191C79.8237 197.788 80.3047 197.649 80.634 197.372C80.9634 197.095 81.128 196.705 81.128 196.202ZM90.9216 200.05H86.6966L85.8906 202H83.7326L87.7886 192.9H89.8686L93.9376 202H91.7276L90.9216 200.05ZM90.2586 198.451L88.8156 194.967L87.3726 198.451H90.2586ZM103.228 192.9V202H101.499L96.9617 196.475V202H94.8817V192.9H96.6237L101.148 198.425V192.9H103.228ZM109.736 202.156C108.808 202.156 107.968 201.957 107.214 201.558C106.468 201.151 105.879 200.592 105.446 199.881C105.021 199.162 104.809 198.351 104.809 197.45C104.809 196.549 105.021 195.743 105.446 195.032C105.879 194.313 106.468 193.754 107.214 193.355C107.968 192.948 108.813 192.744 109.749 192.744C110.537 192.744 111.248 192.883 111.881 193.16C112.522 193.437 113.059 193.836 113.493 194.356L112.141 195.604C111.525 194.893 110.763 194.538 109.853 194.538C109.289 194.538 108.787 194.664 108.345 194.915C107.903 195.158 107.556 195.5 107.305 195.942C107.062 196.384 106.941 196.887 106.941 197.45C106.941 198.013 107.062 198.516 107.305 198.958C107.556 199.4 107.903 199.747 108.345 199.998C108.787 200.241 109.289 200.362 109.853 200.362C110.763 200.362 111.525 200.002 112.141 199.283L113.493 200.531C113.059 201.06 112.522 201.463 111.881 201.74C111.239 202.017 110.524 202.156 109.736 202.156ZM121.961 200.31V202H114.915V192.9H121.792V194.59H117.008V196.566H121.233V198.204H117.008V200.31H121.961Z" fill="#534100"/>
<path d="M50.9185 74.3048C52.0372 88.1155 51.3021 117.547 39.4119 124.785C45.1652 127.484 58.2061 130.5 64.3429 120.975C66.2607 118.912 69.9045 117.356 69.1374 127.643C75.3701 121.928 88.3151 111.546 90.2329 115.737C91.831 117.801 94.0684 123.642 90.2329 130.5C96.4657 128.436 106.055 120.975 94.5479 107.641C83.0412 94.3065 60.6672 79.8608 50.9185 74.3048Z" fill="url(#paint1_linear_15_49)"/>
<path d="M46.3281 57.4462C43.8786 56.8699 38.2015 57.5327 35.0891 64.7949C31.1987 73.8725 35.5214 82.0857 26.4437 86.4084C17.366 90.7311 13.0433 114.506 21.6887 117.532C28.605 119.953 28.3169 125.457 27.3082 127.906C35.3773 124.592 51.256 115.889 50.2186 107.59C49.4981 103.987 49.2676 96.9558 54.109 97.6474C58.9505 98.3391 50.939 71.1348 46.3281 57.4462Z" fill="url(#paint2_linear_15_49)"/>
<path d="M97.3876 58.9038C99.9106 58.3253 105.758 58.9906 108.964 66.2808C112.971 75.3934 108.518 83.6382 117.868 87.9776C127.218 92.3169 131.67 116.183 122.766 119.221C115.642 121.651 115.939 127.176 116.978 129.635C108.667 126.309 92.312 117.572 93.3805 109.24C94.1226 105.624 94.36 98.5656 89.3734 99.2599C84.3869 99.9542 92.6385 72.6452 97.3876 58.9038Z" fill="url(#paint3_linear_15_49)"/>
<path d="M102.523 73.8725C102.523 99.4174 89.5566 120.126 73.5613 120.126C57.5659 120.126 44.5991 99.4174 44.5991 73.8725C44.5991 48.3277 57.5659 41.4522 73.5613 41.4522C89.5566 41.4522 102.523 48.3277 102.523 73.8725Z" fill="url(#paint4_linear_15_49)"/>
<path d="M73.5613 79.9243C74.4258 104.564 78.3162 106.293 73.5613 120.125C57.566 120.125 44.599 99.4173 44.599 73.8725C44.1667 63.4963 46.7605 58.743 46.7605 58.743C55.4058 64.7948 76.1548 71.2789 73.5613 79.9243Z" fill="url(#paint5_linear_15_49)"/>
<path d="M69.9644 71.5943C69.714 74.4292 65.8334 77.2928 61.4721 76.9075C57.1108 76.5223 53.6301 71.8148 53.8805 68.9799L69.9644 71.5943Z" fill="#363636"/>
<path d="M79.0901 71.7568C79.5011 74.5248 83.4771 77.1094 87.7356 76.477C91.9941 75.8447 95.1363 71.021 94.7252 68.253L79.0901 71.7568Z" fill="#363636"/>
<path d="M70.0932 71.5664C69.4699 72.5815 63.7451 70.1544 58.7787 67.1047C53.8123 64.0551 49.852 61.4757 50.4096 60.5677C50.9672 59.6596 55.059 62.0247 60.0254 65.0744C64.9918 68.1241 70.7166 70.5512 70.0932 71.5664Z" fill="url(#paint6_linear_15_49)"/>
<path d="M97.6412 61.1472C98.153 62.2151 93.0069 65.7038 87.7513 68.2227C82.4958 70.7416 78.1813 72.6708 77.7235 71.7157C77.2657 70.7605 81.4722 68.6058 86.7277 66.087C91.9833 63.5681 97.1294 60.0794 97.6412 61.1472Z" fill="url(#paint7_linear_15_49)"/>
<path d="M69.2385 85.9761C73.5612 86.8407 73.5612 81.6534 75.2903 89.002C76.6736 94.8809 71.8322 89.4343 69.2385 85.9761Z" fill="url(#paint8_linear_15_49)"/>
<path d="M79.1807 104.904C79.1807 104.297 74.7984 104.688 72.9203 104.688C71.2508 104.688 67.0771 104.464 67.0771 104.904C67.0771 106.268 72.4223 107.157 72.9203 107.157C73.4182 107.157 79.1807 106.268 79.1807 104.904Z" fill="url(#paint9_linear_15_49)"/>
<path d="M79.1807 104.904C79.1807 104.297 74.7984 104.688 72.9203 104.688C71.2508 104.688 67.0771 104.464 67.0771 104.904C67.0771 106.268 72.4223 107.157 72.9203 107.157C73.4182 107.157 79.1807 106.268 79.1807 104.904Z" fill="url(#paint10_linear_15_49)"/>
<path d="M83.5035 103.563C83.5035 105.033 76.3039 104.45 73.2184 104.45C70.4757 104.45 63.619 105.033 63.619 103.563C63.619 102.093 72.1899 100.014 73.2184 101.788C74.2469 100.014 83.5035 102.093 83.5035 103.563Z" fill="url(#paint11_linear_15_49)"/>
<path d="M83.5035 103.563C83.5035 105.033 76.3039 104.45 73.2184 104.45C70.4757 104.45 63.619 105.033 63.619 103.563C63.619 102.093 72.1899 100.014 73.2184 101.788C74.2469 100.014 83.5035 102.093 83.5035 103.563Z" fill="url(#paint12_linear_15_49)"/>
<path d="M46.7605 58.743L42.4377 28.4841C43.4464 27.3313 46.4146 24.853 50.2186 24.1614C55.8381 40.5876 66.0397 31.3371 68.8063 22H80.9099C84.8003 33.239 87.9126 35.2275 98.633 25.8904L105.117 28.4841L100.794 58.743C96.9039 51.8267 84.8003 48.8008 73.9935 48.8008C71.3999 48.8008 54.5413 48.8008 46.7605 58.743Z" fill="url(#paint13_linear_15_49)"/>
<path d="M17 148V152C18.6667 153 22 156.5 25 161L22.5 163L23.5 164.5L26 163L27.5 165L30 163L28.5 161.5L30 159.5L28.5 158L27 159.5C23 155 21 150.5 21 149L17 148Z" fill="url(#paint14_linear_15_49)"/>
<path d="M38.562 152.4V165H35.646V154.74H33.126V152.4H38.562Z" fill="url(#paint15_linear_15_49)"/>
<path d="M128.562 152.4V165H125.646V154.74H123.126V152.4H128.562Z" fill="url(#paint16_linear_15_49)"/>
<path d="M111.23 165C108.297 162.757 102.355 157.562 102.049 154.729C101.666 151.188 103.579 148 105.874 148C108.169 148 110.082 150.479 110.465 151.896C110.847 150.448 112.454 148 114.29 148C116.585 148 119.645 150.125 118.88 154.729C118.268 158.412 113.525 163.111 111.23 165Z" fill="url(#paint17_linear_15_49)"/>
<path d="M76 136L70.3659 146.079L81.9118 145.919L76 136ZM77.4999 171.986L77.1249 144.985L75.1251 145.013L75.5001 172.014L77.4999 171.986Z" fill="url(#paint18_linear_15_49)"/>
<defs>
<linearGradient id="paint0_linear_15_49" x1="75" y1="184.5" x2="75" y2="210" gradientUnits="userSpaceOnUse">
<stop stop-color="#B4A34E"/>
<stop offset="1" stop-color="#58561F"/>
</linearGradient>
<linearGradient id="paint1_linear_15_49" x1="69.6708" y1="74.3048" x2="69.6708" y2="130.5" gradientUnits="userSpaceOnUse">
<stop stop-color="#B4A34E"/>
<stop offset="1" stop-color="#58561F"/>
</linearGradient>
<linearGradient id="paint2_linear_15_49" x1="36.3056" y1="57.2861" x2="36.3056" y2="127.906" gradientUnits="userSpaceOnUse">
<stop stop-color="#B4A34E"/>
<stop offset="1" stop-color="#58561F"/>
</linearGradient>
<linearGradient id="paint3_linear_15_49" x1="107.711" y1="58.743" x2="107.711" y2="129.635" gradientUnits="userSpaceOnUse">
<stop stop-color="#B4A34E"/>
<stop offset="1" stop-color="#58561F"/>
</linearGradient>
<linearGradient id="paint4_linear_15_49" x1="73.5613" y1="41.4522" x2="73.5613" y2="120.126" gradientUnits="userSpaceOnUse">
<stop stop-color="#B4A34E"/>
<stop offset="1" stop-color="#58561F"/>
</linearGradient>
<linearGradient id="paint5_linear_15_49" x1="65.7803" y1="61.7689" x2="73.5612" y2="120.126" gradientUnits="userSpaceOnUse">
<stop stop-color="#58561F"/>
<stop offset="1" stop-color="#B4A34E"/>
</linearGradient>
<linearGradient id="paint6_linear_15_49" x1="60.0254" y1="65.0744" x2="58.7786" y2="67.1047" gradientUnits="userSpaceOnUse">
<stop stop-color="#B4A34E"/>
<stop offset="1" stop-color="#58561F"/>
</linearGradient>
<linearGradient id="paint7_linear_15_49" x1="86.7277" y1="66.0869" x2="87.7513" y2="68.2227" gradientUnits="userSpaceOnUse">
<stop stop-color="#B4A34E"/>
<stop offset="1" stop-color="#58561F"/>
</linearGradient>
<linearGradient id="paint8_linear_15_49" x1="72.3863" y1="84.9981" x2="72.3863" y2="91.6028" gradientUnits="userSpaceOnUse">
<stop stop-color="#B4A34E"/>
<stop offset="1" stop-color="#58561F"/>
</linearGradient>
<linearGradient id="paint9_linear_15_49" x1="73.1289" y1="107.791" x2="73.1289" y2="102.629" gradientUnits="userSpaceOnUse">
<stop stop-color="#B4A34E"/>
<stop offset="1" stop-color="#58561F"/>
</linearGradient>
<linearGradient id="paint10_linear_15_49" x1="73.1289" y1="107.791" x2="73.1289" y2="102.629" gradientUnits="userSpaceOnUse">
<stop stop-color="#B4A34E"/>
<stop offset="1" stop-color="#58561F"/>
</linearGradient>
<linearGradient id="paint11_linear_15_49" x1="73.5612" y1="101.106" x2="73.5612" y2="106.668" gradientUnits="userSpaceOnUse">
<stop stop-color="#B4A34E"/>
<stop offset="1" stop-color="#58561F"/>
</linearGradient>
<linearGradient id="paint12_linear_15_49" x1="73.5612" y1="101.106" x2="73.5612" y2="106.668" gradientUnits="userSpaceOnUse">
<stop stop-color="#B4A34E"/>
<stop offset="1" stop-color="#58561F"/>
</linearGradient>
<linearGradient id="paint13_linear_15_49" x1="73.7774" y1="22" x2="73.7774" y2="58.743" gradientUnits="userSpaceOnUse">
<stop stop-color="#B4A34E"/>
<stop offset="1" stop-color="#58561F"/>
</linearGradient>
<linearGradient id="paint14_linear_15_49" x1="24.25" y1="147" x2="24.25" y2="165" gradientUnits="userSpaceOnUse">
<stop stop-color="#B4A34E"/>
<stop offset="1" stop-color="#58561F"/>
</linearGradient>
<linearGradient id="paint15_linear_15_49" x1="37" y1="148" x2="37" y2="170" gradientUnits="userSpaceOnUse">
<stop stop-color="#B4A34E"/>
<stop offset="1" stop-color="#58561F"/>
</linearGradient>
<linearGradient id="paint16_linear_15_49" x1="127" y1="148" x2="127" y2="170" gradientUnits="userSpaceOnUse">
<stop stop-color="#B4A34E"/>
<stop offset="1" stop-color="#58561F"/>
</linearGradient>
<linearGradient id="paint17_linear_15_49" x1="110.871" y1="147.969" x2="110.871" y2="164.969" gradientUnits="userSpaceOnUse">
<stop stop-color="#B4A34E"/>
<stop offset="1" stop-color="#58561F"/>
</linearGradient>
<linearGradient id="paint18_linear_15_49" x1="76.5" y1="135.993" x2="77" y2="171.993" gradientUnits="userSpaceOnUse">
<stop stop-color="#B4A34E"/>
<stop offset="1" stop-color="#58561F"/>
</linearGradient>
</defs>
</svg>
