<svg width="150" height="225" viewBox="0 0 150 225" fill="none" xmlns="http://www.w3.org/2000/svg">
<path d="M0 7C0 3.13401 3.13401 0 7 0H143C146.866 0 150 3.13401 150 7V218C150 221.866 146.866 225 143 225H7C3.13401 225 0 221.866 0 218V7Z" fill="#363636"/>
<rect x="16.5" y="184.5" width="117" height="25.5" rx="8.5" fill="url(#paint0_linear_21_348)"/>
<path d="M31.192 195.048H28.056V193.2H36.596V195.048H33.46V203H31.192V195.048ZM46.8043 193.2V203H44.5363V198.982H40.0843V203H37.8163V193.2H40.0843V197.064H44.5363V193.2H46.8043ZM56.7109 201.18V203H49.1229V193.2H56.5289V195.02H51.3769V197.148H55.9269V198.912H51.3769V201.18H56.7109ZM77.2924 193.2L74.0864 203H71.6504L69.4944 196.364L67.2684 203H64.8464L61.6264 193.2H63.9784L66.1904 200.088L68.5004 193.2H70.6004L72.8404 200.144L75.1224 193.2H77.2924ZM83.1814 203.168C82.1641 203.168 81.2448 202.949 80.4234 202.51C79.6114 202.071 78.9721 201.469 78.5054 200.704C78.0481 199.929 77.8194 199.061 77.8194 198.1C77.8194 197.139 78.0481 196.275 78.5054 195.51C78.9721 194.735 79.6114 194.129 80.4234 193.69C81.2448 193.251 82.1641 193.032 83.1814 193.032C84.1988 193.032 85.1134 193.251 85.9254 193.69C86.7374 194.129 87.3768 194.735 87.8434 195.51C88.3101 196.275 88.5434 197.139 88.5434 198.1C88.5434 199.061 88.3101 199.929 87.8434 200.704C87.3768 201.469 86.7374 202.071 85.9254 202.51C85.1134 202.949 84.1988 203.168 83.1814 203.168ZM83.1814 201.236C83.7601 201.236 84.2828 201.105 84.7494 200.844C85.2161 200.573 85.5801 200.2 85.8414 199.724C86.1121 199.248 86.2474 198.707 86.2474 198.1C86.2474 197.493 86.1121 196.952 85.8414 196.476C85.5801 196 85.2161 195.631 84.7494 195.37C84.2828 195.099 83.7601 194.964 83.1814 194.964C82.6028 194.964 82.0801 195.099 81.6134 195.37C81.1468 195.631 80.7781 196 80.5074 196.476C80.2461 196.952 80.1154 197.493 80.1154 198.1C80.1154 198.707 80.2461 199.248 80.5074 199.724C80.7781 200.2 81.1468 200.573 81.6134 200.844C82.0801 201.105 82.6028 201.236 83.1814 201.236ZM96.4919 203L94.6019 200.27H94.4899H92.5159V203H90.2479V193.2H94.4899C95.3579 193.2 96.1093 193.345 96.7439 193.634C97.3879 193.923 97.8826 194.334 98.2279 194.866C98.5733 195.398 98.7459 196.028 98.7459 196.756C98.7459 197.484 98.5686 198.114 98.2139 198.646C97.8686 199.169 97.3739 199.57 96.7299 199.85L98.9279 203H96.4919ZM96.4499 196.756C96.4499 196.205 96.2726 195.785 95.9179 195.496C95.5633 195.197 95.0453 195.048 94.3639 195.048H92.5159V198.464H94.3639C95.0453 198.464 95.5633 198.315 95.9179 198.016C96.2726 197.717 96.4499 197.297 96.4499 196.756ZM100.543 193.2H102.811V201.152H107.725V203H100.543V193.2ZM108.992 193.2H113.444C114.508 193.2 115.446 193.405 116.258 193.816C117.079 194.217 117.714 194.787 118.162 195.524C118.619 196.261 118.848 197.12 118.848 198.1C118.848 199.08 118.619 199.939 118.162 200.676C117.714 201.413 117.079 201.987 116.258 202.398C115.446 202.799 114.508 203 113.444 203H108.992V193.2ZM113.332 201.138C114.312 201.138 115.091 200.867 115.67 200.326C116.258 199.775 116.552 199.033 116.552 198.1C116.552 197.167 116.258 196.429 115.67 195.888C115.091 195.337 114.312 195.062 113.332 195.062H111.26V201.138H113.332Z" fill="#534100"/>
<path d="M107 73C107 98.9574 99.9412 125 75 125C46.2941 125 43 98.9574 43 73C43 62.2325 45.4652 53.5152 49.6119 47C55.4618 37.8088 64.6579 33 75 33C85.3421 33 94.5382 37.8088 100.388 47C104.535 53.5152 107 62.2325 107 73Z" fill="url(#paint1_linear_21_348)"/>
<path d="M112 62.6829C112 90.5396 75.5362 104 75.5362 104C75.5362 104 39.0723 90.5396 39.0723 62.6829C39.0723 51.1276 43.3623 38 38 22.439C38 22.439 63.7514 16 75.5362 16C87.3209 16 110.928 22.439 110.928 22.439C106.102 41.2195 112 51.1276 112 62.6829Z" fill="url(#paint2_linear_21_348)"/>
<path d="M69 88C69 88 64.4136 86 58.7561 86C53.0985 86 48 79.2091 48 77C48 77 53.0985 78 58.7561 78C64.4136 78 69 85.7909 69 88Z" fill="#363636"/>
<path d="M81 88C81 88 85.5864 86 91.2439 86C96.9015 86 102 79.2091 102 77C102 77 96.9015 78 91.2439 78C85.5864 78 81 85.7909 81 88Z" fill="#363636"/>
<path d="M82.5715 112.021C82.5715 111.218 76.7784 111.735 74.2956 111.735C72.0887 111.735 66.5714 111.439 66.5714 112.021C66.5714 113.824 73.6373 115 74.2956 115C74.9539 115 82.5715 113.824 82.5715 112.021Z" fill="url(#paint3_linear_21_348)"/>
<path d="M82.5715 112.021C82.5715 111.218 76.7784 111.735 74.2956 111.735C72.0887 111.735 66.5714 111.439 66.5714 112.021C66.5714 113.824 73.6373 115 74.2956 115C74.9539 115 82.5715 113.824 82.5715 112.021Z" fill="url(#paint4_linear_21_348)"/>
<path d="M88.2859 110.248C88.2859 112.191 78.7686 111.421 74.6897 111.421C71.0641 111.421 62 112.191 62 110.248C62 110.248 73.3301 105.556 74.6897 107.902C76.0493 105.556 88.2859 110.248 88.2859 110.248Z" fill="url(#paint5_linear_21_348)"/>
<path d="M88.2859 110.248C88.2859 112.191 78.7686 111.421 74.6897 111.421C71.0641 111.421 62 112.191 62 110.248C62 110.248 73.3301 105.556 74.6897 107.902C76.0493 105.556 88.2859 110.248 88.2859 110.248Z" fill="url(#paint6_linear_21_348)"/>
<path d="M84 127C84 133.627 79.9706 125 75 125C70.0294 125 66 133.627 66 127C66 120.373 70.0294 115 75 115C79.9706 115 84 120.373 84 127Z" fill="url(#paint7_linear_21_348)"/>
<path d="M17 148V152C18.6667 153 22 156.5 25 161L22.5 163L23.5 164.5L26 163L27.5 165L30 163L28.5 161.5L30 159.5L28.5 158L27 159.5C23 155 21 150.5 21 149L17 148Z" fill="url(#paint8_linear_21_348)"/>
<path d="M39.588 157.53C40.692 157.71 41.538 158.124 42.126 158.772C42.714 159.408 43.008 160.2 43.008 161.148C43.008 161.88 42.816 162.558 42.432 163.182C42.048 163.794 41.46 164.286 40.668 164.658C39.888 165.03 38.928 165.216 37.788 165.216C36.9 165.216 36.024 165.102 35.16 164.874C34.308 164.634 33.582 164.298 32.982 163.866L34.116 161.634C34.596 161.994 35.148 162.276 35.772 162.48C36.408 162.672 37.056 162.768 37.716 162.768C38.448 162.768 39.024 162.63 39.444 162.354C39.864 162.066 40.074 161.664 40.074 161.148C40.074 160.116 39.288 159.6 37.716 159.6H36.384V157.674L38.976 154.74H33.612V152.4H42.432V154.29L39.588 157.53Z" fill="url(#paint9_linear_21_348)"/>
<path d="M135.24 162.354H133.188V165H130.344V162.354H123.558V160.392L129.498 152.4H132.558L127.05 159.978H130.434V157.62H133.188V159.978H135.24V162.354Z" fill="url(#paint10_linear_21_348)"/>
<path d="M111.23 165C108.297 162.757 102.355 157.562 102.049 154.729C101.666 151.187 103.579 148 105.874 148C108.169 148 110.082 150.479 110.465 151.896C110.847 150.448 112.454 148 114.29 148C116.585 148 119.645 150.125 118.88 154.729C118.268 158.412 113.525 163.111 111.23 165Z" fill="url(#paint11_linear_21_348)"/>
<defs>
<linearGradient id="paint0_linear_21_348" x1="75" y1="184.5" x2="75" y2="210" gradientUnits="userSpaceOnUse">
<stop stop-color="#B4A34E"/>
<stop offset="1" stop-color="#58561F"/>
</linearGradient>
<linearGradient id="paint1_linear_21_348" x1="75" y1="33" x2="75" y2="125" gradientUnits="userSpaceOnUse">
<stop stop-color="#58561F"/>
<stop offset="1" stop-color="#B4A34E"/>
</linearGradient>
<linearGradient id="paint2_linear_21_348" x1="75" y1="16" x2="75" y2="104" gradientUnits="userSpaceOnUse">
<stop stop-color="#B4A34E"/>
<stop offset="1" stop-color="#58561F"/>
</linearGradient>
<linearGradient id="paint3_linear_21_348" x1="74.5715" y1="115.837" x2="74.5715" y2="109.014" gradientUnits="userSpaceOnUse">
<stop stop-color="#B4A34E"/>
<stop offset="0.711458" stop-color="#58561F"/>
</linearGradient>
<linearGradient id="paint4_linear_21_348" x1="74.5715" y1="115.837" x2="74.5715" y2="109.014" gradientUnits="userSpaceOnUse">
<stop stop-color="#B4A34E"/>
<stop offset="0.711458" stop-color="#58561F"/>
</linearGradient>
<linearGradient id="paint5_linear_21_348" x1="75.1429" y1="107" x2="75.1429" y2="114.353" gradientUnits="userSpaceOnUse">
<stop stop-color="#B4A34E"/>
<stop offset="0.675" stop-color="#58561F"/>
</linearGradient>
<linearGradient id="paint6_linear_21_348" x1="75.1429" y1="107" x2="75.1429" y2="114.353" gradientUnits="userSpaceOnUse">
<stop stop-color="#B4A34E"/>
<stop offset="0.675" stop-color="#58561F"/>
</linearGradient>
<linearGradient id="paint7_linear_21_348" x1="75" y1="115" x2="75" y2="129.504" gradientUnits="userSpaceOnUse">
<stop stop-color="#B4A34E"/>
<stop offset="1" stop-color="#58561F"/>
</linearGradient>
<linearGradient id="paint8_linear_21_348" x1="24.25" y1="147" x2="24.25" y2="165" gradientUnits="userSpaceOnUse">
<stop stop-color="#B4A34E"/>
<stop offset="1" stop-color="#58561F"/>
</linearGradient>
<linearGradient id="paint9_linear_21_348" x1="38.5" y1="148" x2="38.5" y2="170" gradientUnits="userSpaceOnUse">
<stop stop-color="#B4A34E"/>
<stop offset="1" stop-color="#58561F"/>
</linearGradient>
<linearGradient id="paint10_linear_21_348" x1="129.5" y1="148" x2="129.5" y2="170" gradientUnits="userSpaceOnUse">
<stop stop-color="#B4A34E"/>
<stop offset="1" stop-color="#58561F"/>
</linearGradient>
<linearGradient id="paint11_linear_21_348" x1="110.871" y1="147.969" x2="110.871" y2="164.969" gradientUnits="userSpaceOnUse">
<stop stop-color="#B4A34E"/>
<stop offset="1" stop-color="#58561F"/>
</linearGradient>
</defs>
</svg>
