<svg width="150" height="225" viewBox="0 0 150 225" fill="none" xmlns="http://www.w3.org/2000/svg">
<path d="M0 7C0 3.13401 3.13401 0 7 0H143C146.866 0 150 3.13401 150 7V218C150 221.866 146.866 225 143 225H7C3.13401 225 0 221.866 0 218V7Z" fill="#363636"/>
<rect x="16.5" y="183.5" width="117" height="25.5" rx="8.5" fill="url(#paint0_linear_21_348)"/>
<path d="M31.192 194.048H28.056V192.2H36.596V194.048H33.46V202H31.192V194.048ZM46.8043 192.2V202H44.5363V197.982H40.0843V202H37.8163V192.2H40.0843V196.064H44.5363V192.2H46.8043ZM56.7109 200.18V202H49.1229V192.2H56.5289V194.02H51.3769V196.148H55.9269V197.912H51.3769V200.18H56.7109ZM77.2924 192.2L74.0864 202H71.6504L69.4944 195.364L67.2684 202H64.8464L61.6264 192.2H63.9784L66.1904 199.088L68.5004 192.2H70.6004L72.8404 199.144L75.1224 192.2H77.2924ZM83.1814 202.168C82.1641 202.168 81.2448 201.949 80.4234 201.51C79.6114 201.071 78.9721 200.469 78.5054 199.704C78.0481 198.929 77.8194 198.061 77.8194 197.1C77.8194 196.139 78.0481 195.275 78.5054 194.51C78.9721 193.735 79.6114 193.129 80.4234 192.69C81.2448 192.251 82.1641 192.032 83.1814 192.032C84.1988 192.032 85.1134 192.251 85.9254 192.69C86.7374 193.129 87.3768 193.735 87.8434 194.51C88.3101 195.275 88.5434 196.139 88.5434 197.1C88.5434 198.061 88.3101 198.929 87.8434 199.704C87.3768 200.469 86.7374 201.071 85.9254 201.51C85.1134 201.949 84.1988 202.168 83.1814 202.168ZM83.1814 200.236C83.7601 200.236 84.2828 200.105 84.7494 199.844C85.2161 199.573 85.5801 199.2 85.8414 198.724C86.1121 198.248 86.2474 197.707 86.2474 197.1C86.2474 196.493 86.1121 195.952 85.8414 195.476C85.5801 195 85.2161 194.631 84.7494 194.37C84.2828 194.099 83.7601 193.964 83.1814 193.964C82.6028 193.964 82.0801 194.099 81.6134 194.37C81.1468 194.631 80.7781 195 80.5074 195.476C80.2461 195.952 80.1154 196.493 80.1154 197.1C80.1154 197.707 80.2461 198.248 80.5074 198.724C80.7781 199.2 81.1468 199.573 81.6134 199.844C82.0801 200.105 82.6028 200.236 83.1814 200.236ZM96.4919 202L94.6019 199.27H94.4899H92.5159V202H90.2479V192.2H94.4899C95.3579 192.2 96.1093 192.345 96.7439 192.634C97.3879 192.923 97.8826 193.334 98.2279 193.866C98.5733 194.398 98.7459 195.028 98.7459 195.756C98.7459 196.484 98.5686 197.114 98.2139 197.646C97.8686 198.169 97.3739 198.57 96.7299 198.85L98.9279 202H96.4919ZM96.4499 195.756C96.4499 195.205 96.2726 194.785 95.9179 194.496C95.5633 194.197 95.0453 194.048 94.3639 194.048H92.5159V197.464H94.3639C95.0453 197.464 95.5633 197.315 95.9179 197.016C96.2726 196.717 96.4499 196.297 96.4499 195.756ZM100.543 192.2H102.811V200.152H107.725V202H100.543V192.2ZM108.992 192.2H113.444C114.508 192.2 115.446 192.405 116.258 192.816C117.079 193.217 117.714 193.787 118.162 194.524C118.619 195.261 118.848 196.12 118.848 197.1C118.848 198.08 118.619 198.939 118.162 199.676C117.714 200.413 117.079 200.987 116.258 201.398C115.446 201.799 114.508 202 113.444 202H108.992V192.2ZM113.332 200.138C114.312 200.138 115.091 199.867 115.67 199.326C116.258 198.775 116.552 198.033 116.552 197.1C116.552 196.167 116.258 195.429 115.67 194.888C115.091 194.337 114.312 194.062 113.332 194.062H111.26V200.138H113.332Z" fill="#534100"/>
<path d="M107 72C107 97.9574 99.9412 124 75 124C46.2941 124 43 97.9574 43 72C43 61.2325 45.4652 52.5152 49.6119 46C55.4618 36.8088 64.6579 32 75 32C85.3421 32 94.5382 36.8088 100.388 46C104.535 52.5152 107 61.2325 107 72Z" fill="url(#paint1_linear_21_348)"/>
<path d="M112 61.6829C112 89.5396 75.5362 103 75.5362 103C75.5362 103 39.0723 89.5396 39.0723 61.6829C39.0723 50.1276 43.3623 37 38 21.439C38 21.439 63.7514 15 75.5362 15C87.3209 15 110.928 21.439 110.928 21.439C106.102 40.2195 112 50.1276 112 61.6829Z" fill="url(#paint2_linear_21_348)"/>
<path d="M110.928 21.439L75.5362 36L38 21.439C38 21.439 63.7514 15 75.5362 15C87.3209 15 110.928 21.439 110.928 21.439Z" fill="url(#paint3_linear_21_348)"/>
<path d="M69 87C69 87 64.4136 85 58.7561 85C53.0985 85 48 78.2091 48 76C48 76 53.0985 77 58.7561 77C64.4136 77 69 84.7909 69 87Z" fill="#363636"/>
<path d="M81 87C81 87 85.5864 85 91.2439 85C96.9015 85 102 78.2091 102 76C102 76 96.9015 77 91.2439 77C85.5864 77 81 84.7909 81 87Z" fill="#363636"/>
<path d="M82.5715 111.021C82.5715 110.218 76.7784 110.735 74.2956 110.735C72.0887 110.735 66.5714 110.439 66.5714 111.021C66.5714 112.824 73.6373 114 74.2956 114C74.9539 114 82.5715 112.824 82.5715 111.021Z" fill="url(#paint4_linear_21_348)"/>
<path d="M82.5715 111.021C82.5715 110.218 76.7784 110.735 74.2956 110.735C72.0887 110.735 66.5714 110.439 66.5714 111.021C66.5714 112.824 73.6373 114 74.2956 114C74.9539 114 82.5715 112.824 82.5715 111.021Z" fill="url(#paint5_linear_21_348)"/>
<path d="M88.2859 109.248C88.2859 111.191 78.7686 110.421 74.6897 110.421C71.0641 110.421 62 111.191 62 109.248C62 109.248 73.3301 104.556 74.6897 106.902C76.0493 104.556 88.2859 109.248 88.2859 109.248Z" fill="url(#paint6_linear_21_348)"/>
<path d="M88.2859 109.248C88.2859 111.191 78.7686 110.421 74.6897 110.421C71.0641 110.421 62 111.191 62 109.248C62 109.248 73.3301 104.556 74.6897 106.902C76.0493 104.556 88.2859 109.248 88.2859 109.248Z" fill="url(#paint7_linear_21_348)"/>
<path d="M84 126C84 132.627 79.9706 124 75 124C70.0294 124 66 132.627 66 126C66 119.373 70.0294 114 75 114C79.9706 114 84 119.373 84 126Z" fill="url(#paint8_linear_21_348)"/>
<path d="M17 147V151C18.6667 152 22 155.5 25 160L22.5 162L23.5 163.5L26 162L27.5 164L30 162L28.5 160.5L30 158.5L28.5 157L27 158.5C23 154 21 149.5 21 148L17 147Z" fill="url(#paint9_linear_21_348)"/>
<path d="M39.588 156.53C40.692 156.71 41.538 157.124 42.126 157.772C42.714 158.408 43.008 159.2 43.008 160.148C43.008 160.88 42.816 161.558 42.432 162.182C42.048 162.794 41.46 163.286 40.668 163.658C39.888 164.03 38.928 164.216 37.788 164.216C36.9 164.216 36.024 164.102 35.16 163.874C34.308 163.634 33.582 163.298 32.982 162.866L34.116 160.634C34.596 160.994 35.148 161.276 35.772 161.48C36.408 161.672 37.056 161.768 37.716 161.768C38.448 161.768 39.024 161.63 39.444 161.354C39.864 161.066 40.074 160.664 40.074 160.148C40.074 159.116 39.288 158.6 37.716 158.6H36.384V156.674L38.976 153.74H33.612V151.4H42.432V153.29L39.588 156.53Z" fill="url(#paint10_linear_21_348)"/>
<path d="M135.24 161.354H133.188V164H130.344V161.354H123.558V159.392L129.498 151.4H132.558L127.05 158.978H130.434V156.62H133.188V158.978H135.24V161.354Z" fill="url(#paint11_linear_21_348)"/>
<path d="M111.23 164C108.297 161.757 102.355 156.562 102.049 153.729C101.666 150.188 103.579 147 105.874 147C108.169 147 110.082 149.479 110.465 150.896C110.847 149.448 112.454 147 114.29 147C116.585 147 119.645 149.125 118.88 153.729C118.268 157.412 113.525 162.111 111.23 164Z" fill="url(#paint12_linear_21_348)"/>
<circle cx="74" cy="155" r="10" fill="url(#paint13_linear_21_348)"/>
<circle cx="74" cy="155" r="8" fill="#363636"/>
<path d="M74 148.5L72.5566 151H75.4434L74 148.5ZM74.25 155V150.75H73.75V155H74.25Z" fill="url(#paint14_linear_21_348)"/>
<path d="M79.9045 157.718L78.9041 156.304L78.1799 157.877L79.9045 157.718ZM73.9373 155.136L78.6155 157.29L78.7409 157.017L74.0627 154.864L73.9373 155.136Z" fill="url(#paint15_linear_21_348)"/>
<circle cx="74" cy="155" r="1" fill="url(#paint16_linear_21_348)"/>
<defs>
<linearGradient id="paint0_linear_21_348" x1="75" y1="183.5" x2="75" y2="209" gradientUnits="userSpaceOnUse">
<stop stop-color="#B4A34E"/>
<stop offset="1" stop-color="#58561F"/>
</linearGradient>
<linearGradient id="paint1_linear_21_348" x1="75" y1="32" x2="75" y2="124" gradientUnits="userSpaceOnUse">
<stop stop-color="#58561F"/>
<stop offset="1" stop-color="#B4A34E"/>
</linearGradient>
<linearGradient id="paint2_linear_21_348" x1="75" y1="15" x2="75" y2="103" gradientUnits="userSpaceOnUse">
<stop stop-color="#B4A34E"/>
<stop offset="1" stop-color="#58561F"/>
</linearGradient>
<linearGradient id="paint3_linear_21_348" x1="75" y1="15" x2="75" y2="36" gradientUnits="userSpaceOnUse">
<stop stop-color="#B4A34E"/>
<stop offset="1" stop-color="#58561F"/>
</linearGradient>
<linearGradient id="paint4_linear_21_348" x1="74.5715" y1="114.837" x2="74.5715" y2="108.014" gradientUnits="userSpaceOnUse">
<stop stop-color="#B4A34E"/>
<stop offset="0.711458" stop-color="#58561F"/>
</linearGradient>
<linearGradient id="paint5_linear_21_348" x1="74.5715" y1="114.837" x2="74.5715" y2="108.014" gradientUnits="userSpaceOnUse">
<stop stop-color="#B4A34E"/>
<stop offset="0.711458" stop-color="#58561F"/>
</linearGradient>
<linearGradient id="paint6_linear_21_348" x1="75.1429" y1="106" x2="75.1429" y2="113.353" gradientUnits="userSpaceOnUse">
<stop stop-color="#B4A34E"/>
<stop offset="0.675" stop-color="#58561F"/>
</linearGradient>
<linearGradient id="paint7_linear_21_348" x1="75.1429" y1="106" x2="75.1429" y2="113.353" gradientUnits="userSpaceOnUse">
<stop stop-color="#B4A34E"/>
<stop offset="0.675" stop-color="#58561F"/>
</linearGradient>
<linearGradient id="paint8_linear_21_348" x1="75" y1="114" x2="75" y2="128.504" gradientUnits="userSpaceOnUse">
<stop stop-color="#B4A34E"/>
<stop offset="1" stop-color="#58561F"/>
</linearGradient>
<linearGradient id="paint9_linear_21_348" x1="24.25" y1="146" x2="24.25" y2="164" gradientUnits="userSpaceOnUse">
<stop stop-color="#B4A34E"/>
<stop offset="1" stop-color="#58561F"/>
</linearGradient>
<linearGradient id="paint10_linear_21_348" x1="38.5" y1="147" x2="38.5" y2="169" gradientUnits="userSpaceOnUse">
<stop stop-color="#B4A34E"/>
<stop offset="1" stop-color="#58561F"/>
</linearGradient>
<linearGradient id="paint11_linear_21_348" x1="129.5" y1="147" x2="129.5" y2="169" gradientUnits="userSpaceOnUse">
<stop stop-color="#B4A34E"/>
<stop offset="1" stop-color="#58561F"/>
</linearGradient>
<linearGradient id="paint12_linear_21_348" x1="110.871" y1="146.969" x2="110.871" y2="163.969" gradientUnits="userSpaceOnUse">
<stop stop-color="#B4A34E"/>
<stop offset="1" stop-color="#58561F"/>
</linearGradient>
<linearGradient id="paint13_linear_21_348" x1="74" y1="145" x2="74" y2="165" gradientUnits="userSpaceOnUse">
<stop stop-color="#B4A34E"/>
<stop offset="1" stop-color="#58561F"/>
</linearGradient>
<linearGradient id="paint14_linear_21_348" x1="74.5" y1="148.5" x2="74.5" y2="155" gradientUnits="userSpaceOnUse">
<stop stop-color="#B4A34E"/>
<stop offset="1" stop-color="#58561F"/>
</linearGradient>
<linearGradient id="paint15_linear_21_348" x1="79.6955" y1="158.172" x2="73.7909" y2="155.454" gradientUnits="userSpaceOnUse">
<stop stop-color="#B4A34E"/>
<stop offset="1" stop-color="#58561F"/>
</linearGradient>
<linearGradient id="paint16_linear_21_348" x1="74" y1="154" x2="74" y2="156" gradientUnits="userSpaceOnUse">
<stop stop-color="#B4A34E"/>
<stop offset="1" stop-color="#58561F"/>
</linearGradient>
</defs>
</svg>
